<svg id="Calque_1" data-name="Calque 1" xmlns="http://www.w3.org/2000/svg" viewBox="0 0 331.92 362.35"><defs><style>.afrique{fill:#8cc63f;}</style></defs><title>afrique</title><path class="afrique" d="M976.52,718.81a16,16,0,0,1-14.58-11.75,1.91,1.91,0,0,1-.07-.36c-1.1-7.74-1.88-15.54-2.32-23.18-.53-9.18-.47-16.19-.42-22.37.08-9.23.14-16.51-1.84-26.31a101.17,101.17,0,0,0-5.66-18.66c-9.23-5.41-13.66-10.76-13.53-16.35a15,15,0,0,1,1.83-6.2,36.14,36.14,0,0,0,2.82-8.07,39.28,39.28,0,0,0,.89-7.1,74,74,0,0,0-28.94-37,2.51,2.51,0,0,1-1-2.83l7.66-24.51a2.5,2.5,0,0,1,.15-.38c.38-.75,3.57-7.45,0-13.74a14.11,14.11,0,0,0-6.11-5.66l-31.16-2.22-49.52,18.95a2.51,2.51,0,0,1-.9.16,2.6,2.6,0,0,1-.82-.13,54.76,54.76,0,0,1-34.24-68.22,2.09,2.09,0,0,1,.17-.41l27.57-52.85a2.5,2.5,0,0,1,.61-.76,129.25,129.25,0,0,1,56.24-27.34,3,3,0,0,1,.52,0h23.74a2.5,2.5,0,0,1,2.48,2.16l2.15,15.82A68.25,68.25,0,0,0,953.08,393h.25a27.05,27.05,0,0,1-.67-8.51,28.28,28.28,0,0,1,6.72-16,2.49,2.49,0,0,1,1.9-.87l.38,0,40.59,6.29a2.51,2.51,0,0,1,2,1.64l9.86,27.9c22.68,35.21,35.93,42.61,43.05,42.61a9.57,9.57,0,0,0,2.35-.28c2.54-.61,4.85-2.28,8.35-4.8a123.5,123.5,0,0,1,19.48-11.86,144.37,144.37,0,0,1,15.36-6.48,2.74,2.74,0,0,1,.84-.14,2.49,2.49,0,0,1,2.35,3.34,371.08,371.08,0,0,1-48.61,92.54,37,37,0,0,1,5.75,7.47,39.67,39.67,0,0,1,4.92,24.52,55.76,55.76,0,0,1-4,16.75,56.34,56.34,0,0,1-6.5,11.65l9.58,7.66a2.52,2.52,0,0,1,.94,2,145.92,145.92,0,0,1-79,124.44c-1.39,1.65-5.58,5.88-12,5.88Z" transform="translate(-793.82 -358.97)"/><path d="M907.66,364q1.15,8.43,2.3,16.85a70.7,70.7,0,0,0,43.12,14.64q2,0,3.6-.09a25.12,25.12,0,0,1-1.53-10.72,25.6,25.6,0,0,1,6.13-14.55l40.59,6.29,10,28.17c22.33,34.73,36.28,44,45.31,44a12.11,12.11,0,0,0,2.95-.35c6.44-1.56,10.81-8.24,28.34-16.85a140.15,140.15,0,0,1,15.09-6.36A369.06,369.06,0,0,1,1054,518.69a35.21,35.21,0,0,1,6.89,8.43,37.46,37.46,0,0,1,4.6,23A53.29,53.29,0,0,1,1054,579.2l11.49,9.19A143.43,143.43,0,0,1,987.32,711c-.4.52-4.22,5.36-10.38,5.36h-.34a13.54,13.54,0,0,1-12.26-10c-1.39-9.76-2-17.72-2.3-23-1.31-22.93,1.06-32.37-2.3-49a104.52,104.52,0,0,0-6.12-19.91c-10.76-6.14-13.1-11.06-13-14.56.08-3.72,2.9-6.08,4.59-13.78a42.47,42.47,0,0,0,1-8,76.61,76.61,0,0,0-30.07-38.7l7.65-24.51c.38-.74,4.18-8.6,0-16.08a16.59,16.59,0,0,0-7.65-6.9l-32.18-2.29-50,19.14a52.26,52.26,0,0,1-32.68-65.1Q815,417.2,828.77,390.78A126.62,126.62,0,0,1,883.91,364h23.75m0-5H883.91a4.51,4.51,0,0,0-1,.11,131.65,131.65,0,0,0-57.32,27.86,5,5,0,0,0-1.23,1.52l-17.19,33-10.38,19.89a4.79,4.79,0,0,0-.34.81,57.27,57.27,0,0,0,35.81,71.34,5.13,5.13,0,0,0,1.64.27,5,5,0,0,0,1.79-.33l49-18.75,30.1,2.15a11.47,11.47,0,0,1,4.61,4.41c2.93,5.26,0,11.15-.1,11.4a5,5,0,0,0-.31.76l-3.83,12.26-3.83,12.25a5,5,0,0,0,2,5.66,71.57,71.57,0,0,1,27.81,35.31,37.5,37.5,0,0,1-.82,6.17,33.85,33.85,0,0,1-2.65,7.57,17.48,17.48,0,0,0-2.06,7.18c-.15,6.41,4.45,12.35,14,18.13a99.69,99.69,0,0,1,5.21,17.44c1.92,9.53,1.86,16.71,1.79,25.79,0,6.22-.11,13.27.42,22.53.44,7.71,1.23,15.58,2.34,23.39a4.19,4.19,0,0,0,.16.72,18.44,18.44,0,0,0,16.9,13.54h.49c7,0,11.66-4.26,13.56-6.38a148.4,148.4,0,0,0,79.94-126.34,5,5,0,0,0-1.87-4.1l-3.13-2.51-4.63-3.7a58.17,58.17,0,0,0,9.61-27.71,42.1,42.1,0,0,0-5.25-26,39.55,39.55,0,0,0-4.68-6.41,373.05,373.05,0,0,0,47.74-91.49,5,5,0,0,0-4.71-6.68,4.81,4.81,0,0,0-1.67.29,144.45,144.45,0,0,0-15.63,6.59A125.59,125.59,0,0,0,1066.38,439c-3.26,2.35-5.42,3.9-7.48,4.41a7.78,7.78,0,0,1-1.76.2c-5.31,0-17.66-5.37-40.79-41.22l-4.78-13.54-5-14.08a5,5,0,0,0-4-3.28l-40.6-6.3a6.47,6.47,0,0,0-.76,0,5,5,0,0,0-3.8,1.74,30.87,30.87,0,0,0-7.32,17.42,30.09,30.09,0,0,0,.16,6.15,65.84,65.84,0,0,1-35.69-12.35l-1.77-13-.25-1.81a5,5,0,0,0-5-4.32Z" transform="translate(-793.82 -358.97)"/><path class="afrique" d="M1098.09,688.94c-6.49,0-11.63-7-14.11-11.18a2.55,2.55,0,0,1-.29-1.85l6-25.42-3.27-11.79a10.68,10.68,0,0,1-7.34-8.61,10.94,10.94,0,0,1,8.57-11.91l14.18-6.48,9.87-15.41a2.5,2.5,0,0,1,2.11-1.15h.12a2.51,2.51,0,0,1,2.1,1.36,64.86,64.86,0,0,1,7.08,25.43,66,66,0,0,1-7.66,35.27c-.28,19.41-8.78,31.37-16.93,31.73Z" transform="translate(-793.82 -358.97)"/><path d="M1113.79,597.64a62.92,62.92,0,0,1,6.81,24.46,63.84,63.84,0,0,1-7.66,34.46c-.1,17.93-7.63,29.56-14.56,29.88h-.29c-5.74,0-10.59-7.65-12-10q3.06-13,6.13-26l-3.83-13.79a8.4,8.4,0,0,1-6.9-6.89,8.52,8.52,0,0,1,6.9-9.2l15.09-6.89q5.13-8,10.27-16m0-5a5,5,0,0,0-4.21,2.3l-5.4,8.42-4.08,6.37-13.3,6.08a13.44,13.44,0,0,0-10.22,14.62,13.1,13.1,0,0,0,7.75,10.14l2.76,10-.42,1.8-5.41,23a5,5,0,0,0,.57,3.7c2.75,4.64,8.53,12.41,16.26,12.41h.52c5.33-.24,10.44-4.24,14-11,3.27-6.14,5.09-13.93,5.29-22.62a68.46,68.46,0,0,0,7.66-36.08,67.4,67.4,0,0,0-7.34-26.4,5,5,0,0,0-4.21-2.71Z" transform="translate(-793.82 -358.97)"/></svg>