<svg id="amnord" data-name="amnord" xmlns="http://www.w3.org/2000/svg" viewBox="0 0 555.34 376.34"><defs><style>.amnord{fill:#6500b4;}</style></defs><title>amnord</title><path class="amnord" d="M1112.48,490.48h-.38c-4.53-.25-8.2-4.74-11.52-14.09a39.75,39.75,0,0,1-11.69-15.89c-5.17-13-1.73-24.87,0-29.39a2.48,2.48,0,0,1,1.22-1.35A23.44,23.44,0,0,0,1103.27,409c.11-11.85-9-18.66-10.8-19.88a61.07,61.07,0,0,0-15.73-2.16c-.8,0-1.56,0-2.27.05l-1.65.08c-1,.06-2.11.12-3.12.12-2.38,0-5.36-.3-7.25-2.67s-2-5.68-.4-10.06a2.49,2.49,0,0,1,1.5-1.51,297,297,0,0,1,90.38-17.77c3.75-.14,7.57-.21,11.33-.21a298.14,298.14,0,0,1,61.28,6.39,2.45,2.45,0,0,1,1.26.69,26.46,26.46,0,0,1,6.77,25.38,2.68,2.68,0,0,1-.65,1.13l-37.54,37.53a2.67,2.67,0,0,1-.57.43l-17.93,9.71-16.05,20.28a2.51,2.51,0,0,1-2,1l-.28,0-25.8-2.83c-9.71,31.73-16.47,35.86-21.31,35.86Z" transform="translate(-682.61 -352.48)"/><path d="M1165.26,357.48a294.58,294.58,0,0,1,60.76,6.34,24,24,0,0,1,6.13,23l-37.53,37.53-18.39,10L1159.87,455,1132,451.9Q1121.21,488,1112.48,488h-.24q-5.12-.3-9.54-13.1a37.34,37.34,0,0,1-11.49-15.32c-5.16-12.94-1.13-24.59,0-27.57a26.07,26.07,0,0,0,14.56-23c.14-14.13-11.58-21.78-12.26-22.21a63,63,0,0,0-16.77-2.35c-.84,0-1.63,0-2.38.05-1.61.07-3.21.2-4.66.2-2.26,0-4.17-.32-5.3-1.73-1.58-2-.87-5.21,0-7.66A295.14,295.14,0,0,1,1154,357.69q5.73-.21,11.24-.21m0-5v0h0c-3.8,0-7.64.07-11.43.22a299.53,299.53,0,0,0-91.14,17.91,5,5,0,0,0-3,3c-1.88,5.25-1.61,9.44.8,12.46,2.88,3.61,7.47,3.61,9.2,3.61,1.08,0,2.19-.06,3.26-.12l1.61-.08c.72,0,1.45-.05,2.17-.05a58.29,58.29,0,0,1,14.66,2c2.12,1.53,9.47,7.54,9.37,17.55A21,21,0,0,1,1089,427.51a5,5,0,0,0-2.45,2.7c-1.82,4.79-5.47,17.43,0,31.21a42.22,42.22,0,0,0,11.88,16.44c2.42,6.65,6.4,14.71,13.51,15.11h.52c8.42,0,15.2-10.39,23.09-35.65l23.75,2.61a5.07,5.07,0,0,0,.55,0,5,5,0,0,0,3.92-1.9l15.73-19.88,8.29-4.48,9.19-5a5.08,5.08,0,0,0,1.15-.86l18.77-18.77,18.76-18.77a4.88,4.88,0,0,0,1.3-2.25,29,29,0,0,0-7.4-27.78,5,5,0,0,0-2.53-1.37,300.26,300.26,0,0,0-61.79-6.45Z" transform="translate(-682.61 -352.48)"/><path class="amnord" d="M1148.75,498.89a2.39,2.39,0,0,1-.87-.16,29,29,0,0,1-14.94-12.44,27.52,27.52,0,0,1-3.42-10.33,2.5,2.5,0,0,1,2.48-2.81h33.51a2.5,2.5,0,0,1,2.45,3,31.62,31.62,0,0,1-5,11.64,32,32,0,0,1-13.19,10.88A2.64,2.64,0,0,1,1148.75,498.89Z" transform="translate(-682.61 -352.48)"/><path d="M1165.51,475.65a29,29,0,0,1-4.6,10.72,29.43,29.43,0,0,1-12.15,10,26.44,26.44,0,0,1-13.65-11.34,25.06,25.06,0,0,1-3.11-9.4h33.51m0-5H1132a5,5,0,0,0-5,5.62,29.8,29.8,0,0,0,3.74,11.26A31.5,31.5,0,0,0,1147,501.08a5.1,5.1,0,0,0,3.8-.12A34.56,34.56,0,0,0,1165,489.23a34.05,34.05,0,0,0,5.39-12.56,5,5,0,0,0-4.9-6Z" transform="translate(-682.61 -352.48)"/><path class="amnord" d="M787.13,726.32a2.15,2.15,0,0,1-.43,0,77.78,77.78,0,0,1-36.4-16.62c-18.93-15.69-25-36-26.91-46.67a2.28,2.28,0,0,1,0-.45V621.11c-7.4-12.47-22.3-43.58-10.63-76.15a74.5,74.5,0,0,1,11.15-20.28,2.8,2.8,0,0,1,.28-.31l40.73-37.64a17.1,17.1,0,0,0-2.09-11.3c-3.1-5-9.1-8-16-8a24.43,24.43,0,0,0-5.55.64L710,481.77a3.09,3.09,0,0,1-.54.17,29.06,29.06,0,0,1-5.31.51A18.8,18.8,0,0,1,693,479.2c-8.72-6.36-11.64-23.09-1.43-40.07a2.19,2.19,0,0,1,.37-.48l37.54-37.53a2.45,2.45,0,0,1,1.39-.71l25.27-3.83a2.43,2.43,0,0,1,.38,0h.15l128.67,7.61,43.76-26.41a2.52,2.52,0,0,1,1.29-.36,2.55,2.55,0,0,1,1.53.52l25.44,19.63a12.17,12.17,0,0,1,5.59-1.39,8.5,8.5,0,0,1,8.87,10.25,12.08,12.08,0,0,1-5.63,8.55,2.71,2.71,0,0,1-.81.33l-46.43,9.82a27.19,27.19,0,0,0-14,16,26.81,26.81,0,0,0,1.57,21.13,27.45,27.45,0,0,0,37,11.31l34-27.2c1.1-1.54,5.39-6.79,12.53-6.9h.23a15.53,15.53,0,0,1,9.84,3.64L1014.88,455l19.2-10.67a2.53,2.53,0,0,1,1.22-.32,2.33,2.33,0,0,1,.53.06c4.61,1,20.38,5.52,29.94,21a46.94,46.94,0,0,1,6.48,29.94,2.51,2.51,0,0,1-2.39,2.21l-42.26,1.59H1027a44.43,44.43,0,0,0-21.86,5.74A45,45,0,0,0,987,524.21a2.49,2.49,0,0,1-.45.66A41.37,41.37,0,0,1,967,536.28a40.88,40.88,0,0,1-10.16,1.28,41.73,41.73,0,0,1-9.26-1A97.79,97.79,0,0,0,927.48,551c-3.19,3-5.45,5.55-7.63,8a70.13,70.13,0,0,1-11,10.54,67.76,67.76,0,0,1-19.75,10.28l-28.06,12.74,4.36,33.64a2.51,2.51,0,0,1-1.79,2.73,2.72,2.72,0,0,1-.69.09,2.48,2.48,0,0,1-2.27-1.46c-3.82-8.32-15.28-28.73-39.28-38.55a71.25,71.25,0,0,0-27.15-5.28c-1.85,0-3.74.07-5.61.21a66.31,66.31,0,0,0-32.53,49.36l20.4,7.74a2.49,2.49,0,0,1,1.51,3.07L776,650.85h16.53a2.5,2.5,0,0,1,1.54,4.47c-2.79,2.17-6.44,5-10.71,8.42-14.81,11.72-16.67,13.58-17.63,15.86-1.34,3.16-2.44,10.22,5.06,22L789,722.16a2.51,2.51,0,0,1-1.87,4.16Z" transform="translate(-682.61 -352.48)"/><path d="M930.36,379.9l26.81,20.69a9.73,9.73,0,0,1,5.74-1.93,6.7,6.7,0,0,1,5,1.93c2.58,2.82,2,9.08-3.06,12.25l-46.72,9.89a29.67,29.67,0,1,0,26.8,52.92l34.47-27.58c.33-.5,4.07-6,10.73-6.12h.19a13.06,13.06,0,0,1,8.23,3.06l16.09,13,20.68-11.49c3,.65,18.81,4.43,28.34,19.92a44.65,44.65,0,0,1,6.13,28.34l-42.13,1.59H1027a46.56,46.56,0,0,0-42.24,26.75,39,39,0,0,1-18.38,10.72,38.22,38.22,0,0,1-9.54,1.2,39.09,39.09,0,0,1-9.61-1.2,100.08,100.08,0,0,0-21.44,15.32c-7.92,7.45-10.38,12.33-18.39,18.38a65.26,65.26,0,0,1-19.15,10l-29.87,13.55,4.6,35.48c-2.8-6.11-14.19-29-40.6-39.83a74.14,74.14,0,0,0-28.1-5.46c-2.4,0-4.54.11-6.37.26A68.76,68.76,0,0,0,753.43,635l10.39,3.94,11.82,4.48q-1.53,5-3.07,10h19.92c-2.79,2.18-6.45,5-10.72,8.43-15.32,12.12-17.18,14-18.39,16.85-1,2.44-3.63,10.45,5.36,24.51l18.39,20.68a75.36,75.36,0,0,1-35.24-16.09c-20.06-16.63-24.86-38.66-26-45.19V620.41c-4.27-7.08-23.15-40.08-10.77-74.6a72,72,0,0,1,10.77-19.61L767.21,488c.39-2.15,1.19-8.23-2.3-13.86s-10.46-9.19-18.16-9.19a27.4,27.4,0,0,0-6.35.76L709,479.48a26.66,26.66,0,0,1-4.85.47c-5.65,0-8.78-2.09-9.7-2.77-8.07-5.88-9.89-21.6-.77-36.77l37.53-37.53,25.28-3.83,129.45,7.66,44.42-26.81m0-5a5,5,0,0,0-2.58.72l-43.1,26-127.9-7.57h-.29a4.74,4.74,0,0,0-.75.06l-25.28,3.83a5,5,0,0,0-2.78,1.41l-37.53,37.53a5,5,0,0,0-.75,1c-9.81,16.31-8.89,35.37,2.1,43.38A21.53,21.53,0,0,0,704.15,485a31.38,31.38,0,0,0,5.77-.56,5.09,5.09,0,0,0,1.09-.33l15.7-6.9,15.28-6.7a22,22,0,0,1,4.75-.53c6,0,11.32,2.61,13.92,6.82a14.18,14.18,0,0,1,1.84,8.78l-19.36,17.89-20.68,19.11a4.76,4.76,0,0,0-.57.62,77,77,0,0,0-11.52,21c-11.85,33,2.79,64.51,10.48,77.67v40.75a5.26,5.26,0,0,0,.08.89c2,11,8.24,32,27.77,48.15a80.33,80.33,0,0,0,37.58,17.17,5,5,0,0,0,.85.07,5,5,0,0,0,3.73-8.32l-4.32-4.87-13.79-15.51c-7-11.15-5.68-17.38-4.76-19.55.74-1.76,3-3.92,16.88-14.87,3.54-2.81,7.14-5.63,10.69-8.41a5,5,0,0,0-3.07-8.94H779.34l1.08-3.49a5,5,0,0,0-3-6.14l-5.91-2.24-5.91-2.25-5.2-2-1.52-.57a63.75,63.75,0,0,1,30.54-45.27c1.62-.11,3.25-.17,4.85-.17a68.75,68.75,0,0,1,26.21,5.09c23.16,9.48,34.25,29.24,37.94,37.29a5,5,0,0,0,4.55,2.91,5.1,5.1,0,0,0,1.38-.19,5,5,0,0,0,3.58-5.45l-2.44-18.82-1.68-13,26.26-11.92a70.41,70.41,0,0,0,20.34-10.62,71.67,71.67,0,0,0,11.32-10.87c2.15-2.43,4.37-4.94,7.47-7.86A95.73,95.73,0,0,1,948,539.16a43.72,43.72,0,0,0,40.4-12.55,5.06,5.06,0,0,0,.91-1.33,42.35,42.35,0,0,1,17.1-18.47,41.86,41.86,0,0,1,20.63-5.42h.84l40.64-1.54,1.49-.06a5,5,0,0,0,4.77-4.4,49.42,49.42,0,0,0-6.83-31.55c-10.08-16.37-26.68-21.12-31.53-22.18a4.81,4.81,0,0,0-1.07-.12,5.06,5.06,0,0,0-2.43.63L1015.14,452l-13.43-10.87A18,18,0,0,0,990.3,437H990a18.67,18.67,0,0,0-14.33,7.67l-33.54,26.83a25,25,0,0,1-33.41-10.37,24.35,24.35,0,0,1-1.42-19.18,24.73,24.73,0,0,1,12.41-14.41l46.13-9.76a5.06,5.06,0,0,0,1.62-.65,14.57,14.57,0,0,0,6.78-10.34,11,11,0,0,0-11.36-13.08,14.42,14.42,0,0,0-5.24,1L933.42,376a5,5,0,0,0-3.06-1.05Z" transform="translate(-682.61 -352.48)"/></svg>