<svg id="amsud" data-name="amsud" xmlns="http://www.w3.org/2000/svg" viewBox="0 0 285.7 430.85"><defs><style>.amsud{fill:#ff6a76;}</style></defs><title>amsud</title><path class="amsud" d="M971,753.17c-2.37,0-8.29-.76-32.36-7.32a2.53,2.53,0,0,1-1.23-.77,115.51,115.51,0,0,1-28.18-83.77l6.12-108.59a109.49,109.49,0,0,0-59-90.85c-18.79-6.48-32.55-22.08-35.93-40.74-3.78-20.84,7-37,10.39-41.47A119.58,119.58,0,0,0,851,329.43a2.49,2.49,0,0,1,1.78-2,2.35,2.35,0,0,1,.69-.1,2.48,2.48,0,0,1,1.89.87l18,20.81,48.86-21.47a2.46,2.46,0,0,1,1-.21h0a190.61,190.61,0,0,1,99.34,29.49,2.74,2.74,0,0,1,.55.47l26.5,30.29,35.6,18.94a1.4,1.4,0,0,1,.26.16A34.52,34.52,0,0,1,1098.69,424c4.09,12.42.35,26.7-9.75,37.28a2.61,2.61,0,0,1-.31.27,90.61,90.61,0,0,0-19.38,19.83c-14.63,20.53-17.4,42.59-17.15,57.48a2.59,2.59,0,0,1-.24,1.1c-13.75,29.45-30.93,54.18-51.09,73.52l-2.55,2.42c-8.8,8.31-23.52,22.23-36.06,44.49-7.91,14-10.42,23.29-11.21,27.57-4.05,21.79,3.52,41,10.78,53.5,12.15,5.46,13.74,7.08,12.87,9.65C974.29,752.06,973.4,753.17,971,753.17Z" transform="translate(-817.12 -324.82)"/><path d="M923.21,329.82a188.16,188.16,0,0,1,98,29.11l26.8,30.63,36,19.15a32.45,32.45,0,0,1,12.26,16.09c3.83,11.62.18,25-9.19,34.77A93,93,0,0,0,1067.21,480c-16.67,23.4-17.79,48.33-17.61,59-16.92,36.24-35.94,58.74-50.56,72.76-8.44,8.1-25,22.61-39.06,47.49-9.08,16.11-11,25.83-11.49,28.34-4.71,25.4,6.08,46.77,11.49,55.92q12.67,5.65,12.25,6.89c-.07.23-.49.34-1.23.34q-5.18,0-31.7-7.23a113.08,113.08,0,0,1-27.58-82q3.07-54.39,6.13-108.77a112,112,0,0,0-60.51-93.14c-18-6.13-31.22-21-34.46-38.88-3.81-21,7.91-36.89,10-39.55a122.1,122.1,0,0,0,20.68-51.32L872.66,352l50.55-22.21m-69.7-5a4.92,4.92,0,0,0-1.37.19,5,5,0,0,0-3.57,4,117,117,0,0,1-19.78,49.14C825.16,383,814,399.8,818,421.58c3.53,19.49,17.84,35.78,37.4,42.6a107,107,0,0,1,57.48,88.55l-3.09,54.82-3,53.62a117.95,117.95,0,0,0,28.8,85.55,5,5,0,0,0,2.45,1.54c24.09,6.57,30.3,7.41,33,7.41,4.24,0,5.59-2.61,6-3.74,1.54-4.54-3.14-7.17-5.14-8.3s-4.68-2.43-8.33-4.09c-6.92-12.14-13.93-30.46-10.09-51.11.76-4.12,3.2-13.08,10.92-26.79,12.36-21.93,26.91-35.69,35.61-43.9.92-.87,1.78-1.68,2.56-2.44,20.38-19.55,37.75-44.53,51.63-74.26a4.92,4.92,0,0,0,.46-2.2c-.24-14.51,2.46-36,16.69-56a88.1,88.1,0,0,1,18.85-19.28,5.32,5.32,0,0,0,.61-.55c10.75-11.24,14.71-26.49,10.33-39.79a37.12,37.12,0,0,0-14.13-18.61,5.74,5.74,0,0,0-.53-.32l-35.19-18.72-7.92-9.06L1025,355.63a4.89,4.89,0,0,0-1.1-.93,193,193,0,0,0-100.64-29.88h-.07a5,5,0,0,0-2,.42L874,346,857.3,326.55a5,5,0,0,0-3.79-1.73Z" transform="translate(-817.12 -324.82)"/></svg>