<svg id="antartique" data-name="antartique" xmlns="http://www.w3.org/2000/svg" viewBox="0 0 974.14 82.26"><defs><style>.antartique{fill:#e4ffb4;}</style></defs><title>antartique</title><path id=8 class="antartique" d="M1400.12,578.76c-2,0-4-.07-5.91-.2l-873.52-1.42a2.28,2.28,0,0,1-.78-.13l-21.8-7.17a2.5,2.5,0,0,1,.77-4.88,2,2,0,0,1,.34,0,163.67,163.67,0,0,0,21.59,1.43l2.57,0,2.35,0-.11,0a99.3,99.3,0,0,1-14.91-4.41,2.5,2.5,0,0,1-1.55-2.84,2.43,2.43,0,0,1,.72-1.3,301.42,301.42,0,0,0-30.3-4.32,2.51,2.51,0,0,1-1.45-.63c-1-.91-4.08-3.68-2.13-6.24a3.45,3.45,0,0,1,2.91-1.29,23.76,23.76,0,0,1,5.57,1.18c3.4,1,7.63,2.15,11.61,2.15a13.55,13.55,0,0,0,4.67-.73c3-1.06,5.21-3.48,6.71-7.19a2.52,2.52,0,0,1,2.13-1.56c22.53-1.72,41.33-2.59,55.88-2.59,14.88,0,25.41.87,32.18,2.67l.39.11a46.48,46.48,0,0,0,12,1.81,23.62,23.62,0,0,0,9.55-1.79,16.93,16.93,0,0,0,4.75-3.12,2.55,2.55,0,0,1,1.56-.68c11.47-.66,23.12-1.14,34.61-1.43,8.91-.23,17.94-.34,26.86-.34,7.63,0,15.36.08,23,.25a23.87,23.87,0,0,0-6.82-8.35c-1-.77-2-1.41-2.94-2-2.51-1.62-4.87-3.15-5.28-6.06-.75-5.32,6.24-9.17,8.54-10.43a2.18,2.18,0,0,1,.5-.2l14.21-4.21a8.31,8.31,0,0,1,4.23-1.25,4.93,4.93,0,0,1,2.7.73c2.4,1.54,2.18,4.77.76,7-1.27,2-3.11,2.63-4.88,3.23a16.09,16.09,0,0,0-4,1.83,8.66,8.66,0,0,0-3.57,3.8,4.46,4.46,0,0,0-.27,1.92,40.07,40.07,0,0,1,15.65,5.89,28.81,28.81,0,0,1,11.91,14.94,2.5,2.5,0,0,1-1.21,3,54.68,54.68,0,0,1-19,6c-1.71.2-3.51.34-5.39.39a3,3,0,0,1,.32,1.58,3.12,3.12,0,0,1-2.21,2.87,469.32,469.32,0,0,0,59.77,6c5.59.2,11.26.3,16.86.3a472,472,0,0,0,48.16-2.46L830.86,553a2.5,2.5,0,0,1,.95-4.46l36-7.82,24.25-12.06a2.31,2.31,0,0,1,1.06-.26l92.36-2.15A309.07,309.07,0,0,1,1067.73,515c5.77,0,11.6.17,17.34.51,8.87.51,17.8,1.44,26.58,2.75a28.38,28.38,0,0,1,14.36-3.94c5.89,0,11.09,1.91,13.56,5a9.82,9.82,0,0,1,1.73,8.25,14.43,14.43,0,0,1-.8,2.6q8.91-3.87,18-7.31a408.13,408.13,0,0,1,43.88-13.72,2.55,2.55,0,0,1,.61-.08l.27,0,86.93,9.29,72.39-9.29.32,0a2.3,2.3,0,0,1,.64.09l79.05,20.8a2.5,2.5,0,0,1-.56,4.92c-10.66.33-26.52,2.42-41.61,10.47a73,73,0,0,0-14,9.71,2.49,2.49,0,0,1-1.26.59l-26.05,4.24a48.9,48.9,0,0,0,8.7,6.18,63.23,63.23,0,0,0,26.58,7.56h11.27a2.5,2.5,0,0,1,.17,5C1403.91,578.7,1402,578.76,1400.12,578.76Z" transform="translate(-472.86 -499)"/><path d="M722.87,504a2.5,2.5,0,0,1,1.35.33c1.12.72.68,2.51,0,3.59-1.46,2.3-4.27,1.75-8.18,4.3a10.9,10.9,0,0,0-4.54,5,7.43,7.43,0,0,0,0,5A38.28,38.28,0,0,1,727.85,528a26.06,26.06,0,0,1,10.9,13.63,52.12,52.12,0,0,1-18.17,5.74,62.09,62.09,0,0,1-7.28.41c-5.23,0-9.45-.56-11.08-.56-.44,0-.69,0-.72.15-.19.76,11.92,2.49,11.81,4.3-.07,1.29-6.32,2.21-14.53,2.87a470,470,0,0,0,74.5,8.61c5.8.21,11.45.3,17,.3a475.83,475.83,0,0,0,54.83-3.17L832.34,551l36.34-7.89,24.53-12.19,92.68-2.16a307.11,307.11,0,0,1,81.84-11.26q8.4,0,17.2.5c9.69.57,18.8,1.58,27.25,2.87a25.65,25.65,0,0,1,13.83-4.05c5.21,0,9.67,1.64,11.61,4.05,3.23,4,1,12.09-7.69,16.84-.78.36-1.54.73-2.3,1.1.81-.34,1.57-.71,2.3-1.1,8.82-4.2,18.66-8.45,29.5-12.53A403.18,403.18,0,0,1,1203,511.5l87.23,9.33L1363,511.5l79,20.81c-9.06.29-26.08,1.89-42.7,10.76a74.81,74.81,0,0,0-14.54,10l-30.89,5a50.17,50.17,0,0,0,12.72,10,66.74,66.74,0,0,0,27.71,7.88l-873.61-1.42-21.8-7.17a166.14,166.14,0,0,0,21.92,1.45l2.61,0A163.83,163.83,0,0,0,551.58,566c-1.26.05-2.6.08-4,.08a102.76,102.76,0,0,1-21.4-2.23,96,96,0,0,1-14.53-4.31l20,.72c-4.61-1.26-9.45-2.47-14.54-3.59A300.77,300.77,0,0,0,479.81,551c-2-1.82-2.07-2.54-1.82-2.87a1.11,1.11,0,0,1,.92-.3c2.69,0,10.17,3.33,17.18,3.33a16.37,16.37,0,0,0,5.52-.87c4.74-1.72,7-5.75,8.18-8.61,24.28-1.86,42.29-2.59,55.69-2.59,16.44,0,25.94,1.1,31.53,2.59a50.16,50.16,0,0,0,13.07,2,26.23,26.23,0,0,0,10.56-2,19.51,19.51,0,0,0,5.45-3.59c11.13-.64,22.65-1.14,34.53-1.44q13.7-.35,26.8-.33,13.74,0,26.8.33a26.89,26.89,0,0,0-9.08-12.91c-3.59-2.76-6.91-3.91-7.27-6.46-.43-3,3.7-5.93,7.27-7.89l14.53-4.3a6.08,6.08,0,0,1,3.2-1.05m671.43,72.06h11.36c-1.35.1-3.25.19-5.54.19-1.73,0-3.69,0-5.82-.2M722.87,499h0a11,11,0,0,0-5.23,1.43l-6.65,2-7.27,2.15a4.8,4.8,0,0,0-1,.41c-2.67,1.47-10.8,5.94-9.81,13,.56,4,3.66,6,6.39,7.81.91.59,1.85,1.2,2.78,1.91a21.25,21.25,0,0,1,3.8,3.78c-6.16-.11-12.35-.16-18.47-.16-8.94,0-18,.11-26.93.34-11.52.29-23.19.77-34.69,1.44a5,5,0,0,0-3.13,1.34,14.08,14.08,0,0,1-4,2.66,21.14,21.14,0,0,1-8.54,1.58,44,44,0,0,1-11.38-1.73l-.4-.11c-7-1.85-17.72-2.75-32.82-2.75-14.61,0-33.47.88-56.07,2.6a5,5,0,0,0-4.26,3.11c-1.23,3.07-2.95,5-5.24,5.78a11.08,11.08,0,0,1-3.82.58c-3.64,0-7.68-1.14-10.93-2a24.74,24.74,0,0,0-6.25-1.28,5.94,5.94,0,0,0-4.9,2.27c-1.25,1.64-2.59,5.07,2.45,9.62a5,5,0,0,0,2.89,1.26c9.16.84,18.29,2.09,27.26,3.75a5,5,0,0,0,1.83,3.75c-3-.23-5.95-.54-8.89-.93a5,5,0,0,0-2.23,9.7l21.81,7.18a5.13,5.13,0,0,0,1.55.25l436.81.71,436.63.71c2,.13,4,.2,6,.2s3.9-.06,5.88-.2a5,5,0,0,0-.34-10h-11.17a60.84,60.84,0,0,1-25.46-7.24c-1.35-.76-2.66-1.58-3.91-2.44l20.44-3.33a5,5,0,0,0,2.51-1.19,71.32,71.32,0,0,1,13.58-9.38c14.66-7.81,30.12-9.85,40.51-10.17a5,5,0,0,0,1.11-9.84l-39.52-10.4-39.52-10.4a5.06,5.06,0,0,0-1.28-.17,4.46,4.46,0,0,0-.63.05l-72.11,9.25-86.64-9.27a4.58,4.58,0,0,0-.53,0,5,5,0,0,0-1.22.16,407.94,407.94,0,0,0-44.15,13.8q-6.87,2.58-13.65,5.43a11.82,11.82,0,0,0-2.5-8.19c-3-3.71-8.78-5.92-15.51-5.92a31,31,0,0,0-14.86,3.84c-8.57-1.25-17.28-2.15-25.93-2.65-5.79-.34-11.67-.51-17.49-.51a311.66,311.66,0,0,0-82.57,11.28l-45.72,1.06-46.34,1.08a4.8,4.8,0,0,0-2.11.52l-24,11.92-35.73,7.76a5,5,0,0,0-1.9,8.92l2.24,1.64c-13.74,1.21-27.61,1.82-41.39,1.82-5.57,0-11.21-.1-16.77-.3a467.91,467.91,0,0,1-55.28-5.26,2.33,2.33,0,0,0,.05-.28c1-.07,2-.16,2.95-.28a57.19,57.19,0,0,0,19.91-6.28,5,5,0,0,0,2.42-6,31.33,31.33,0,0,0-12.92-16.26,42,42,0,0,0-13.86-5.74,9,9,0,0,1,2-1.67,13.46,13.46,0,0,1,3.47-1.56c1.87-.64,4.45-1.5,6.19-4.26,2.43-3.84,1.78-8.34-1.52-10.46a7.4,7.4,0,0,0-4-1.13Z" transform="translate(-472.86 -499)"/></svg>