<svg id="asie" data-name="asie" xmlns="http://www.w3.org/2000/svg" viewBox="0 0 514.96 374.9"><defs><style>.asie{fill:#fbb03b;}</style></defs><title>asie</title><path class="asie" d="M955.44,725.07a16.15,16.15,0,0,1-14-9,93.29,93.29,0,0,1-24.11-41.43A91.7,91.7,0,0,1,914.75,640l-36.19-22.9L816,578.25c-10.93-3.64-15.9-4.5-18.15-4.55a39.54,39.54,0,0,0,6.22,6.1L834,605.47a2.51,2.51,0,0,1,.48,3.25L826.62,621a2.31,2.31,0,0,1-.34.42,68.7,68.7,0,0,1-47.46,19.88h0a2.36,2.36,0,0,1-.75-.12,49.38,49.38,0,0,1-34.68-44.94L739,577.17l-7.22-7.95a2.5,2.5,0,0,1,1.64-4.17c7.52-.63,13.4-4.2,14.64-8.87a7.39,7.39,0,0,0,.24-2.22H722.7c-9.45-.65-17.37-7.57-17.65-15.43a14.92,14.92,0,0,1,4.49-10.59,20.06,20.06,0,0,1,14.39-6,20.7,20.7,0,0,1,3.13.23.47.47,0,0,1,.17,0l88.09,19.14a2.85,2.85,0,0,1,.73.29,20.31,20.31,0,0,0,10.2,2.83c5.32,0,10-2.21,12.51-5.91,4-5.82,1-13.55.69-14.41-4.37-8.86-2.5-19.14,4.46-24.46a17.25,17.25,0,0,1,10.63-3.4,22,22,0,0,1,4.29.43,16.15,16.15,0,0,0,7.2-19.05l-19.16-60.79a2.5,2.5,0,0,1,1.38-3A32.81,32.81,0,0,0,867.47,378a2.5,2.5,0,0,1,2.29-2.92L891,373.58l69.48-18.33a2.72,2.72,0,0,1,.63-.08,2.56,2.56,0,0,1,1.12.26,362.16,362.16,0,0,0,52.49,21.3,360.66,360.66,0,0,0,46.4,11.41,552,552,0,0,0,59.47,6.86c11.11.68,22.4,1,33.54,1s22.43-.34,33.56-1h.5a27.31,27.31,0,0,1,20.7,9.43,23.6,23.6,0,0,1,5.93,18.71c-1.66,11.36-12.68,20.3-25.23,20.56l11.94,25.37c3.91,6.32,5.49,13.22,4.22,18.51a8.45,8.45,0,0,1-3.6,5.51,7.13,7.13,0,0,1-3.71,1c-4.05,0-9.27-2.76-13.68-7.23a58.4,58.4,0,0,1-25.31-30.23l-.09-.28-4.19-17.47a84.81,84.81,0,0,0-9.59-.56c-25.17,0-41.81,11.76-43.35,23.14-1.3,9.62,8.34,19.1,12.75,22.89,2.39,1.37,11.62,7.43,13.29,19.32a26.86,26.86,0,0,1-4.85,19.17,33,33,0,0,0-2.05,16.78,39.78,39.78,0,0,0,2.22,7.68,49.48,49.48,0,0,1,3.16,12.35,50.74,50.74,0,0,1,0,11.29,2.53,2.53,0,0,1-1.58,2.05,2.62,2.62,0,0,1-.91.17,2.52,2.52,0,0,1-1.64-.62l-12.21-10.69a7.76,7.76,0,0,0-4.83-1.71,5.93,5.93,0,0,0-5.19,2.57c-1.08,1.88-.68,5.26,1.85,7.67a2.3,2.3,0,0,1,.35.41L1123,601a18.77,18.77,0,0,1-10.7,34.37,19,19,0,0,1-2.82-.21l-23.55-.76c-5.45.08-10.06,3.79-10.51,8.46-.46,4.9,4.29,8.43,4.34,8.46a2.55,2.55,0,0,1,.3.26l20.68,20.68a2.34,2.34,0,0,1,.59.93,54.59,54.59,0,0,1,0,36.92,18.2,18.2,0,0,1-16.86,11.69c-.61,0-1.23,0-1.84-.09a18.16,18.16,0,0,1-16-16,1.86,1.86,0,0,1,0-.41c.13-2.52.28-15.64-10-25.65-8.39-8.2-18.59-9.42-23.93-9.42a26.84,26.84,0,0,0-3.15.16h-.28a2.5,2.5,0,0,1-2-1l-10-13.79a2.59,2.59,0,0,1-.46-1.21c-.75-7.24-3.12-12.3-6.65-14.25a10,10,0,0,0-4.89-1.13c-7.92,0-20.08,6.84-29.52,22.1l-6.82,53.85a2.66,2.66,0,0,1-.17.63c-.51,1.24-3.38,7.51-10.15,9.15A14,14,0,0,1,955.44,725.07Z" transform="translate(-702.55 -352.67)"/><path d="M961.09,357.67a364.42,364.42,0,0,0,52.85,21.45,364.79,364.79,0,0,0,46.72,11.49,557.11,557.11,0,0,0,59.74,6.89c11.72.71,23,1,33.7,1,11.89,0,23.15-.38,33.71-1h.35c15.17,0,25.92,13.26,24.16,25.28-1.45,9.92-11.35,18.42-23.33,18.42a25.85,25.85,0,0,1-3.48-.23q6.9,14.64,13.79,29.3c6,9.52,5.1,18.53,1.53,20.68a4.67,4.67,0,0,1-2.42.59c-3.33,0-8-2.48-12.13-6.72a55.88,55.88,0,0,1-24.51-29.11q-2.31-9.57-4.6-19.15a87.28,87.28,0,0,0-11.62-.79c-26.12,0-44.09,12.52-45.83,25.3-1.57,11.59,10.34,22.35,13.79,25.28,1.12.63,10.64,6.15,12.26,17.62a24.52,24.52,0,0,1-4.6,17.62c-3.08,8.1-3,14.27-2.3,18.38,1.14,7,4.32,10.76,5.36,19.91a47.07,47.07,0,0,1,0,10.73L1112,559.88a10.3,10.3,0,0,0-6.43-2.29,8.43,8.43,0,0,0-7.36,3.82c-1.75,3.06-1,7.64,2.3,10.73q10.34,15.32,20.68,30.64a16.27,16.27,0,0,1-8.89,30.07,17.62,17.62,0,0,1-2.6-.2l-23.74-.77c-7,.07-12.48,5-13,10.73-.6,6.3,5.13,10.55,5.37,10.72Q1088.62,663.67,1099,674a52.14,52.14,0,0,1,0,35.23,15.63,15.63,0,0,1-14.51,10,13.93,13.93,0,0,1-1.58-.08,15.59,15.59,0,0,1-13.78-13.79c.11-2.16.62-16.48-10.73-27.57-9.08-8.87-20.08-10.13-25.68-10.13a32.14,32.14,0,0,0-3.42.17l-10-13.78c-.29-2.78-1.44-12.61-7.93-16.19a12.53,12.53,0,0,0-6.1-1.44c-9.29,0-22.27,7.87-31.93,23.75q-3.45,27.19-6.89,54.39c-.26.63-2.67,6.27-8.43,7.66a11.21,11.21,0,0,1-2.57.3,13.68,13.68,0,0,1-12-8A90.94,90.94,0,0,1,919.72,674a90,90,0,0,1-2.29-35.23L879.89,615,817.09,576q-14.3-4.77-19.44-4.77c-1.52,0-2.45.31-2.78.94q-1.14,2.21,7.59,9.57l29.94,25.66q-3.93,6.14-7.88,12.26a66.28,66.28,0,0,1-45.73,19.15,46.9,46.9,0,0,1-32.94-42.9L741.26,576l-7.66-8.43c8.6-.72,15.32-5,16.85-10.72a10.91,10.91,0,0,0,0-5.36H722.87c-8.78-.61-15.1-7-15.32-13-.23-6.58,6.77-14,16.38-14a18.82,18.82,0,0,1,2.77.2l88.09,19.15A22.71,22.71,0,0,0,826.25,547c6.08,0,11.59-2.61,14.58-7,4.82-7.09,1.23-16.08.9-16.85-4-8-2.1-17,3.7-21.45a14.77,14.77,0,0,1,9.11-2.88,19,19,0,0,1,4.67.58,19.23,19.23,0,0,0,9.19-10.72,18.94,18.94,0,0,0,0-11.76l-19.14-60.77a35.8,35.8,0,0,0,16.08-14,36.24,36.24,0,0,0,4.6-24.51l21.44-1.54,69.71-18.38m0-5a5,5,0,0,0-1.27.17L925,362l-34.4,9.07-21,1.5a5,5,0,0,0-4.57,5.83,31.27,31.27,0,0,1-3.94,21.07,30.89,30.89,0,0,1-13.83,12.05,5,5,0,0,0-2.75,6.08L854.06,448l9.58,30.39a13.58,13.58,0,0,1-5.35,15.68,24.77,24.77,0,0,0-3.75-.29,19.71,19.71,0,0,0-12.15,3.91c-7.88,6-10.06,17.55-5.23,27.45.36.92,2.66,7.41-.46,12-2,3-6,4.81-10.45,4.81a17.78,17.78,0,0,1-8.94-2.49,5.1,5.1,0,0,0-1.46-.57l-88.09-19.15-.34-.06a24.2,24.2,0,0,0-3.49-.25,22.55,22.55,0,0,0-16.19,6.75,17.31,17.31,0,0,0-5.18,12.41c.32,9.1,9.28,17.1,20,17.84h22.74c-1.5,3.16-6.27,5.61-12.09,6.1a5,5,0,0,0-3.28,8.35l6.78,7.46,4.2,18.2a51.93,51.93,0,0,0,36.41,47,5.1,5.1,0,0,0,1.5.23h.06A71.17,71.17,0,0,0,828,623.18a4.61,4.61,0,0,0,.68-.85l2.08-3.22,5.81-9a5,5,0,0,0-1-6.5l-29.94-25.66-.34-.29c2.44.64,5.57,1.57,9.57,2.9l62.3,38.75,34.85,22a94.06,94.06,0,0,0,2.8,34,95.75,95.75,0,0,0,24.48,42.27,18.64,18.64,0,0,0,16.07,10,16.14,16.14,0,0,0,3.74-.44c8-1.92,11.3-9.19,11.89-10.63a5.57,5.57,0,0,0,.33-1.26l3.21-25.36,3.54-28c8.85-14,20.19-20.46,27.11-20.46a7.59,7.59,0,0,1,3.68.82c2.76,1.52,4.72,6,5.37,12.32a5.12,5.12,0,0,0,.92,2.41l4.18,5.79,5.78,8a5,5,0,0,0,4,2.07,5.12,5.12,0,0,0,.56,0,27.71,27.71,0,0,1,2.87-.14,31.7,31.7,0,0,1,22.19,8.71c9.48,9.26,9.34,21.39,9.22,23.73a5.57,5.57,0,0,0,0,.82,20.67,20.67,0,0,0,18.23,18.21c.7.07,1.4.1,2.1.1A20.7,20.7,0,0,0,1103.63,711l0-.11a57,57,0,0,0,0-38.61,5,5,0,0,0-1.17-1.84L1087,655l-5.17-5.17a5.17,5.17,0,0,0-.62-.52s-3.63-2.75-3.3-6.19c.28-2.92,3.42-6.11,8-6.2l23.35.76a22.08,22.08,0,0,0,3,.21,21.26,21.26,0,0,0,12.52-38.64L1115,584.66l-10.34-15.32a4.6,4.6,0,0,0-.7-.83c-1.71-1.62-1.91-3.72-1.4-4.61a3.57,3.57,0,0,1,3-1.31,5.22,5.22,0,0,1,3.23,1.14l12.16,10.64a5,5,0,0,0,8.26-3.2,52.18,52.18,0,0,0,0-11.85,51.28,51.28,0,0,0-3.29-12.92,37.06,37.06,0,0,1-2.1-7.23,30.3,30.3,0,0,1,1.81-15.21,29.32,29.32,0,0,0,5.1-20.69c-1.78-12.68-11.39-19.28-14.31-21-3.45-3-12.88-12-11.73-20.5,1.37-10.09,17.38-21,40.87-21,2.48,0,5,.12,7.57.36l1.49,6.18,2.29,9.57c0,.19.11.38.17.56a61,61,0,0,0,26.11,31.36c4.88,4.86,10.53,7.74,15.23,7.74a9.5,9.5,0,0,0,5-1.31,10.86,10.86,0,0,0,4.75-7.07c1.41-5.88-.25-13.44-4.45-20.28l-5.85-12.44-4.5-9.56c12.13-1.81,22.25-11,23.92-22.38a26.15,26.15,0,0,0-6.52-20.71,29.83,29.83,0,0,0-22.59-10.29h-.65c-11.08.67-22.32,1-33.41,1s-22.32-.34-33.39-1a552.56,552.56,0,0,1-59.21-6.83,361.46,361.46,0,0,1-46-11.33,360.57,360.57,0,0,1-52.13-21.15,5,5,0,0,0-2.24-.53Z" transform="translate(-702.55 -352.67)"/><path class="asie" d="M1144.46,618.19a2.51,2.51,0,0,1-2-1l-5.78-7.4a2.5,2.5,0,0,1-.42-2.3l7.34-23.11-6.81-7.78a2.5,2.5,0,0,1,.23-3.52l5.76-5a2.5,2.5,0,0,1,3.53.23l12.29,14a2.5,2.5,0,0,1,.32,2.82l-8.32,15.63-3.74,15.51a2.48,2.48,0,0,1-1.9,1.85A2.33,2.33,0,0,1,1144.46,618.19Z" transform="translate(-702.55 -352.67)"/><path d="M1144.46,570l12.28,14-8.46,15.9q-1.9,7.92-3.82,15.82l-5.78-7.4q2-6.18,3.92-12.36l3.84-12.1L1138.7,575l5.76-5m0-5a5,5,0,0,0-3.29,1.24l-5.76,5a5,5,0,0,0-.47,7l5.88,6.71-3,9.41-2,6.18-2,6.18a5,5,0,0,0,.83,4.6l5.78,7.4a5,5,0,0,0,3.94,1.92,5.45,5.45,0,0,0,1.06-.11,5,5,0,0,0,3.8-3.72l3.67-15.2,3.21-6,5-9.31a5,5,0,0,0-.65-5.65l-12.29-14a5,5,0,0,0-3.43-1.69Z" transform="translate(-702.55 -352.67)"/><path class="asie" d="M1137.24,550.54a2.47,2.47,0,0,1-1-.24l-6.63-3.06a2.49,2.49,0,0,1-1.17-3.42l6.63-12.77a2.51,2.51,0,0,1,3.85-.74l9.2,7.92a2.5,2.5,0,0,1-1.64,4.39,2.09,2.09,0,0,1-.43,0,6.19,6.19,0,0,0-.84-.05,5.1,5.1,0,0,0-5.42,5.41,2.53,2.53,0,0,1-1.11,2.18A2.57,2.57,0,0,1,1137.24,550.54Z" transform="translate(-702.55 -352.67)"/><path d="M1137.24,532.21l9.19,7.91a7.49,7.49,0,0,0-1.27-.09,7.59,7.59,0,0,0-7.92,8L1130.6,545l6.64-12.76m0-5a4.28,4.28,0,0,0-.94.09,5,5,0,0,0-3.49,2.6l-6.64,12.76a5,5,0,0,0,2.34,6.85l6.64,3.06a4.93,4.93,0,0,0,2.09.46,5,5,0,0,0,5-5.19,2.93,2.93,0,0,1,.7-2,3,3,0,0,1,2.22-.8,4.17,4.17,0,0,1,.44,0,5.31,5.31,0,0,0,.87.08,5,5,0,0,0,3.23-8.8l-4.6-4-4.6-4a5,5,0,0,0-3.26-1.21Z" transform="translate(-702.55 -352.67)"/></svg>