<svg id="Calque_1" data-name="Calque 1" xmlns="http://www.w3.org/2000/svg" viewBox="0 0 356.66 320.8"><defs><style>.cls-1{fill:#80b0b5;}.cls-1,.cls-2,.cls-3,.cls-4,.cls-5,.cls-6,.cls-7{stroke:#1e1e1c;}.cls-1,.cls-2,.cls-3,.cls-4,.cls-5,.cls-6,.cls-7,.cls-9{stroke-miterlimit:10;}.cls-1,.cls-2{stroke-width:5px;}.cls-2{fill:#292c64;}.cls-3,.cls-4{fill:none;}.cls-3{stroke-width:3px;}.cls-5{fill:#eb9e51;stroke-width:4px;}.cls-6{fill:#1e1e1c;}.cls-7{fill:#eeeded;}.cls-8{fill:#62858f;opacity:0.26;isolation:isolate;}.cls-9{fill:#99d3e0;stroke:#010101;stroke-width:0.25px;}.cls-10{fill:#25aaca;}.cls-11{fill:#fff;opacity:0.28;}</style></defs><title>carty-triste</title><polygon class="cls-1" points="112.02 43.54 115.55 65.48 103.3 68.05 99.72 45.58 112.02 43.54"/><polygon class="cls-2" points="187.42 29.75 190.1 53.55 221.76 55.79 187.42 29.75"/><path class="cls-1" d="M123.08,329.6a70.74,70.74,0,0,0,51.19-11.81,199,199,0,0,1,39.81-21.19c5.37-3.11,11.52-3,15.34.25A11.3,11.3,0,0,1,233,303a21.77,21.77,0,0,0-5.1,13.79,21,21,0,0,0,2.19,9.19,135.93,135.93,0,0,0,83-10.42V296.6c-6.29-2.42-8.87-9.76-6-15.07,2.66-5,9.54-7.09,15-3.93l36,13a40.25,40.25,0,0,0,23.51.13,39.45,39.45,0,0,0,14.49-8.13v-5a13.56,13.56,0,0,1,2.36-6.28c6.08-8.47,23.21-9.06,42.64-1.72l27,11a276.55,276.55,0,0,0-12,128l12,107,5,22c-21.1-9.92-39.15-12.24-45-4.83a9.85,9.85,0,0,0-2,4.83,21.43,21.43,0,0,1-6.7,6.4c-9.75,5.82-20.79,1.25-22.3.6l-26-9a6.94,6.94,0,0,0-5.83-1.3,6.8,6.8,0,0,0-4.17,3.3q2.49,11.5,5,23c-5.24,4.6-22.72,18.74-48.83,19.66a77.63,77.63,0,0,1-38.17-8.66q-3.51-9-7-18a11.7,11.7,0,0,0-21-8l-48,26c-8.48,9.58-19.92,10.12-24.21,5.59-3-3.13-2.89-9.1-.79-14.59q-2-33-4-66c-2.67-16.33-6.24-34-11-52.68-4.59-17.85-9.7-34.32-15-49.32a187.16,187.16,0,0,1-20.28-45.15A184.71,184.71,0,0,1,123.08,329.6Z" transform="translate(-120 -262)"/><path class="cls-3" d="M270.85,547.45c-.87-13.81-2.66-35.39-6.71-61.66-3.7-24-7.35-39.3-19.4-92.43-3.42-15.05-9-39.53-15.89-70.45" transform="translate(-120 -262)"/><path class="cls-3" d="M315.72,312.68c8.87,51.84,14.66,87.13,18.38,110.3,2.43,15.17,5.83,30.2,7.66,45.45,2.4,20.05,2.73,33.58,9.7,51.57a124.36,124.36,0,0,0,10.27,20.59" transform="translate(-120 -262)"/><path class="cls-3" d="M392.92,285.11q12.69,74.29,22.88,154.21,6.18,49,10.8,96.12" transform="translate(-120 -262)"/><path class="cls-4" d="M354.65,377.15" transform="translate(-120 -262)"/><path class="cls-5" d="M237,359.36a50.66,50.66,0,0,0-59.2,1.58,38.59,38.59,0,0,0-14,39.57l10,15.58,23.49,16.08c.37.28,5.84,4.47,5.36,11.49a13.73,13.73,0,0,1-6.25,10.22l-5.06,16.35a16.41,16.41,0,0,0,9.92,21c.51.18,1,.34,1.57.47l26,18.39,4.12,8.68c6.39,8.55,13.31,12.35,16.62,10.46.47-.27,2.63-1.66,2.55-7.66V499.32l-4.85-29.87-17.39-27.83a9.91,9.91,0,0,1-3.8-8.17,9.63,9.63,0,0,1,3.8-6.81L240.1,413Z" transform="translate(-120 -262)"/><circle class="cls-6" cx="133.68" cy="126.01" r="31.91"/><ellipse class="cls-7" cx="135.47" cy="139.86" rx="15.38" ry="12.51"/><path class="cls-8" d="M431.12,401.63c-9.12-75-23.09-117.88-11.51-123,5.78-2.55,17.58,4.49,20.69,13.09,2.05,5.68-.14,10.78-1.54,15.25-3.71,11.78-.43,31.09,6.13,69.7,2.25,13.29,3.74,19.49,4.59,24.93,8.61,55.07-3.42,109.88-9.18,109.88C436,511.51,440.08,475.23,431.12,401.63Z" transform="translate(-120 -262)"/><path class="cls-5" d="M317.25,370.39,378,350.23l22.22,3.83V334.64l12.21-1.53A14.25,14.25,0,0,1,425,334.39c6.05,4,6.13,11,6.13,11.49q-2.38,11.46-4.76,22.94l-1.07,13.41A13,13,0,0,1,409.76,392l2.61,20.91-7.55,2.42a12.93,12.93,0,0,0-6.38,8.68c-1.18,6.36,3.21,10.82,3.57,11.18l-4.08,30.95A8.42,8.42,0,0,1,383.12,471l-15.68-22-5.71-3.7-1.84,11.62L342.78,463l1.31,17.1c-1.3,5.14-5.74,8.1-9.48,7.41-3.42-.64-5.14-4.13-5.36-4.6a249.76,249.76,0,0,0-11.49-32.17c-3.32-7.61-6.85-14.55-10.32-20.9l6.41-11.75a11.15,11.15,0,0,0,1.89-8.42,11.47,11.47,0,0,0-6.39-7.87,18.73,18.73,0,0,1-5.1-19.45C307.3,373.16,316.56,370.57,317.25,370.39Z" transform="translate(-120 -262)"/><circle class="cls-6" cx="232.06" cy="115.26" r="33.01"/><path class="cls-7" d="M372.53,387.94c0,7.92-7.6,13.67-14.83,13.91-7.78.27-16-5.79-15.94-13.91s8.21-14,15.94-13.79C364.88,374.39,372.49,380.05,372.53,387.94Z" transform="translate(-120 -262)"/><path class="cls-6" d="M332,452.65l-16.55,4.94-5.56,4-9.81,1.64a39.93,39.93,0,0,1,1.45-26.62,20.13,20.13,0,0,1,17.68-7,22.86,22.86,0,0,1,10.24,13.62Z" transform="translate(-120 -262)"/><path class="cls-7" d="M307.44,451.83l7.27-4.08,6.13,1.78,2.05,2.3-3.83,3.83h-5.21a7.06,7.06,0,0,1-4.24-1.27A6.89,6.89,0,0,1,307.44,451.83Z" transform="translate(-120 -262)"/><path class="cls-8" d="M355.22,540.92c3.6,3.78-1.16,17.44-10.73,23-2.58,1.5-7.7,3.67-25-.07-20-4.3-38.39-12.61-37.76-14.48.46-1.39,10.52,3.73,26,3.54C335.19,552.55,350.44,535.91,355.22,540.92Z" transform="translate(-120 -262)"/><path class="cls-9" d="M283,445.13c0,.34,0,5-3.25,7.2a4.68,4.68,0,0,1-3.46.92,5.67,5.67,0,0,1-3-2.08,7.53,7.53,0,0,1-.85-1.22c-1.1-2.07-.66-4.34-.33-5.94a23.8,23.8,0,0,1,1.4-4c1.84-4.56,2.46-4.8,2.78-4.85.94-.16,1.81.89,2.91,2.23C281.23,439.94,282.89,442,283,445.13Z" transform="translate(-120 -262)"/><path class="cls-10" d="M280.59,451c-.08,1.23-2,2.28-3.72,2.29a4.34,4.34,0,0,1-2.32-.69,6.32,6.32,0,0,1-2.71-4.24,7.93,7.93,0,0,1-.1-2.73,12,12,0,0,1,.58-2.42c.19-.57.16-.36.64-1.66.21-.56.24-.66.31-.66.4,0,.07,3.41,2.09,5.45.67.68.8.39,2.42,1.59C279.63,449.29,280.66,450.05,280.59,451Z" transform="translate(-120 -262)"/><path class="cls-9" d="M287.35,473.23c0,.34,0,5-3.25,7.2a4.65,4.65,0,0,1-3.45.92,5.63,5.63,0,0,1-3-2.08,6.44,6.44,0,0,1-.85-1.22c-1.11-2.07-.67-4.34-.34-5.94a25,25,0,0,1,1.41-4c1.83-4.56,2.45-4.8,2.78-4.85.94-.16,1.81.89,2.9,2.23C285.64,468,287.3,470.08,287.35,473.23Z" transform="translate(-120 -262)"/><path class="cls-10" d="M285,479.08c-.09,1.23-2.05,2.28-3.72,2.29a4.27,4.27,0,0,1-2.32-.69,6.34,6.34,0,0,1-2.72-4.24,8.12,8.12,0,0,1-.09-2.73,11.31,11.31,0,0,1,.58-2.42c.19-.57.16-.36.64-1.66.21-.56.23-.66.3-.66.4,0,.08,3.4,2.09,5.45.68.68.81.39,2.43,1.59C284,477.38,285.06,478.15,285,479.08Z" transform="translate(-120 -262)"/><path class="cls-9" d="M345.2,420.83c0,.34,0,5-3.25,7.2a4.72,4.72,0,0,1-3.46.92,5.67,5.67,0,0,1-3-2.09,7.09,7.09,0,0,1-.85-1.22c-1.1-2.07-.66-4.34-.33-5.94a24.38,24.38,0,0,1,1.41-4c1.83-4.55,2.45-4.8,2.77-4.85.94-.16,1.82.89,2.91,2.23C343.49,415.63,345.15,417.67,345.2,420.83Z" transform="translate(-120 -262)"/><path class="cls-10" d="M342.84,426.67c-.08,1.23-2,2.29-3.71,2.3a4.53,4.53,0,0,1-2.33-.69,6.36,6.36,0,0,1-2.71-4.24,8.55,8.55,0,0,1-.1-2.74,11.39,11.39,0,0,1,.59-2.42c.18-.57.15-.35.64-1.66.2-.55.23-.65.3-.66.4,0,.08,3.41,2.09,5.45.68.69.81.39,2.43,1.6C341.89,425,342.91,425.74,342.84,426.67Z" transform="translate(-120 -262)"/><path class="cls-9" d="M347.4,452.21c0,.34,0,5-3.25,7.2a4.72,4.72,0,0,1-3.46.92,5.68,5.68,0,0,1-3-2.09,7.09,7.09,0,0,1-.85-1.22c-1.1-2.07-.66-4.34-.33-5.94a23.46,23.46,0,0,1,1.41-4c1.83-4.55,2.45-4.8,2.77-4.85.94-.16,1.81.89,2.91,2.23C345.68,447,347.34,449.05,347.4,452.21Z" transform="translate(-120 -262)"/><path class="cls-10" d="M345,458.05c-.08,1.23-2,2.29-3.72,2.3a4.52,4.52,0,0,1-2.32-.69,6.36,6.36,0,0,1-2.71-4.24,8.26,8.26,0,0,1-.1-2.74,12.12,12.12,0,0,1,.58-2.42c.19-.57.16-.35.64-1.66.21-.55.24-.65.31-.66.4,0,.07,3.41,2.09,5.45.67.69.81.39,2.42,1.6C344.08,456.36,345.11,457.12,345,458.05Z" transform="translate(-120 -262)"/><path class="cls-9" d="M296.87,507.9c0,.34,0,5-3.25,7.2a4.72,4.72,0,0,1-3.46.92,5.63,5.63,0,0,1-3-2.09,7.09,7.09,0,0,1-.85-1.22c-1.1-2.07-.66-4.34-.33-5.94a23.46,23.46,0,0,1,1.41-4c1.83-4.55,2.45-4.8,2.77-4.85.94-.15,1.82.89,2.91,2.24C295.16,502.7,296.82,504.75,296.87,507.9Z" transform="translate(-120 -262)"/><path class="cls-10" d="M294.51,513.74c-.08,1.23-2,2.29-3.72,2.3a4.52,4.52,0,0,1-2.32-.69,6.36,6.36,0,0,1-2.71-4.24,8.26,8.26,0,0,1-.1-2.74,12.12,12.12,0,0,1,.58-2.42c.19-.57.16-.35.65-1.66.2-.55.23-.65.3-.65.4,0,.07,3.4,2.09,5.44.68.69.81.4,2.42,1.6C293.55,512.05,294.58,512.81,294.51,513.74Z" transform="translate(-120 -262)"/><path class="cls-9" d="M350.69,510.74c0,.34,0,5-3.26,7.2a4.65,4.65,0,0,1-3.45.92,5.67,5.67,0,0,1-3-2.08,6.44,6.44,0,0,1-.85-1.22c-1.11-2.07-.67-4.34-.34-5.94a25,25,0,0,1,1.41-4c1.83-4.56,2.45-4.8,2.78-4.85.94-.16,1.81.89,2.9,2.23C349,505.55,350.63,507.59,350.69,510.74Z" transform="translate(-120 -262)"/><path class="cls-10" d="M348.33,516.59c-.09,1.23-2.05,2.28-3.72,2.29a4.27,4.27,0,0,1-2.32-.69,6.34,6.34,0,0,1-2.72-4.24,8.12,8.12,0,0,1-.09-2.73,11.31,11.31,0,0,1,.58-2.42c.19-.57.16-.36.64-1.66.21-.56.23-.66.3-.66.4,0,.08,3.41,2.09,5.45.68.68.81.39,2.43,1.59C347.37,514.9,348.39,515.66,348.33,516.59Z" transform="translate(-120 -262)"/><path class="cls-8" d="M311.61,327.68c3.6,3.78-1.16,17.44-10.72,23-2.59,1.49-7.71,3.66-25-.08-20-4.3-38.4-12.61-37.77-14.48.46-1.39,10.52,3.73,26,3.54C291.58,339.31,306.85,322.67,311.61,327.68Z" transform="translate(-120 -262)"/><path class="cls-11" d="M287.73,344.25c-.05,2.63,2.89,5.08,5.56,5.55,6.34,1.14,13.59-8.45,12-11.53-1.19-2.32-7.72-1.63-12,.43C291.52,339.54,287.79,341.33,287.73,344.25Z" transform="translate(-120 -262)"/><path class="cls-11" d="M327.26,556.83c.51,2.45,7.11,3.86,12.45,2.57,7.45-1.8,13.3-9.06,12-11.53s-9.06-.48-12,.42C334.16,550,326.66,554,327.26,556.83Z" transform="translate(-120 -262)"/><path class="cls-11" d="M430.4,332.66c2.2-.5-.22-18.15-1-24-.32-2.39-3.16-23.12-5.61-23-1.65.09-2.91,9.55-2.53,17.9C421.94,319,428.38,333.12,430.4,332.66Z" transform="translate(-120 -262)"/><path class="cls-11" d="M442.66,498.1c1,0,5.35-40.88,2-81.7-1.05-13-2.53-21.68-5.19-37.32-3.78-22.27-5.17-23-5.61-23-1.54.09-2.51,9.83-2.53,17.9-.06,20.57,6.07,28.51,8.75,53.1.32,2.88.55,7.21,1,15.85C443.08,479.63,442,498.08,442.66,498.1Z" transform="translate(-120 -262)"/><path class="cls-8" d="M389.74,298.57c3.72,4.6-8.67,29.6-27.29,31.48-22.93,2.31-39.83-32-36.29-36.08,2.42-2.76,13.4,9.56,33.71,10C377.57,304.28,387.07,295.23,389.74,298.57Z" transform="translate(-120 -262)"/><path class="cls-11" d="M339.51,307.63c-1.48,1.94,6.75,15.81,18.88,16.61,12.64.83,22.76-13,21.46-15.07-1-1.67-8.82,4.8-21.46,4C346.88,312.37,340.64,306.15,339.51,307.63Z" transform="translate(-120 -262)"/></svg>