<svg id="Calque_1" data-name="Calque 1" xmlns="http://www.w3.org/2000/svg" viewBox="0 0 356.66 320.81"><defs><style>.cls-1{fill:#80b0b5;stroke-width:5px;}.cls-1,.cls-2,.cls-3,.cls-4,.cls-5,.cls-6{stroke:#1d1d1b;stroke-miterlimit:10;}.cls-2,.cls-3{fill:none;}.cls-2{stroke-width:3px;}.cls-4{fill:#ec9f52;stroke-width:4px;}.cls-5{fill:#1d1d1b;}.cls-6{fill:#ededed;}.cls-7{fill:#62858f;opacity:0.26;isolation:isolate;}.cls-8{fill:#fff;opacity:0.28;}</style></defs><title>carty</title><polygon class="cls-1" points="115.55 43.54 120.09 65.48 104.32 68.05 99.72 45.58 115.55 43.54"/><polygon class="cls-1" points="187.42 29.75 190.1 53.55 221.76 55.79 187.42 29.75"/><path class="cls-1" d="M122.64,317.37a70.72,70.72,0,0,0,51.19-11.81,199.28,199.28,0,0,1,39.81-21.19c5.37-3.11,11.52-3,15.34.25a11.26,11.26,0,0,1,3.57,6.13,21.76,21.76,0,0,0-5.1,13.79,20.91,20.91,0,0,0,2.19,9.19,135.88,135.88,0,0,0,83-10.42V284.37c-6.29-2.42-8.87-9.76-6-15.07,2.66-5,9.54-7.09,15-3.93l36,13a40.27,40.27,0,0,0,23.51.13,39.55,39.55,0,0,0,14.49-8.13v-5a13.65,13.65,0,0,1,2.36-6.28c6.08-8.47,23.21-9.06,42.64-1.72l27,11a276.58,276.58,0,0,0-12,128l12,107,5,22c-21.1-9.92-39.15-12.24-45-4.83a9.88,9.88,0,0,0-2,4.83,21.45,21.45,0,0,1-6.7,6.4c-9.75,5.82-20.79,1.25-22.3.6l-26-9a6.93,6.93,0,0,0-5.83-1.3,6.8,6.8,0,0,0-4.17,3.3q2.49,11.5,5,23c-5.24,4.6-22.72,18.74-48.83,19.66a77.62,77.62,0,0,1-38.17-8.66q-3.51-9-7-18a11.7,11.7,0,0,0-21-8l-48,26c-8.48,9.58-19.92,10.12-24.21,5.59-3-3.13-2.89-9.1-.79-14.59q-2-33-4-66c-2.67-16.33-6.24-34-11-52.68-4.59-17.85-9.7-34.32-15-49.32a187.36,187.36,0,0,1-20.28-45.15A185.32,185.32,0,0,1,122.64,317.37Z" transform="translate(-119.56 -249.77)"/><path class="cls-2" d="M270.41,535.22c-.87-13.81-2.66-35.39-6.71-61.66-3.7-24-7.35-39.3-19.4-92.43-3.42-15.05-9-39.53-15.89-70.45" transform="translate(-119.56 -249.77)"/><path class="cls-2" d="M315.28,300.45c8.87,51.84,14.66,87.13,18.38,110.3,2.43,15.17,5.83,30.2,7.66,45.45,2.4,20.05,2.73,33.58,9.7,51.57a123.94,123.94,0,0,0,10.27,20.59" transform="translate(-119.56 -249.77)"/><path class="cls-2" d="M392.48,272.88q12.69,74.3,22.88,154.21,6.18,49,10.8,96.12" transform="translate(-119.56 -249.77)"/><path class="cls-3" d="M354.21,364.92" transform="translate(-119.56 -249.77)"/><path class="cls-4" d="M236.6,347.13a50.66,50.66,0,0,0-59.2,1.58,38.59,38.59,0,0,0-14,39.57l10,15.58,23.49,16.08c.37.28,5.84,4.47,5.36,11.49A13.74,13.74,0,0,1,196,441.65L190.94,458a16.4,16.4,0,0,0,11.49,21.44l26,18.39,4.12,8.68c6.39,8.55,13.31,12.35,16.62,10.46.47-.27,2.63-1.66,2.55-7.66V487.09l-4.85-29.87-17.39-27.83a9.91,9.91,0,0,1-3.8-8.17,9.64,9.64,0,0,1,3.8-6.81l10.18-13.62Z" transform="translate(-119.56 -249.77)"/><circle class="cls-5" cx="133.68" cy="126.01" r="31.91"/><ellipse class="cls-6" cx="135.47" cy="116.3" rx="15.38" ry="12.51"/><path class="cls-6" d="M239.92,389.36c-1.59.83-3.79-.69-4.18-.95-2-1.37-4.12-4.52-2.8-6.76s4.9-2.49,7-.95C242.78,382.82,242.12,388.23,239.92,389.36Z" transform="translate(-119.56 -249.77)"/><path class="cls-7" d="M352.43,529.3c3.6,3.78-1.16,17.44-10.73,23-2.58,1.5-7.7,3.67-25-.07-20-4.3-38.39-12.61-37.76-14.48.46-1.39,10.52,3.73,26,3.54C332.4,540.93,347.65,524.29,352.43,529.3Z" transform="translate(-119.56 -249.77)"/><path class="cls-8" d="M324.46,545.21c.52,2.46,7.12,3.86,12.46,2.57,7.45-1.8,13.3-9,12-11.53s-9.06-.47-12,.43C331.36,538.37,323.87,542.38,324.46,545.21Z" transform="translate(-119.56 -249.77)"/><path class="cls-7" d="M432.74,391.52c-9.12-75-23.09-117.88-11.51-123C427,266,438.81,273,441.92,281.61c2.05,5.68-.14,10.78-1.54,15.25-3.71,11.78-.43,31.09,6.13,69.7,2.25,13.29,3.74,19.49,4.59,24.93,8.61,55.07-3.42,109.88-9.18,109.88C437.65,501.4,441.7,465.12,432.74,391.52Z" transform="translate(-119.56 -249.77)"/><path class="cls-8" d="M432,322.55c2.19-.5-.22-18.14-1-24-.33-2.39-3.16-23.11-5.62-23-1.65.09-2.9,9.56-2.52,17.9C423.56,308.93,430,323,432,322.55Z" transform="translate(-119.56 -249.77)"/><path class="cls-8" d="M444.28,488c1,0,5.34-40.89,2-81.71-1.05-13-2.53-21.68-5.19-37.32-3.79-22.27-5.17-23-5.62-23-1.53.09-2.5,9.84-2.52,17.91-.06,20.57,6.06,28.5,8.75,53.1.31,2.88.54,7.2,1,15.85C444.7,469.52,443.62,488,444.28,488Z" transform="translate(-119.56 -249.77)"/><path class="cls-4" d="M316.81,358.16,377.57,338l22.22,3.83V322.41L412,320.88a14.24,14.24,0,0,1,12.51,1.28c6.05,4,6.13,11,6.13,11.49q-2.39,11.46-4.76,22.94L424.81,370a13.4,13.4,0,0,1-6.13,8.34,13.25,13.25,0,0,1-9.36,1.43l2.61,20.91-7.55,2.42a12.91,12.91,0,0,0-6.38,8.68c-1.18,6.36,3.21,10.82,3.57,11.18l-4.08,30.95a8.42,8.42,0,0,1-14.81,4.85l-15.68-22-5.71-3.7-1.84,11.62-17.11,6.13,1.31,17.1c-1.3,5.14-5.74,8.1-9.48,7.41-3.42-.64-5.14-4.13-5.36-4.6a250.15,250.15,0,0,0-11.49-32.17C314,430.94,310.47,424,307,417.65l6.41-11.75a11.15,11.15,0,0,0,1.89-8.42,11.48,11.48,0,0,0-6.39-7.87,18.72,18.72,0,0,1-5.1-19.45C306.86,360.93,316.12,358.34,316.81,358.16Z" transform="translate(-119.56 -249.77)"/><circle class="cls-5" cx="232.06" cy="115.26" r="33.01"/><path class="cls-6" d="M367,353.56c0,7.92-7.59,13.67-14.83,13.92-7.77.26-16-5.8-15.94-13.92s8.22-14.05,15.94-13.79C359.35,340,367,345.67,367,353.56Z" transform="translate(-119.56 -249.77)"/><path class="cls-6" d="M342.79,379.49c-1.61,1.58-5,.67-6.83-.91-2.39-2-3.5-6.07-1.84-7.75s5.54-.71,7.58,1.5C343.51,374.27,344.45,377.86,342.79,379.49Z" transform="translate(-119.56 -249.77)"/><path class="cls-5" d="M296.64,423l17.1-2.24,6.13-3.06h10a39.65,39.65,0,0,1-.26,11.74,40.09,40.09,0,0,1-5.42,14.3,20.11,20.11,0,0,1-18.58,4.08,22.94,22.94,0,0,1-7.93-15.06C297.3,429.46,297,426.2,296.64,423Z" transform="translate(-119.56 -249.77)"/><path class="cls-6" d="M307,439.6l7.27-4.08,6.13,1.78,2.05,2.3-3.83,3.83h-5.21a7.05,7.05,0,0,1-4.24-1.27A6.93,6.93,0,0,1,307,439.6Z" transform="translate(-119.56 -249.77)"/><path class="cls-7" d="M388.2,285.77c3.72,4.6-8.67,29.6-27.29,31.48-22.93,2.31-39.83-32-36.29-36.08,2.42-2.76,13.4,9.56,33.71,10C376,291.48,385.53,282.43,388.2,285.77Z" transform="translate(-119.56 -249.77)"/><path class="cls-8" d="M338,294.84c-1.48,1.93,6.75,15.8,18.88,16.6,12.64.83,22.76-13,21.46-15.07-1-1.67-8.82,4.8-21.46,4C345.34,299.57,339.1,293.35,338,294.84Z" transform="translate(-119.56 -249.77)"/><path class="cls-7" d="M310.68,310.53c3.6,3.78-1.16,17.44-10.72,23-2.59,1.49-7.71,3.66-25-.08-20-4.3-38.4-12.61-37.77-14.48.46-1.39,10.52,3.73,26,3.54C290.65,322.16,305.92,305.52,310.68,310.53Z" transform="translate(-119.56 -249.77)"/><path class="cls-8" d="M286.81,327.1c-.06,2.63,2.89,5.08,5.55,5.56,6.34,1.13,13.59-8.45,12-11.53-1.19-2.32-7.72-1.64-12,.42C290.59,322.4,286.87,324.18,286.81,327.1Z" transform="translate(-119.56 -249.77)"/></svg>