<svg id="Calque_1" data-name="Calque 1" xmlns="http://www.w3.org/2000/svg" viewBox="0 0 359.08 233"><defs><style>.europe{fill:#ff0;}</style></defs><title>europe</title><path class="europe" d="M806,654.89a2.51,2.51,0,0,1-1.13-.27,42.1,42.1,0,0,1-11.66-8.68,43.42,43.42,0,0,1-10.65-20,3.05,3.05,0,0,1-.06-.6,32.71,32.71,0,0,1,3.85-15,32.09,32.09,0,0,1,7-8.83,2.49,2.49,0,0,1,1.66-.64,2.59,2.59,0,0,1,1.36.4l16.82,10.89a5.15,5.15,0,0,0,1.89.37,4.21,4.21,0,0,0,1.51-.27,4.9,4.9,0,0,0,2.91-3.91l-2.88-29.68-8.5-6.72a2.46,2.46,0,0,1-.87-1.34,11.51,11.51,0,0,1,.53-8.22c2.21-4.34,6.8-5.33,12.62-6.6a76.91,76.91,0,0,0,12.07-3.38,57.34,57.34,0,0,0,10.2-5.14,2.45,2.45,0,0,1,1.34-.4h.18c1.07.08,2.15.12,3.22.12a44.63,44.63,0,0,0,7.13-.58,46.79,46.79,0,0,0,22.62-10.68,2.51,2.51,0,0,1,2.86-.26l15.08,8.64a33.8,33.8,0,0,0,12.53,2.41,31.3,31.3,0,0,0,22-8.78c10.21-10,9.4-23.56,9-27.2l-13.41-13.41a2.49,2.49,0,0,1-.73-1.77v-16c0-1.29-.52-3-1.43-3.59a2.48,2.48,0,0,0-1.32-.31c-1.83,0-4.41,1.28-6.2,4.15l-2.24,15A26.33,26.33,0,0,1,912,511.42a26.7,26.7,0,0,1-12.41,13.17,2.62,2.62,0,0,1-1.12.26,2.51,2.51,0,0,1-1.48-.48l-9.51-7a2.46,2.46,0,0,1-.76-.9l-2.48-5A18.05,18.05,0,0,1,873,515.7c-.39,0-.79,0-1.2-.05a18.18,18.18,0,0,1-11.59-5.53,2.77,2.77,0,0,1-.4-.55,30.52,30.52,0,0,1-3.24-18.91,2.53,2.53,0,0,1,.46-1.11l12.25-16.68a2.64,2.64,0,0,1,.36-.39L885,458.84l9.78-19.56a2.46,2.46,0,0,1,1.23-1.17l24.93-11a2.36,2.36,0,0,1,1-.22,2.51,2.51,0,0,1,.89.17l34.07,13a2.42,2.42,0,0,1,1.28,1.1,31.19,31.19,0,0,0,9.26,10.18,31.93,31.93,0,0,0,18,5.56h.16L1046.26,438a2.34,2.34,0,0,1,.74-.12l.3,0c.63.08,63.56,7.55,81.1,7.55a23.6,23.6,0,0,0,3.06-.14,2.59,2.59,0,0,1,1.56-.61h0a2.64,2.64,0,0,1,2.18,1.08c1,1.3,2,6.36.92,9.89-1,3.29-3.49,4.54-6.13,5.87a37.35,37.35,0,0,0-4.07,2.29c-6.66,4.42-11,11.64-12.8,14.89l1.44,1.18a2.51,2.51,0,0,1,.82,1.27c2.75,10.06,5.72,20.22,8.83,30.22,2.88,9.27,6,18.64,9.16,27.83a2.46,2.46,0,0,1-.14,2,19.66,19.66,0,0,1-9.77,9,19.22,19.22,0,0,1-7.39,1.47,19.9,19.9,0,0,1-4.08-.43,11.61,11.61,0,0,0-1.67,4.23,11.41,11.41,0,0,0,0,3.91c1.53,2.17,6.85,10.81,3.29,20.68a22.47,22.47,0,0,1-21.28,14.48h0a2.33,2.33,0,0,1-.74-.11l-46.15-14.24a2.49,2.49,0,0,1-1.75-2.21,18.74,18.74,0,0,0-2.65-8.36,18.44,18.44,0,0,0-3.07-3.76c-1.54-.08-3.09-.11-4.62-.11a99.53,99.53,0,0,0-44.64,10.58l-12.55,19.3a8.62,8.62,0,0,1-7.48,4.8h-.2a8.52,8.52,0,0,1-4.65-1.39,59.1,59.1,0,0,0-2.29,8.23,60.15,60.15,0,0,0-1.07,16,2.5,2.5,0,0,1-1.86,2.58,18.78,18.78,0,0,1-4.68.65,11.61,11.61,0,0,1-6-1.53c-2.67-1.57-3.76-3.78-5-6.33a41,41,0,0,0-2.59-4.66,35.77,35.77,0,0,0-7-7.66c-5.74-5-11.48-6.91-21-10.07-3.19-1.05-6.47-2-9.79-2.81l-.65,2.05,21.57,15.93a2.6,2.6,0,0,1,.77.94,20.17,20.17,0,0,1-1.14,19.41,2.51,2.51,0,0,1-2.12,1.16h-.19a2.51,2.51,0,0,1-2.1-1.5c-.74-1.69-7.69-16.63-24.29-20.56a33.58,33.58,0,0,0-7.79-.92,37,37,0,0,0-19.29,5.6l-60,39A2.46,2.46,0,0,1,806,654.89Z" transform="translate(-780 -424.39)"/><path d="M921.93,429.39l34.07,13a33.58,33.58,0,0,0,10,11,34.25,34.25,0,0,0,19.45,6H986l61-19s63.51,7.57,81.4,7.57c2.69,0,4.34-.17,4.6-.57,0,0,0-.18.11-.18h0c.36,0,1.57,4.67.62,7.74-1,3.42-4.42,3.64-9.19,6.81-9.51,6.3-14.55,17.63-14.55,17.63l3,2.45q4,14.78,8.85,30.3,4.49,14.42,9.19,27.91a17,17,0,0,1-8.51,7.83,16.74,16.74,0,0,1-6.43,1.28,17,17,0,0,1-5.08-.77,13.8,13.8,0,0,0-3,12c.41.53,6.82,9,3.28,18.81A20,20,0,0,1,1092.35,592l-46.15-14.24a21,21,0,0,0-3-9.48,20.76,20.76,0,0,0-4.19-4.92c-1.73-.09-3.62-.15-5.63-.15A101.71,101.71,0,0,0,987,574.39l-13,20a6.1,6.1,0,0,1-5.36,3.54h-.14a6.09,6.09,0,0,1-5.5-3.54,62.54,62.54,0,0,0-5,29,16.16,16.16,0,0,1-4,.57,9.25,9.25,0,0,1-4.72-1.18c-3.24-1.91-3.49-5.18-6.8-10.22a38.58,38.58,0,0,0-7.43-8.17c-6.11-5.34-12.36-7.41-21.85-10.55-3-1-7.16-2.25-12.26-3.4L899,596.39l23,17a17.65,17.65,0,0,1-1,17c-.79-1.82-8.07-17.75-26-22a36.48,36.48,0,0,0-8.37-1,39.68,39.68,0,0,0-20.63,6l-60,39a40,40,0,0,1-11-8.17,40.83,40.83,0,0,1-10-18.83,29.73,29.73,0,0,1,10-22l17,11a7.55,7.55,0,0,0,3.08.66,6.6,6.6,0,0,0,2.41-.44,7.35,7.35,0,0,0,4.51-6.22l-3-31L809.66,570c-.85-3.3-.25-5.31.34-6.47,2.75-5.4,11.33-4.15,23.36-8.78A59,59,0,0,0,844,549.39c1.07.08,2.2.13,3.4.13a46,46,0,0,0,7.54-.62,49.31,49.31,0,0,0,23.83-11.23L894,546.39a36.36,36.36,0,0,0,13.62,2.66,34,34,0,0,0,23.8-9.49c12.22-11.95,9.84-28.55,9.58-30.17l-14-14v-16c0-.58-.2-4.23-2.62-5.72a5,5,0,0,0-2.63-.68c-2.83,0-6.35,1.87-8.6,5.79q-1.2,8-2.38,16a23.69,23.69,0,0,1-12.26,27.57l-9.51-7-4-8c-.47.57-4.94,5.81-12,5.81-.33,0-.67,0-1,0a15.63,15.63,0,0,1-10-4.77,27.89,27.89,0,0,1-2.64-7.15A28.26,28.26,0,0,1,859,491l12.26-16.68,15.72-14,10-20,24.93-11m0-5a5.05,5.05,0,0,0-2,.43l-24.93,11a5,5,0,0,0-2.45,2.34L883,457.29l-15,13.32a5.21,5.21,0,0,0-.71.78L855,488.07a5,5,0,0,0-.91,2.22,32.92,32.92,0,0,0,3.51,20.45,4.61,4.61,0,0,0,.8,1.11,20.72,20.72,0,0,0,13.21,6.3c.46,0,.93.05,1.38.05a20,20,0,0,0,10.36-3l1.19,2.38a5,5,0,0,0,1.52,1.8l2.82,2.07,6.69,4.89a5,5,0,0,0,5.19.43,29.28,29.28,0,0,0,13.59-14.42,28.84,28.84,0,0,0,1.52-17.88l.51-3.41,1.57-10.56a5.51,5.51,0,0,1,3.75-2.56,5.09,5.09,0,0,1,.31,1.51v15.89a5,5,0,0,0,1.46,3.54l12.79,12.78c.37,4.24.43,15.71-8.33,24.27a28.76,28.76,0,0,1-20.3,8.07,31.28,31.28,0,0,1-11.44-2.17l-7.31-4.19-7.62-4.36a5,5,0,0,0-5.72.53A44.56,44.56,0,0,1,854.13,544a42,42,0,0,1-6.73.55c-1,0-2,0-3-.11l-.36,0a5,5,0,0,0-2.69.79,54.92,54.92,0,0,1-9.74,4.92,76.06,76.06,0,0,1-11.71,3.27c-6,1.29-11.57,2.51-14.32,7.91a13.85,13.85,0,0,0-.72,10,5,5,0,0,0,1.74,2.68l4.67,3.69,3,2.38L816,598.54l.94,9.73a2.29,2.29,0,0,1-1.28,1.68,1.68,1.68,0,0,1-.6.1,2.66,2.66,0,0,1-.78-.12L797.72,599.2a5,5,0,0,0-6,.46,34.77,34.77,0,0,0-7.53,9.51A35.21,35.21,0,0,0,780,625.33a5.29,5.29,0,0,0,.13,1.19,45.79,45.79,0,0,0,11.26,21.14,44.77,44.77,0,0,0,12.35,9.19,5,5,0,0,0,5-.26l60-39a34.59,34.59,0,0,1,17.93-5.19,31.45,31.45,0,0,1,7.22.85c15.42,3.65,21.88,17.56,22.57,19.13a5,5,0,0,0,4.2,3H921a5,5,0,0,0,4.23-2.33,22.61,22.61,0,0,0,1.28-21.82,5,5,0,0,0-1.54-1.87l-15.51-11.46c.71.22,1.42.44,2.12.68,9.21,3,14.78,4.89,20.13,9.57a33.56,33.56,0,0,1,6.54,7.15,38.43,38.43,0,0,1,2.44,4.4c1.33,2.67,2.69,5.42,6,7.37A14,14,0,0,0,954,629a21,21,0,0,0,5.31-.73,5,5,0,0,0,3.73-5.17,57.63,57.63,0,0,1,1-15.29q.54-2.68,1.34-5.31a10.73,10.73,0,0,0,3.15.47h.25a11.15,11.15,0,0,0,9.61-6l8.5-13.08,3.59-5.54a97.07,97.07,0,0,1,42.92-10c1.17,0,2.36,0,3.55.06a16,16,0,0,1,2,2.62,16.24,16.24,0,0,1,2.28,7.23,5,5,0,0,0,3.52,4.42l39.69,12.25,6.46,2a4.85,4.85,0,0,0,1.47.22h0A25,25,0,0,0,1116,580.9c3.76-10.42-1.14-19.34-3.25-22.48a8.57,8.57,0,0,1,.07-2.53,8.47,8.47,0,0,1,.56-1.9,22.44,22.44,0,0,0,2.72.17,21.67,21.67,0,0,0,8.35-1.66,21.92,21.92,0,0,0,11-10.15,5,5,0,0,0,.28-3.94c-3.18-9.16-6.25-18.5-9.14-27.76-3.09-9.95-6-20.08-8.8-30.13a5,5,0,0,0-1.46-2.38c2-3.43,5.78-8.77,11-12.22a36.43,36.43,0,0,1,3.81-2.14c2.85-1.43,6.07-3.06,7.39-7.37,1.21-3.93.3-9.94-1.3-12.1a5.07,5.07,0,0,0-4.1-2.1h-.2a5.1,5.1,0,0,0-2.34.69c-.43,0-1.13.06-2.18.06-17.39,0-80.18-7.46-80.81-7.53a5.85,5.85,0,0,0-.59,0,5.09,5.09,0,0,0-1.49.23l-57.46,17.9-2.82.88a29.41,29.41,0,0,1-16.37-5.11,28.78,28.78,0,0,1-8.51-9.37,5,5,0,0,0-2.57-2.2l-34.07-13a5,5,0,0,0-1.78-.33Z" transform="translate(-780 -424.39)"/><path class="europe" d="M820.55,543.39l-.42,0c-4.66-.8-8.29-4.07-9-8.14a9.25,9.25,0,0,1,.63-5.21A29.44,29.44,0,0,1,815.17,505L812,488.79a3,3,0,0,1,0-.43c-.07-3.2.37-8.81,4.09-10.36a5,5,0,0,1,1.94-.38c4,0,8.78,4.3,12.46,11.22a2.39,2.39,0,0,1,.27.87,114.94,114.94,0,0,0,7.17,28.49l.33.83a2.56,2.56,0,0,1,.17,1.22,28.62,28.62,0,0,1-3.92,11.56,29,29,0,0,1-12.85,11.36A2.49,2.49,0,0,1,820.55,543.39Z" transform="translate(-780 -424.39)"/><path d="M818,480.12c2.69,0,6.87,3.54,10.25,9.89a116.88,116.88,0,0,0,7.32,29.11l.34.85a26.06,26.06,0,0,1-3.57,10.55,26.6,26.6,0,0,1-11.75,10.37c-3.66-.62-6.44-3.1-7-6.11a7.11,7.11,0,0,1,.86-4.6,27.47,27.47,0,0,1-1-14.47,27.1,27.1,0,0,1,4.43-10.21q-1.7-8.6-3.4-17.19c0-.93-.1-6.9,2.55-8a2.59,2.59,0,0,1,1-.19m0-5a7.61,7.61,0,0,0-2.9.57c-4.84,2-5.73,8-5.63,12.72a4.21,4.21,0,0,0,.09.87l3,15.19a31.91,31.91,0,0,0-3.43,25.45,11.57,11.57,0,0,0-.45,5.74c.92,5.1,5.36,9.18,11.06,10.16a4.76,4.76,0,0,0,.84.07,5,5,0,0,0,2.08-.45,31.39,31.39,0,0,0,14-12.34,30.9,30.9,0,0,0,4.26-12.56,5.13,5.13,0,0,0-.33-2.45l-.33-.81a112.69,112.69,0,0,1-7-27.87,5.18,5.18,0,0,0-.55-1.75c-4.18-7.85-9.66-12.54-14.67-12.54Z" transform="translate(-780 -424.39)"/><path class="europe" d="M797.74,526.56h-.5a8.06,8.06,0,0,1-5.52-2.84,8.76,8.76,0,0,1-2.08-6.51c0-.1,0-.21,0-.31l1.88-8.68a7.44,7.44,0,0,1,7.09-5.75c.24,0,.48,0,.72,0a7.31,7.31,0,0,1,6.26,5.67,2.6,2.6,0,0,1,.06.56V520a2.58,2.58,0,0,1-.14.83A8.42,8.42,0,0,1,797.74,526.56Z" transform="translate(-780 -424.39)"/><path d="M798.65,505a3.62,3.62,0,0,1,.46,0,4.81,4.81,0,0,1,4.08,3.74V520a6,6,0,0,1-5.45,4.09h-.34a6,6,0,0,1-5.27-6.64c.62-2.89,1.25-5.78,1.87-8.68a4.89,4.89,0,0,1,4.65-3.76m0-5a9.83,9.83,0,0,0-9.51,7.57l0,.14-1.87,8.68a4.55,4.55,0,0,0-.09.63,11.24,11.24,0,0,0,2.68,8.35,10.55,10.55,0,0,0,7.24,3.7c.22,0,.44,0,.67,0a10.92,10.92,0,0,0,10.16-7.42,5,5,0,0,0,.29-1.67V508.73a4.78,4.78,0,0,0-.13-1.13,9.78,9.78,0,0,0-8.43-7.58,8,8,0,0,0-1,0Z" transform="translate(-780 -424.39)"/></svg>