<svg id="Calque_1" data-name="Calque 1" xmlns="http://www.w3.org/2000/svg" viewBox="0 0 139.07 149.12"><defs><style>.cls-1{fill:#ac7e4a;}.cls-2{fill:#85521b;}.cls-3{fill:#cca878;}</style></defs><title>jupiter</title><path class="cls-1" d="M546.61,496.2c-22.64-7.49-34-24.22-37.8-30.08-13.73-21-12.37-41.88-11.82-48.79.58-7.31,2.08-23.26,13.94-39,4-5.34,15-19.51,35.68-25.2a67.63,67.63,0,0,1,40.09,1.67c22.53,7.73,33.6,24.53,37.41,30.52,13.47,21.13,11.86,42,11.22,48.92-.68,7.28-2.37,23.23-14.43,38.86-4.11,5.32-15.3,19.39-36,24.79A67.23,67.23,0,0,1,546.61,496.2Z" transform="translate(-496.67 -350.8)"/><path class="cls-2" d="M531.54,489.06a272.79,272.79,0,0,0,93.32-21.7A67.09,67.09,0,0,1,607.13,487a63.38,63.38,0,0,1-50,11.86A67.84,67.84,0,0,1,531.54,489.06Z" transform="translate(-496.67 -350.8)"/><path class="cls-2" d="M508.39,381.92q20.08-6.12,41.35-13.5,19.2-6.69,37-13.65a84.09,84.09,0,0,1,8.07,3.5,85.24,85.24,0,0,1,8.06,4.56A203.09,203.09,0,0,1,560.55,386,207.87,207.87,0,0,1,500,400.26a67.11,67.11,0,0,1,8.44-18.34Z" transform="translate(-496.67 -350.8)"/><path class="cls-3" d="M496.72,427.38a227.24,227.24,0,0,0,57.65-6.7,224.38,224.38,0,0,0,71.75-32,75.51,75.51,0,0,1,6.73,16.12,74.43,74.43,0,0,1,2.89,20.6A204.13,204.13,0,0,1,584,450.9a209.73,209.73,0,0,1-78,9.91,70.77,70.77,0,0,1-6.83-16.44A69.64,69.64,0,0,1,496.72,427.38Z" transform="translate(-496.67 -350.8)"/></svg>