<svg id="Calque_1" data-name="Calque 1" xmlns="http://www.w3.org/2000/svg" viewBox="0 0 158.96 152.17"><defs><style>.cls-1{fill:#e2e2e0;}.cls-2{fill:#ababa9;opacity:0.57;}</style></defs><title>lune</title><ellipse class="cls-1" cx="79.48" cy="76.09" rx="79.48" ry="76.09"/><path class="cls-2" d="M526.42,395.68,532,382.84A32,32,0,0,0,542.76,385a31.62,31.62,0,0,0,7.93-.82q.85-2.86,1.69-5.73l17.3,6,11.77,7.92v26.48l13.46,11.2a12.45,12.45,0,0,1,2.4,7.91,12.31,12.31,0,0,1-2.4,6.83l-11.77,9.28H569L553.82,450l-6.25-1.64v3l6,.55,3.36,6.28,11.78,10.92-13.7,12h-9.13l-8.17-9-11.3-3,7.69-22.66-1.68-5.19-7.93,1.38-4.32,6.54-4.09,2.73-7.45-3.55-1.56-7.92L500,433.9l-6.25-.82a54,54,0,0,1,0-23.75,49.42,49.42,0,0,1,11.54-22.39,20.27,20.27,0,0,0,7,10.1,16.23,16.23,0,0,0,10.33,3.28Z" transform="translate(-487.75 -348.49)"/><polygon class="cls-2" points="102.6 45.28 99 54.01 99 69.3 109.58 73.94 118.7 68.48 118.7 51.55 102.6 45.28"/><polygon class="cls-2" points="132.64 53.74 138.89 53.74 138.89 50.46 145.85 53.74 145.85 65.75 139.25 65.75 139.25 59.61 132.64 58.11 132.64 53.74"/><path class="cls-2" d="M617.5,411.51l11,8.74,5.05.82,7.45,3.55a41.85,41.85,0,0,1,0,18l-2.64,3.81h-7.69l-2.41-3.81a8.6,8.6,0,0,1,.48,6.54,7.12,7.12,0,0,1-3.12,3.82,13.15,13.15,0,0,1-4.33,1.36,13.41,13.41,0,0,1-7.69-1.36V438.93L600,427.62a19.22,19.22,0,0,0,11-5.19A23.91,23.91,0,0,0,617.5,411.51Z" transform="translate(-487.75 -348.49)"/></svg>