<svg id="Calque_1" data-name="Calque 1" xmlns="http://www.w3.org/2000/svg" viewBox="0 0 1384.43 914.79"><defs><style>.cls-1{fill:#D9C7EF;}.cls-2{fill:#B1EBF6;}.cls-3{fill:#DFD9CB;}.cls-4{fill:#BAE6D7;}.cls-5{fill:#F5BFCD;}.cls-6,.cls-7{fill:#FFC296;}.cls-6{stroke:#000;stroke-linejoin:round;stroke-width:5px;}.cls-8{fill:#FCEBB5;}</style></defs><title>mapmonde</title><g class="Europe" ><path class="cls-1" id=1 d="M830,511.89a2.51,2.51,0,0,1-1.13-.27,42.15,42.15,0,0,1-11.66-8.68,43.42,43.42,0,0,1-10.65-20,3.05,3.05,0,0,1-.06-.6,32.71,32.71,0,0,1,3.85-15,32.09,32.09,0,0,1,7-8.83,2.49,2.49,0,0,1,1.66-.64,2.59,2.59,0,0,1,1.36.4l16.82,10.89a5.22,5.22,0,0,0,1.9.37,4.2,4.2,0,0,0,1.5-.27,4.9,4.9,0,0,0,2.91-3.91l-2.88-29.68-8.5-6.72a2.46,2.46,0,0,1-.87-1.34,11.52,11.52,0,0,1,.53-8.22c2.21-4.34,6.8-5.33,12.62-6.6a76.91,76.91,0,0,0,12.07-3.38,57.68,57.68,0,0,0,10.2-5.14,2.45,2.45,0,0,1,1.34-.4h.18c1.07.08,2.15.12,3.22.12a44.63,44.63,0,0,0,7.13-.58,46.79,46.79,0,0,0,22.62-10.68,2.51,2.51,0,0,1,2.86-.26l15.08,8.64a33.8,33.8,0,0,0,12.53,2.41,31.3,31.3,0,0,0,22-8.78c10.21-10,9.4-23.56,9-27.2l-13.41-13.41a2.49,2.49,0,0,1-.73-1.77v-16c0-1.29-.52-3-1.43-3.59a2.48,2.48,0,0,0-1.32-.31c-1.83,0-4.41,1.28-6.2,4.15l-2.24,15A26.33,26.33,0,0,1,936,368.42a26.7,26.7,0,0,1-12.41,13.17,2.62,2.62,0,0,1-1.12.26,2.51,2.51,0,0,1-1.48-.48l-9.51-7a2.46,2.46,0,0,1-.76-.9l-2.48-5A18.05,18.05,0,0,1,897,372.7c-.39,0-.79,0-1.2-.05a18.18,18.18,0,0,1-11.59-5.53,2.77,2.77,0,0,1-.4-.55,30.52,30.52,0,0,1-3.24-18.91,2.53,2.53,0,0,1,.46-1.11l12.25-16.68a2.64,2.64,0,0,1,.36-.39L909,315.84l9.78-19.56a2.46,2.46,0,0,1,1.23-1.17l24.93-11a2.36,2.36,0,0,1,1-.22,2.51,2.51,0,0,1,.89.17l34.07,13a2.42,2.42,0,0,1,1.28,1.1,31.19,31.19,0,0,0,9.26,10.18,31.93,31.93,0,0,0,18,5.56h.16L1070.26,295a2.34,2.34,0,0,1,.74-.12l.3,0c.63.08,63.56,7.55,81.1,7.55a23.6,23.6,0,0,0,3.06-.14,2.59,2.59,0,0,1,1.56-.61h0a2.64,2.64,0,0,1,2.18,1.08c1,1.3,2,6.36.92,9.89-1,3.29-3.49,4.54-6.13,5.87a37.35,37.35,0,0,0-4.07,2.29c-6.66,4.42-11,11.64-12.8,14.89l1.44,1.18a2.51,2.51,0,0,1,.82,1.27c2.75,10.06,5.72,20.22,8.83,30.22,2.88,9.27,6,18.64,9.16,27.83a2.46,2.46,0,0,1-.14,2,19.66,19.66,0,0,1-9.77,9,19.22,19.22,0,0,1-7.39,1.47,19.9,19.9,0,0,1-4.08-.43,11.61,11.61,0,0,0-1.67,4.23,11.41,11.41,0,0,0,0,3.91c1.53,2.17,6.85,10.81,3.29,20.68a22.47,22.47,0,0,1-21.28,14.48h0a2.33,2.33,0,0,1-.74-.11l-46.15-14.24a2.49,2.49,0,0,1-1.75-2.21,18.74,18.74,0,0,0-2.65-8.36,18.44,18.44,0,0,0-3.07-3.76c-1.54-.08-3.09-.11-4.62-.11a99.53,99.53,0,0,0-44.64,10.58l-12.55,19.3a8.65,8.65,0,0,1-7.48,4.81h-.2a8.54,8.54,0,0,1-4.65-1.39,59.1,59.1,0,0,0-2.29,8.23,60.15,60.15,0,0,0-1.07,16,2.5,2.5,0,0,1-1.86,2.58,18.78,18.78,0,0,1-4.68.65,11.61,11.61,0,0,1-6-1.53c-2.67-1.57-3.76-3.78-5-6.33a41,41,0,0,0-2.59-4.66,36,36,0,0,0-7-7.66c-5.74-5-11.48-6.92-21-10.07-3.19-1-6.47-2-9.79-2.81l-.65,2.05,21.57,15.93a2.6,2.6,0,0,1,.77.94,20.17,20.17,0,0,1-1.14,19.41,2.51,2.51,0,0,1-2.12,1.16h-.19a2.51,2.51,0,0,1-2.1-1.5c-.74-1.69-7.68-16.63-24.29-20.56a33.58,33.58,0,0,0-7.79-.92,37,37,0,0,0-19.29,5.6l-60,39A2.46,2.46,0,0,1,830,511.89Z" transform="translate(-174.61 -149.48)"/><path d="M945.93,286.39l34.07,13a33.58,33.58,0,0,0,10,11,34.25,34.25,0,0,0,19.45,6h.55l61-19s63.51,7.57,81.4,7.57c2.69,0,4.34-.17,4.6-.57,0,0,0-.18.11-.18h0c.36,0,1.57,4.67.62,7.74-1,3.42-4.42,3.64-9.19,6.81-9.51,6.3-14.55,17.63-14.55,17.63l3,2.45q4,14.78,8.85,30.3,4.49,14.42,9.19,27.91a17,17,0,0,1-8.51,7.83,16.74,16.74,0,0,1-6.43,1.28,17,17,0,0,1-5.08-.77,13.8,13.8,0,0,0-3,12c.41.53,6.82,9,3.28,18.81A20,20,0,0,1,1116.35,449l-46.15-14.24a21,21,0,0,0-3-9.48,20.76,20.76,0,0,0-4.19-4.92c-1.73-.09-3.62-.15-5.63-.15A101.71,101.71,0,0,0,1011,431.39l-13,20a6.1,6.1,0,0,1-5.36,3.54h-.14a6.09,6.09,0,0,1-5.5-3.54,62.54,62.54,0,0,0-5,29,16.16,16.16,0,0,1-4,.57,9.25,9.25,0,0,1-4.72-1.18c-3.24-1.91-3.49-5.18-6.8-10.22a38.58,38.58,0,0,0-7.43-8.17c-6.11-5.34-12.36-7.41-21.85-10.55-3-1-7.16-2.25-12.26-3.4L923,453.39l23,17a17.65,17.65,0,0,1-1,17c-.79-1.82-8.07-17.75-26-22a36.48,36.48,0,0,0-8.37-1,39.68,39.68,0,0,0-20.63,6l-60,39a40,40,0,0,1-11-8.17,40.83,40.83,0,0,1-10-18.83,29.73,29.73,0,0,1,10-22l17,11a7.55,7.55,0,0,0,3.08.66,6.6,6.6,0,0,0,2.41-.44,7.35,7.35,0,0,0,4.51-6.22l-3-31L833.66,427c-.85-3.3-.25-5.31.34-6.47,2.75-5.4,11.33-4.15,23.36-8.78A59,59,0,0,0,868,406.39c1.07.08,2.2.13,3.4.13a46,46,0,0,0,7.54-.62,49.31,49.31,0,0,0,23.83-11.23L918,403.39a36.36,36.36,0,0,0,13.62,2.66,34,34,0,0,0,23.8-9.49c12.22-11.95,9.84-28.55,9.58-30.17l-14-14v-16c0-.58-.2-4.23-2.62-5.72a5,5,0,0,0-2.63-.68c-2.83,0-6.35,1.87-8.6,5.79q-1.2,8-2.38,16a23.69,23.69,0,0,1-12.26,27.57l-9.51-7-4-8c-.47.57-4.94,5.81-12,5.81-.33,0-.67,0-1,0a15.63,15.63,0,0,1-10-4.77,27.89,27.89,0,0,1-2.64-7.15A28.26,28.26,0,0,1,883,348l12.26-16.68,15.72-14,10-20,24.93-11m0-5a5.05,5.05,0,0,0-2,.43l-24.93,11a5,5,0,0,0-2.45,2.34L907,314.29l-8.57,7.61L892,327.61a5.21,5.21,0,0,0-.71.78L882,341l-3,4a5,5,0,0,0-.91,2.22,32.92,32.92,0,0,0,3.51,20.45,4.61,4.61,0,0,0,.8,1.11,20.72,20.72,0,0,0,13.21,6.3c.46,0,.93.05,1.38.05a20,20,0,0,0,10.36-2.95l1.19,2.38a5,5,0,0,0,1.52,1.8l2.82,2.07,6.69,4.89a5,5,0,0,0,5.19.43,29.28,29.28,0,0,0,13.59-14.42,28.84,28.84,0,0,0,1.52-17.88l.65-4.34,1.43-9.63a5.51,5.51,0,0,1,3.75-2.56,5.09,5.09,0,0,1,.31,1.51v15.89a5,5,0,0,0,1.46,3.54l4.67,4.67,8.12,8.11c.37,4.24.43,15.71-8.33,24.27a28.76,28.76,0,0,1-20.3,8.07,31.28,31.28,0,0,1-11.44-2.17l-7.31-4.19-7.62-4.36a5,5,0,0,0-5.72.53A44.56,44.56,0,0,1,878.13,401a42,42,0,0,1-6.73.55c-1,0-2,0-3-.11l-.36,0a5,5,0,0,0-2.69.79,54.92,54.92,0,0,1-9.74,4.92,76.06,76.06,0,0,1-11.71,3.27c-6,1.29-11.57,2.51-14.32,7.91a13.85,13.85,0,0,0-.72,10,5,5,0,0,0,1.74,2.68l4.67,3.69,3,2.38L841,465.27a2.29,2.29,0,0,1-1.28,1.68,1.68,1.68,0,0,1-.6.1,2.66,2.66,0,0,1-.78-.12l-5.25-3.4-11.33-7.33a5,5,0,0,0-6,.46,34.77,34.77,0,0,0-7.53,9.51A35.21,35.21,0,0,0,804,482.33a5.29,5.29,0,0,0,.13,1.19,45.79,45.79,0,0,0,11.26,21.14,44.77,44.77,0,0,0,12.35,9.19,5,5,0,0,0,5-.26l60-39a34.59,34.59,0,0,1,17.93-5.19,31.45,31.45,0,0,1,7.22.85c15.42,3.65,21.88,17.56,22.57,19.13a5,5,0,0,0,4.2,3H945a5,5,0,0,0,4.23-2.33,22.61,22.61,0,0,0,1.28-21.82,5,5,0,0,0-1.54-1.87l-15.51-11.46c.71.22,1.42.44,2.12.68,9.21,3.05,14.78,4.89,20.13,9.57a33.56,33.56,0,0,1,6.54,7.15,38.43,38.43,0,0,1,2.44,4.4c1.33,2.67,2.69,5.42,6,7.37A14,14,0,0,0,978,486a21,21,0,0,0,5.31-.73,5,5,0,0,0,3.73-5.17,57.63,57.63,0,0,1,1-15.29c.36-1.78.81-3.56,1.34-5.31a10.73,10.73,0,0,0,3.15.47h.25a11.15,11.15,0,0,0,9.61-6.05l8.5-13.08,3.59-5.54a97.07,97.07,0,0,1,42.92-10c1.17,0,2.36,0,3.55.06a16,16,0,0,1,2,2.62,16.24,16.24,0,0,1,2.28,7.23,5,5,0,0,0,3.52,4.42l46.15,14.24a4.85,4.85,0,0,0,1.47.22h0A25,25,0,0,0,1140,437.9c3.76-10.41-1.14-19.34-3.25-22.48a8.57,8.57,0,0,1,.07-2.53,8.47,8.47,0,0,1,.56-1.9,22.44,22.44,0,0,0,2.72.17,21.67,21.67,0,0,0,8.35-1.66,21.92,21.92,0,0,0,11-10.15,5,5,0,0,0,.28-3.94c-3.18-9.16-6.26-18.5-9.14-27.76-3.09-9.95-6-20.08-8.8-30.13a5,5,0,0,0-1.46-2.38c2-3.43,5.78-8.77,11-12.22a36.43,36.43,0,0,1,3.81-2.14c2.85-1.43,6.07-3.06,7.39-7.37,1.21-3.93.3-9.94-1.3-12.1a5.07,5.07,0,0,0-4.1-2.1h-.2a5.1,5.1,0,0,0-2.34.69c-.43,0-1.13.06-2.18.06-17.39,0-80.18-7.46-80.81-7.53a5.85,5.85,0,0,0-.59,0,5.09,5.09,0,0,0-1.49.23l-27.11,8.44-33.17,10.34a29.41,29.41,0,0,1-16.37-5.11,28.78,28.78,0,0,1-8.51-9.37,5,5,0,0,0-2.57-2.2l-34.07-13a5,5,0,0,0-1.78-.33Z" transform="translate(-174.61 -149.48)"/><path class="cls-1" d="M844.55,400.39l-.42,0c-4.66-.8-8.29-4.07-9-8.14a9.25,9.25,0,0,1,.63-5.21A29.44,29.44,0,0,1,839.17,362L836,345.79a3,3,0,0,1,0-.43c-.07-3.2.37-8.81,4.09-10.36a5,5,0,0,1,1.94-.38c4,0,8.78,4.3,12.46,11.22a2.39,2.39,0,0,1,.27.87,114.94,114.94,0,0,0,7.17,28.49l.33.83a2.56,2.56,0,0,1,.17,1.22,28.62,28.62,0,0,1-3.92,11.56,29,29,0,0,1-12.85,11.36A2.49,2.49,0,0,1,844.55,400.39Z" transform="translate(-174.61 -149.48)"/><path d="M842,337.12c2.69,0,6.87,3.54,10.25,9.89a116.88,116.88,0,0,0,7.32,29.11l.34.85a26.06,26.06,0,0,1-3.57,10.55,26.6,26.6,0,0,1-11.75,10.37c-3.66-.62-6.44-3.1-7-6.11a7.11,7.11,0,0,1,.86-4.6,27.47,27.47,0,0,1-1-14.47,27.1,27.1,0,0,1,4.43-10.21q-1.7-8.6-3.4-17.19c0-.93-.1-6.9,2.55-8a2.59,2.59,0,0,1,1-.19m0-5a7.61,7.61,0,0,0-2.9.57c-4.84,2-5.73,8-5.63,12.72a4.21,4.21,0,0,0,.09.87l3,15.19a31.91,31.91,0,0,0-3.43,25.45,11.57,11.57,0,0,0-.45,5.74c.92,5.1,5.36,9.18,11.06,10.16a4.76,4.76,0,0,0,.84.07,5,5,0,0,0,2.08-.45,31.39,31.39,0,0,0,14-12.34,30.9,30.9,0,0,0,4.26-12.56,5.13,5.13,0,0,0-.33-2.45l-.33-.81a112.69,112.69,0,0,1-7-27.87,5.18,5.18,0,0,0-.55-1.75c-4.18-7.85-9.66-12.54-14.67-12.54Z" transform="translate(-174.61 -149.48)"/><path class="cls-1" d="M821.74,383.56h-.5a8.06,8.06,0,0,1-5.52-2.84,8.76,8.76,0,0,1-2.08-6.51c0-.1,0-.21,0-.31l1.88-8.68a7.44,7.44,0,0,1,7.09-5.75c.24,0,.48,0,.72,0a7.31,7.31,0,0,1,6.26,5.67,2.6,2.6,0,0,1,.06.56V377a2.58,2.58,0,0,1-.14.83A8.42,8.42,0,0,1,821.74,383.56Z" transform="translate(-174.61 -149.48)"/><path d="M822.65,362a3.62,3.62,0,0,1,.46,0,4.81,4.81,0,0,1,4.08,3.74V377a6,6,0,0,1-5.45,4.09h-.34a6,6,0,0,1-5.27-6.63c.62-2.9,1.25-5.79,1.87-8.69a4.89,4.89,0,0,1,4.65-3.76m0-5a9.83,9.83,0,0,0-9.51,7.57l0,.14-1.87,8.68a4.55,4.55,0,0,0-.09.63,11.24,11.24,0,0,0,2.68,8.35,10.55,10.55,0,0,0,7.24,3.7c.22,0,.44,0,.67,0a10.92,10.92,0,0,0,10.16-7.42,5,5,0,0,0,.29-1.67V365.73a4.78,4.78,0,0,0-.13-1.13,9.78,9.78,0,0,0-8.43-7.58,8,8,0,0,0-1,0Z" transform="translate(-174.61 -149.48)"/></g><g class="Afrique" ><path id=5 class="cls-2" d="M1002.52,851.81a16,16,0,0,1-14.58-11.75,1.91,1.91,0,0,1-.07-.36c-1.1-7.74-1.88-15.54-2.32-23.18-.53-9.18-.47-16.19-.42-22.37.08-9.23.14-16.52-1.84-26.31a101.17,101.17,0,0,0-5.66-18.66c-9.23-5.41-13.66-10.76-13.53-16.35a15,15,0,0,1,1.83-6.2,36.14,36.14,0,0,0,2.82-8.07,39.28,39.28,0,0,0,.89-7.1,74,74,0,0,0-28.94-37,2.51,2.51,0,0,1-1-2.83l7.66-24.51a2.15,2.15,0,0,1,.15-.38c.38-.75,3.57-7.45,0-13.74a14.05,14.05,0,0,0-6.11-5.66l-31.16-2.22-49.52,19a2.51,2.51,0,0,1-.9.16,2.6,2.6,0,0,1-.82-.13,54.76,54.76,0,0,1-34.24-68.22,2.09,2.09,0,0,1,.17-.41l27.57-52.85a2.5,2.5,0,0,1,.61-.76,129.25,129.25,0,0,1,56.24-27.34,3,3,0,0,1,.52,0h23.74a2.5,2.5,0,0,1,2.48,2.16l2.15,15.82A68.25,68.25,0,0,0,979.08,526h.25a27.05,27.05,0,0,1-.67-8.51,28.28,28.28,0,0,1,6.72-16,2.49,2.49,0,0,1,1.9-.87l.38,0,40.59,6.29a2.51,2.51,0,0,1,2,1.64l9.86,27.9c22.68,35.21,35.93,42.61,43.05,42.61a9.57,9.57,0,0,0,2.35-.28c2.54-.61,4.85-2.28,8.35-4.8a123.5,123.5,0,0,1,19.48-11.86,146.14,146.14,0,0,1,15.36-6.48,2.74,2.74,0,0,1,.84-.14,2.49,2.49,0,0,1,2.35,3.34,371.08,371.08,0,0,1-48.61,92.54,37,37,0,0,1,5.75,7.47,39.67,39.67,0,0,1,4.92,24.52,55.76,55.76,0,0,1-4,16.75,56.34,56.34,0,0,1-6.5,11.65l9.58,7.66a2.52,2.52,0,0,1,.94,2,145.92,145.92,0,0,1-79,124.44c-1.39,1.65-5.58,5.88-12,5.88Z" transform="translate(-174.61 -149.48)"/><path d="M933.66,497q1.15,8.43,2.3,16.85a70.7,70.7,0,0,0,43.12,14.64q2,0,3.6-.09a25.12,25.12,0,0,1-1.53-10.72,25.6,25.6,0,0,1,6.13-14.55l40.59,6.29,10,28.17c22.33,34.73,36.28,44,45.31,44a12.11,12.11,0,0,0,2.95-.35c6.44-1.56,10.81-8.24,28.34-16.85a140.15,140.15,0,0,1,15.09-6.36A369.06,369.06,0,0,1,1080,651.69a35.21,35.21,0,0,1,6.89,8.43,37.46,37.46,0,0,1,4.6,23A53.29,53.29,0,0,1,1080,712.2l11.49,9.19A143.43,143.43,0,0,1,1013.32,844c-.4.52-4.22,5.36-10.38,5.36h-.34a13.54,13.54,0,0,1-12.26-10c-1.39-9.76-2-17.72-2.3-23-1.31-22.93,1.06-32.37-2.3-49a104.52,104.52,0,0,0-6.12-19.91c-10.76-6.14-13.1-11.06-13-14.56.08-3.72,2.9-6.08,4.59-13.78a42.47,42.47,0,0,0,1-8,76.61,76.61,0,0,0-30.07-38.7l7.65-24.51c.38-.74,4.18-8.6,0-16.08a16.59,16.59,0,0,0-7.65-6.9l-32.18-2.29-50,19.14a52.26,52.26,0,0,1-32.68-65.1Q841,550.2,854.77,523.78A126.62,126.62,0,0,1,909.91,497h23.75m0-5H909.91a4.51,4.51,0,0,0-1,.11,131.65,131.65,0,0,0-57.32,27.86,5,5,0,0,0-1.23,1.52l-22.25,42.66-5.32,10.19a4.79,4.79,0,0,0-.34.81,57.27,57.27,0,0,0,35.81,71.34,5.13,5.13,0,0,0,1.64.27,5,5,0,0,0,1.79-.33l21.69-8.3,27.32-10.45,30.1,2.15a11.47,11.47,0,0,1,4.61,4.41c2.93,5.26,0,11.15-.1,11.4a5,5,0,0,0-.31.76l-3.83,12.26-3.83,12.25a5,5,0,0,0,2,5.66,71.57,71.57,0,0,1,27.81,35.31,37.5,37.5,0,0,1-.82,6.17,33.85,33.85,0,0,1-2.65,7.57,17.48,17.48,0,0,0-2.06,7.18c-.15,6.41,4.45,12.35,14,18.13a99.69,99.69,0,0,1,5.21,17.44c1.92,9.53,1.86,16.71,1.79,25.79,0,6.22-.11,13.27.42,22.53.44,7.71,1.23,15.58,2.34,23.39a4.19,4.19,0,0,0,.16.72,18.44,18.44,0,0,0,16.9,13.54h.49c7,0,11.66-4.26,13.56-6.38a148.4,148.4,0,0,0,79.94-126.34,5,5,0,0,0-1.87-4.1l-7.76-6.21a58.17,58.17,0,0,0,9.61-27.71,42.1,42.1,0,0,0-5.25-26,39.55,39.55,0,0,0-4.68-6.41,373.05,373.05,0,0,0,47.74-91.49,5,5,0,0,0-4.71-6.68,4.81,4.81,0,0,0-1.67.29,144.45,144.45,0,0,0-15.63,6.59A125.59,125.59,0,0,0,1092.38,572c-3.26,2.35-5.42,3.9-7.48,4.41a7.78,7.78,0,0,1-1.76.2c-5.31,0-17.66-5.37-40.79-41.22l-4.78-13.54-5-14.08a5,5,0,0,0-3.95-3.28l-40.6-6.3a6.47,6.47,0,0,0-.76,0,5,5,0,0,0-3.8,1.74,30.87,30.87,0,0,0-7.32,17.42,30.09,30.09,0,0,0,.16,6.15,65.84,65.84,0,0,1-35.69-12.35l-1.77-13-.25-1.81a5,5,0,0,0-5-4.32Z" transform="translate(-174.61 -149.48)"/><path class="cls-2" d="M1124.09,821.94c-6.49,0-11.63-7-14.11-11.18a2.55,2.55,0,0,1-.29-1.85l6-25.42-3.27-11.79a10.68,10.68,0,0,1-7.34-8.61,10.94,10.94,0,0,1,8.57-11.91l14.18-6.48,9.87-15.41a2.5,2.5,0,0,1,2.11-1.15h.12a2.51,2.51,0,0,1,2.1,1.36,64.86,64.86,0,0,1,7.08,25.43,66,66,0,0,1-7.66,35.27c-.28,19.41-8.78,31.37-16.93,31.73Z" transform="translate(-174.61 -149.48)"/><path d="M1139.79,730.64a62.92,62.92,0,0,1,6.81,24.46,63.84,63.84,0,0,1-7.66,34.46c-.1,17.93-7.63,29.56-14.56,29.88h-.29c-5.74,0-10.59-7.65-12-10q3.06-13,6.13-26l-3.83-13.79a8.4,8.4,0,0,1-6.9-6.89,8.52,8.52,0,0,1,6.9-9.2l15.09-6.89q5.13-8,10.27-16m0-5a5,5,0,0,0-4.21,2.3l-9.48,14.79-13.3,6.08a13.44,13.44,0,0,0-10.22,14.62,13.1,13.1,0,0,0,7.75,10.14l2.76,10-3.12,13.3-2.71,11.49a5,5,0,0,0,.57,3.7c2.75,4.64,8.53,12.41,16.26,12.41h.52c5.33-.24,10.44-4.24,14-11,3.27-6.14,5.09-13.93,5.29-22.62a68.46,68.46,0,0,0,7.66-36.08,67.4,67.4,0,0,0-7.34-26.4,5,5,0,0,0-4.21-2.71Z" transform="translate(-174.61 -149.48)"/></g><g class="Asie"><path id=2 class="cls-3" d="M1260.44,646.07a16.15,16.15,0,0,1-14-9,93.23,93.23,0,0,1-24.11-41.43,91.7,91.7,0,0,1-2.56-34.62l-36.19-22.89L1121,499.25c-10.93-3.64-15.9-4.5-18.15-4.55a39.54,39.54,0,0,0,6.22,6.1l30,25.67a2.52,2.52,0,0,1,.48,3.26L1131.62,542a2.79,2.79,0,0,1-.34.43,68.75,68.75,0,0,1-47.46,19.87h0a2.36,2.36,0,0,1-.75-.12,49.42,49.42,0,0,1-34.68-44.94L1044,498.17l-7.22-7.95a2.5,2.5,0,0,1,1.64-4.17c7.52-.63,13.4-4.2,14.64-8.87a7.39,7.39,0,0,0,.24-2.22H1027.7c-9.45-.65-17.37-7.57-17.65-15.43a14.92,14.92,0,0,1,4.49-10.59,20.06,20.06,0,0,1,14.39-6,20.7,20.7,0,0,1,3.13.23.47.47,0,0,1,.17,0l88.09,19.14a2.72,2.72,0,0,1,.73.29,20.31,20.31,0,0,0,10.2,2.83c5.32,0,10-2.21,12.51-5.91,4-5.83,1-13.56.69-14.41-4.37-8.86-2.5-19.14,4.46-24.46a17.25,17.25,0,0,1,10.63-3.4,22,22,0,0,1,4.29.43,16.15,16.15,0,0,0,7.2-19.05l-19.16-60.79a2.52,2.52,0,0,1,1.38-3.05,33.37,33.37,0,0,0,15-13,33.81,33.81,0,0,0,4.27-22.8,2.48,2.48,0,0,1,.5-2,2.52,2.52,0,0,1,1.79-1l21.21-1.51,69.48-18.33a2.72,2.72,0,0,1,.63-.08,2.56,2.56,0,0,1,1.12.26,362.16,362.16,0,0,0,52.49,21.3,360.66,360.66,0,0,0,46.4,11.41,552,552,0,0,0,59.47,6.86c11.11.68,22.4,1,33.54,1s22.43-.34,33.56-1h.5a27.31,27.31,0,0,1,20.7,9.43,23.6,23.6,0,0,1,5.93,18.71c-1.66,11.36-12.68,20.3-25.23,20.56l11.94,25.37c3.91,6.32,5.49,13.22,4.22,18.51a8.45,8.45,0,0,1-3.6,5.51,7.13,7.13,0,0,1-3.71,1c-4.05,0-9.27-2.76-13.68-7.23a58.4,58.4,0,0,1-25.31-30.23l-.09-.28-4.19-17.47a84.81,84.81,0,0,0-9.59-.56c-25.17,0-41.81,11.76-43.35,23.14-1.3,9.62,8.34,19.1,12.75,22.89,2.39,1.37,11.62,7.43,13.29,19.32a26.86,26.86,0,0,1-4.85,19.17,33,33,0,0,0-2.05,16.78,40.09,40.09,0,0,0,2.22,7.69,49.26,49.26,0,0,1,3.16,12.34,50.74,50.74,0,0,1,0,11.29,2.53,2.53,0,0,1-1.58,2.05,2.62,2.62,0,0,1-.91.17,2.52,2.52,0,0,1-1.64-.62l-12.21-10.69a7.76,7.76,0,0,0-4.83-1.71,5.93,5.93,0,0,0-5.19,2.57c-1.08,1.88-.68,5.26,1.85,7.67a2.3,2.3,0,0,1,.35.41L1428,522a18.85,18.85,0,0,1-13.51,34.16l-23.55-.76c-5.45.08-10.06,3.79-10.51,8.46-.46,4.9,4.29,8.43,4.34,8.46a2.55,2.55,0,0,1,.3.26l20.68,20.68a2.34,2.34,0,0,1,.59.93,54.59,54.59,0,0,1,0,36.92,18.2,18.2,0,0,1-16.86,11.69c-.61,0-1.23,0-1.84-.09a18.16,18.16,0,0,1-16-16,1.86,1.86,0,0,1,0-.41c.13-2.52.28-15.64-10-25.65-8.39-8.2-18.59-9.42-23.93-9.42a26.84,26.84,0,0,0-3.15.16h-.28a2.5,2.5,0,0,1-2-1l-10-13.79a2.59,2.59,0,0,1-.46-1.21c-.75-7.24-3.12-12.3-6.65-14.25a10,10,0,0,0-4.89-1.13c-7.92,0-20.08,6.84-29.52,22.1l-6.82,53.85a2.66,2.66,0,0,1-.17.63c-.51,1.24-3.38,7.51-10.15,9.15A14,14,0,0,1,1260.44,646.07Z" transform="translate(-174.61 -149.48)"/><path d="M1266.09,278.67a364.42,364.42,0,0,0,52.85,21.45,364.79,364.79,0,0,0,46.72,11.49,557.11,557.11,0,0,0,59.74,6.89c11.72.71,23,1,33.7,1,11.89,0,23.15-.38,33.71-1h.35c15.17,0,25.92,13.26,24.16,25.28-1.45,9.92-11.35,18.42-23.33,18.42a25.85,25.85,0,0,1-3.48-.23q6.9,14.64,13.79,29.3c6,9.52,5.1,18.53,1.53,20.68a4.67,4.67,0,0,1-2.42.59c-3.33,0-8-2.48-12.13-6.72a55.88,55.88,0,0,1-24.51-29.11q-2.31-9.57-4.6-19.15a87.28,87.28,0,0,0-11.62-.79c-26.12,0-44.09,12.52-45.83,25.3-1.57,11.59,10.34,22.35,13.79,25.28,1.12.63,10.64,6.15,12.26,17.62a24.52,24.52,0,0,1-4.6,17.62c-3.08,8.1-3,14.27-2.3,18.38,1.14,7,4.32,10.76,5.36,19.91a47.07,47.07,0,0,1,0,10.73L1417,480.88a10.3,10.3,0,0,0-6.43-2.29,8.41,8.41,0,0,0-7.36,3.83c-1.75,3.05-1,7.63,2.3,10.72q10.34,15.32,20.68,30.64a16.27,16.27,0,0,1-8.89,30.07,17.62,17.62,0,0,1-2.6-.2l-23.74-.77c-7,.07-12.48,5-13,10.73-.6,6.3,5.13,10.55,5.37,10.72Q1393.62,584.67,1404,595a52.14,52.14,0,0,1,0,35.23,15.63,15.63,0,0,1-14.51,10,13.93,13.93,0,0,1-1.58-.08,15.59,15.59,0,0,1-13.78-13.79c.11-2.16.62-16.48-10.73-27.57-9.08-8.87-20.08-10.13-25.68-10.13a32.14,32.14,0,0,0-3.42.17l-10-13.78c-.29-2.78-1.44-12.61-7.93-16.19a12.53,12.53,0,0,0-6.1-1.44c-9.29,0-22.27,7.87-31.93,23.75q-3.45,27.19-6.89,54.39c-.26.63-2.67,6.27-8.43,7.66a11.23,11.23,0,0,1-2.58.3,13.68,13.68,0,0,1-12-8,90.94,90.94,0,0,1-23.75-40.6,90,90,0,0,1-2.29-35.23L1184.89,536,1122.09,497q-14.29-4.77-19.44-4.77c-1.52,0-2.45.31-2.78.94q-1.15,2.21,7.59,9.57l29.94,25.66q-3.93,6.14-7.88,12.26a66.28,66.28,0,0,1-45.73,19.15,46.9,46.9,0,0,1-32.94-42.9L1046.26,497l-7.66-8.43c8.6-.72,15.32-5,16.85-10.72a10.91,10.91,0,0,0,0-5.36h-27.58c-8.78-.61-15.1-7-15.32-13-.23-6.58,6.77-14,16.38-14a18.82,18.82,0,0,1,2.77.2l88.09,19.15a22.71,22.71,0,0,0,11.46,3.17c6.08,0,11.59-2.61,14.58-7,4.82-7.09,1.23-16.08.9-16.85-4-8-2.1-17,3.7-21.45a14.77,14.77,0,0,1,9.11-2.88,19,19,0,0,1,4.67.58,19.23,19.23,0,0,0,9.19-10.72,18.94,18.94,0,0,0,0-11.76l-19.14-60.77a35.8,35.8,0,0,0,16.08-14,36.24,36.24,0,0,0,4.6-24.51l21.44-1.54,69.71-18.38m0-5a5,5,0,0,0-1.27.17l-69.25,18.26-21,1.5a5,5,0,0,0-4.57,5.83,31.27,31.27,0,0,1-3.94,21.07,30.89,30.89,0,0,1-13.83,12.05,5,5,0,0,0-2.75,6.08l2.29,7.28,16.86,53.49a13.58,13.58,0,0,1-5.35,15.68,24.77,24.77,0,0,0-3.75-.29,19.71,19.71,0,0,0-12.15,3.91c-7.88,6-10.06,17.55-5.23,27.45.36.92,2.66,7.41-.46,12-2,3-6,4.81-10.45,4.81a17.78,17.78,0,0,1-8.94-2.49,5.1,5.1,0,0,0-1.46-.57l-88.09-19.15-.34-.06a24.2,24.2,0,0,0-3.49-.25,22.55,22.55,0,0,0-16.19,6.75,17.31,17.31,0,0,0-5.18,12.41c.32,9.1,9.28,17.1,20,17.84h22.74c-1.5,3.16-6.28,5.61-12.09,6.1a5,5,0,0,0-3.28,8.35l6.78,7.46,4.2,18.2a51.93,51.93,0,0,0,36.41,47,5.1,5.1,0,0,0,1.5.23h.06a71.17,71.17,0,0,0,49.19-20.6,4.61,4.61,0,0,0,.68-.85l1.2-1.85,6.69-10.4a5,5,0,0,0-.95-6.5l-29.94-25.66-.34-.29c2.44.64,5.57,1.57,9.57,2.9L1148,519l34.21,21.28,34.85,22a94.06,94.06,0,0,0,2.8,34,95.66,95.66,0,0,0,24.49,42.27,18.61,18.61,0,0,0,16,10,16.16,16.16,0,0,0,3.75-.44c8-1.92,11.3-9.19,11.89-10.63a5.57,5.57,0,0,0,.33-1.26l3.33-26.31,3.42-27c8.85-14,20.19-20.46,27.11-20.46a7.59,7.59,0,0,1,3.68.82c2.76,1.52,4.72,6,5.37,12.32a5.12,5.12,0,0,0,.92,2.41l10,13.79a5,5,0,0,0,4,2.07,5.12,5.12,0,0,0,.56,0,27.71,27.71,0,0,1,2.87-.14,31.7,31.7,0,0,1,22.19,8.71c9.48,9.26,9.34,21.39,9.22,23.73a5.57,5.57,0,0,0,0,.82,20.67,20.67,0,0,0,18.23,18.21c.7.07,1.4.1,2.1.1A20.7,20.7,0,0,0,1408.63,632l0-.11a57,57,0,0,0,0-38.61,5,5,0,0,0-1.17-1.84L1392,576l-5.17-5.17a5.17,5.17,0,0,0-.62-.52s-3.63-2.75-3.3-6.19c.28-2.92,3.42-6.11,8-6.2l23.35.76a22.08,22.08,0,0,0,3,.21,21.26,21.26,0,0,0,12.52-38.64L1420,505.66l-10.34-15.32a4.6,4.6,0,0,0-.7-.83c-1.71-1.62-1.91-3.72-1.4-4.61a3.57,3.57,0,0,1,3-1.31,5.22,5.22,0,0,1,3.23,1.14l12.16,10.64a5,5,0,0,0,8.26-3.2,52.18,52.18,0,0,0,0-11.85,51.28,51.28,0,0,0-3.29-12.92,37.06,37.06,0,0,1-2.1-7.23,30.3,30.3,0,0,1,1.81-15.21,29.32,29.32,0,0,0,5.1-20.69c-1.78-12.68-11.39-19.28-14.31-21-3.45-3-12.88-12-11.73-20.5,1.37-10.09,17.38-21,40.87-21,2.48,0,5,.12,7.57.36l1.49,6.18,2.29,9.57c0,.19.11.38.17.56a61,61,0,0,0,26.11,31.36c4.88,4.86,10.53,7.74,15.23,7.74a9.5,9.5,0,0,0,5-1.31,10.86,10.86,0,0,0,4.75-7.07c1.41-5.88-.25-13.44-4.45-20.28l-5.85-12.44-4.5-9.56c12.13-1.81,22.25-11,23.92-22.38a26.15,26.15,0,0,0-6.52-20.71,29.83,29.83,0,0,0-22.59-10.29h-.65c-11.08.67-22.32,1-33.41,1s-22.32-.34-33.39-1a552.56,552.56,0,0,1-59.21-6.83,361.46,361.46,0,0,1-46-11.33,360.57,360.57,0,0,1-52.13-21.15,5,5,0,0,0-2.24-.53Z" transform="translate(-174.61 -149.48)"/><path class="cls-3" d="M1449.46,539.19a2.51,2.51,0,0,1-2-1l-5.78-7.4a2.5,2.5,0,0,1-.42-2.3l7.34-23.11-6.81-7.78a2.5,2.5,0,0,1,.23-3.52l5.76-5.05a2.52,2.52,0,0,1,1.65-.62h.17a2.5,2.5,0,0,1,1.71.85l12.29,14a2.5,2.5,0,0,1,.32,2.82l-8.32,15.63-3.74,15.51a2.48,2.48,0,0,1-1.9,1.85A2.33,2.33,0,0,1,1449.46,539.19Z" transform="translate(-174.61 -149.48)"/><path d="M1449.46,491l12.28,14-8.46,15.9q-1.9,7.92-3.82,15.82l-5.78-7.4q2-6.18,3.92-12.36l3.84-12.1L1443.7,496l5.76-5.05m0-5a5,5,0,0,0-3.29,1.24l-5.76,5.05a5,5,0,0,0-.47,7.05l5.88,6.71-3,9.41-2,6.18-2,6.18a5,5,0,0,0,.83,4.6l5.78,7.4a5,5,0,0,0,3.94,1.92,5.45,5.45,0,0,0,1.06-.11,5,5,0,0,0,3.8-3.72l3.67-15.2,3.39-6.37,4.78-9a5,5,0,0,0-.65-5.65l-12.29-14a5,5,0,0,0-3.43-1.69Z" transform="translate(-174.61 -149.48)"/><path class="cls-3" d="M1442.24,471.53a2.46,2.46,0,0,1-1-.23l-6.63-3.06a2.49,2.49,0,0,1-1.17-3.42l6.63-12.77a2.51,2.51,0,0,1,3.85-.74l9.2,7.92a2.5,2.5,0,0,1-1.64,4.39,2.09,2.09,0,0,1-.43,0,6.19,6.19,0,0,0-.84-.05,5.09,5.09,0,0,0-5.42,5.41,2.5,2.5,0,0,1-2.5,2.59Z" transform="translate(-174.61 -149.48)"/><path d="M1442.24,453.21l9.19,7.91a7.49,7.49,0,0,0-1.27-.09,7.59,7.59,0,0,0-7.92,8L1435.6,466l6.64-12.76m0-5a4.28,4.28,0,0,0-.94.09,5,5,0,0,0-3.49,2.6l-6.64,12.76a5,5,0,0,0,2.34,6.85l6.64,3.06a4.93,4.93,0,0,0,2.09.46,5,5,0,0,0,5-5.19,2.93,2.93,0,0,1,.7-2,3,3,0,0,1,2.22-.8,4.17,4.17,0,0,1,.44,0,5.31,5.31,0,0,0,.87.08,5,5,0,0,0,3.23-8.8l-4.6-4-4.6-3.95a5,5,0,0,0-3.26-1.21Z" transform="translate(-174.61 -149.48)"/></g><g class="AmrNord" ><path id=3 class="cls-4" d="M604.48,287.48h-.38c-4.53-.25-8.2-4.74-11.52-14.09a39.75,39.75,0,0,1-11.69-15.89c-5.17-13-1.73-24.87,0-29.39a2.48,2.48,0,0,1,1.22-1.35A23.44,23.44,0,0,0,595.27,206c.11-11.85-9-18.66-10.8-19.88A61.07,61.07,0,0,0,568.74,184c-.8,0-1.56,0-2.27.05l-1.65.08c-1,.06-2.11.12-3.12.12-2.38,0-5.36-.3-7.25-2.67s-2-5.68-.4-10.06a2.49,2.49,0,0,1,1.5-1.51,297,297,0,0,1,90.38-17.77c3.75-.14,7.57-.21,11.33-.21a298.14,298.14,0,0,1,61.28,6.39,2.45,2.45,0,0,1,1.26.69,26.46,26.46,0,0,1,6.77,25.38,2.68,2.68,0,0,1-.65,1.13L688.38,223.1a2.67,2.67,0,0,1-.57.43l-17.93,9.71-16,20.28a2.51,2.51,0,0,1-2,.95l-.28,0-25.8-2.83c-9.71,31.73-16.47,35.86-21.31,35.86Z" transform="translate(-174.61 -149.48)"/><path id=3 d="M657.26,154.48A294.58,294.58,0,0,1,718,160.82a24,24,0,0,1,6.13,23l-37.53,37.53-18.39,10q-8.18,10.34-16.36,20.68L624,248.9Q613.21,285,604.48,285h-.24q-5.12-.3-9.54-13.1a37.34,37.34,0,0,1-11.49-15.32c-5.16-12.94-1.13-24.59,0-27.57a26.07,26.07,0,0,0,14.56-23c.14-14.13-11.58-21.78-12.26-22.21a63,63,0,0,0-16.77-2.35c-.84,0-1.63,0-2.38.05-1.61.07-3.21.2-4.66.2-2.26,0-4.17-.32-5.3-1.73-1.58-2-.87-5.21,0-7.66A295.14,295.14,0,0,1,646,154.69q5.73-.21,11.24-.21m0-5v0h0c-3.8,0-7.64.07-11.43.22a299.53,299.53,0,0,0-91.14,17.91,5,5,0,0,0-3,3c-1.88,5.25-1.61,9.44.8,12.46,2.88,3.61,7.47,3.61,9.2,3.61,1.08,0,2.19-.06,3.26-.12l1.61-.08c.72,0,1.45-.05,2.17-.05a58.29,58.29,0,0,1,14.66,2c2.12,1.53,9.47,7.54,9.37,17.55A21,21,0,0,1,581,224.51a5,5,0,0,0-2.45,2.7c-1.82,4.79-5.47,17.43,0,31.21a42.22,42.22,0,0,0,11.88,16.44c2.42,6.65,6.4,14.71,13.51,15.11h.52c8.42,0,15.2-10.39,23.09-35.65l23.75,2.61a5.07,5.07,0,0,0,.55,0,5,5,0,0,0,3.92-1.9l11.11-14,4.62-5.83,10.25-5.56,7.23-3.91a5.08,5.08,0,0,0,1.15-.86l18.77-18.77,18.76-18.77a4.88,4.88,0,0,0,1.3-2.25,29,29,0,0,0-7.4-27.78,5,5,0,0,0-2.53-1.37,300.26,300.26,0,0,0-61.79-6.45Z" transform="translate(-174.61 -149.48)"/><path class="cls-4" id=3 d="M640.76,295.89a2.41,2.41,0,0,1-.88-.16,29,29,0,0,1-14.94-12.44A27.47,27.47,0,0,1,621.52,273a2.5,2.5,0,0,1,2.48-2.81h33.51a2.5,2.5,0,0,1,2.45,3,31.62,31.62,0,0,1-5,11.64,32,32,0,0,1-13.19,10.88A2.62,2.62,0,0,1,640.76,295.89Z" transform="translate(-174.61 -149.48)"/><path id=3 d="M657.51,272.65a29,29,0,0,1-4.6,10.72,29.43,29.43,0,0,1-12.15,10,26.44,26.44,0,0,1-13.65-11.34,25.06,25.06,0,0,1-3.11-9.4h33.51m0-5H624a5,5,0,0,0-5,5.62,29.8,29.8,0,0,0,3.74,11.26A31.5,31.5,0,0,0,639,298.08a5.1,5.1,0,0,0,3.8-.12A34.56,34.56,0,0,0,657,286.23a34.05,34.05,0,0,0,5.39-12.56,5,5,0,0,0-4.9-6Z" transform="translate(-174.61 -149.48)"/><path id=3 class="cls-4" d="M279.13,523.32a2.15,2.15,0,0,1-.43,0,77.78,77.78,0,0,1-36.4-16.62c-18.93-15.69-25-36-26.91-46.67a2.28,2.28,0,0,1,0-.45V418.11c-7.4-12.47-22.3-43.58-10.63-76.15a74.5,74.5,0,0,1,11.15-20.28,2.8,2.8,0,0,1,.28-.31l40.73-37.64a17.1,17.1,0,0,0-2.09-11.3c-3.1-5-9.1-8-16-8a24.43,24.43,0,0,0-5.55.64L202,278.77a3.09,3.09,0,0,1-.54.17,29.06,29.06,0,0,1-5.31.51A18.8,18.8,0,0,1,185,276.2c-8.72-6.36-11.64-23.09-1.43-40.07a2.19,2.19,0,0,1,.37-.48l37.54-37.53a2.45,2.45,0,0,1,1.39-.71l25.27-3.83a2.43,2.43,0,0,1,.38,0h.15l128.67,7.61,43.76-26.41a2.52,2.52,0,0,1,1.29-.36,2.55,2.55,0,0,1,1.53.52l25.44,19.63a12.17,12.17,0,0,1,5.59-1.39,8.5,8.5,0,0,1,8.87,10.24,12.08,12.08,0,0,1-5.63,8.56,2.71,2.71,0,0,1-.81.33l-46.43,9.82a27.19,27.19,0,0,0-14,16,26.81,26.81,0,0,0,1.57,21.13,27.45,27.45,0,0,0,37,11.31l34-27.2c1.11-1.54,5.4-6.79,12.53-6.9h.23a15.53,15.53,0,0,1,9.84,3.64L506.88,252l19.2-10.67a2.53,2.53,0,0,1,1.22-.32,2.33,2.33,0,0,1,.53.06c4.61,1,20.38,5.52,29.94,21a46.94,46.94,0,0,1,6.48,29.94,2.51,2.51,0,0,1-2.39,2.21l-42.26,1.59H519a44.43,44.43,0,0,0-21.86,5.74A44.9,44.9,0,0,0,479,321.21a2.49,2.49,0,0,1-.45.66A41.37,41.37,0,0,1,459,333.28a40.88,40.88,0,0,1-10.16,1.28,41.73,41.73,0,0,1-9.26-1A98.17,98.17,0,0,0,419.48,348c-3.19,3-5.45,5.55-7.64,8a69.58,69.58,0,0,1-10.95,10.54,67.76,67.76,0,0,1-19.75,10.28l-28.06,12.74,4.36,33.64a2.52,2.52,0,0,1-1.79,2.73,2.72,2.72,0,0,1-.69.09,2.48,2.48,0,0,1-2.27-1.46c-3.82-8.32-15.29-28.73-39.28-38.55a71.25,71.25,0,0,0-27.15-5.28c-1.85,0-3.74.07-5.61.21a66.31,66.31,0,0,0-32.53,49.36l20.4,7.74a2.49,2.49,0,0,1,1.51,3.07L268,447.85h16.53a2.5,2.5,0,0,1,1.54,4.47c-2.79,2.17-6.44,5-10.71,8.42-14.81,11.72-16.67,13.58-17.63,15.86-1.34,3.16-2.44,10.22,5.06,22L281,519.16a2.51,2.51,0,0,1-1.87,4.16Z" transform="translate(-174.61 -149.48)"/><path id=3 d="M422.36,176.9l26.81,20.69a9.73,9.73,0,0,1,5.74-1.93,6.7,6.7,0,0,1,5,1.93c2.58,2.82,2,9.08-3.06,12.25l-46.72,9.89a29.67,29.67,0,1,0,26.8,52.92l34.47-27.58c.33-.5,4.07-6,10.73-6.12h.19a13.06,13.06,0,0,1,8.23,3.06l16.09,13,20.68-11.49c3,.65,18.81,4.43,28.34,19.92a44.65,44.65,0,0,1,6.13,28.34l-42.13,1.59H519a46.56,46.56,0,0,0-42.25,26.75,39,39,0,0,1-18.38,10.72,38.22,38.22,0,0,1-9.54,1.2,39.09,39.09,0,0,1-9.61-1.2,100.08,100.08,0,0,0-21.44,15.32c-7.92,7.45-10.38,12.33-18.39,18.38a65.26,65.26,0,0,1-19.15,9.95l-29.87,13.55q2.29,17.74,4.6,35.48c-2.8-6.11-14.19-29-40.6-39.83a74.14,74.14,0,0,0-28.1-5.46c-2.4,0-4.54.11-6.37.26A68.76,68.76,0,0,0,245.43,432l10.39,3.94,11.82,4.48q-1.53,5-3.07,10h19.92c-2.79,2.18-6.45,5-10.72,8.43-15.32,12.12-17.18,14-18.39,16.85-1,2.44-3.63,10.45,5.36,24.51l18.39,20.68a75.36,75.36,0,0,1-35.24-16.09c-20.06-16.63-24.86-38.66-26-45.19V417.41c-4.27-7.08-23.15-40.08-10.77-74.6a72,72,0,0,1,10.77-19.61L259.21,285c.39-2.15,1.19-8.23-2.3-13.86s-10.46-9.19-18.16-9.19a27.4,27.4,0,0,0-6.35.76L201,276.48a26.66,26.66,0,0,1-4.85.47c-5.65,0-8.78-2.09-9.7-2.77-8.07-5.88-9.89-21.6-.77-36.77l37.53-37.53,25.28-3.83,129.45,7.66,44.42-26.81m0-5a5,5,0,0,0-2.58.72l-43.1,26-127.9-7.57h-.29a4.74,4.74,0,0,0-.75.06l-25.28,3.83a5,5,0,0,0-2.78,1.41l-18.77,18.76-18.76,18.77a5,5,0,0,0-.75,1c-9.81,16.31-8.89,35.37,2.1,43.38A21.53,21.53,0,0,0,196.15,282a31.38,31.38,0,0,0,5.77-.56,5.09,5.09,0,0,0,1.09-.33l15.7-6.9,15.28-6.7a22,22,0,0,1,4.75-.53c6,0,11.32,2.61,13.92,6.82a14.18,14.18,0,0,1,1.84,8.78l-26.25,24.26-13.79,12.74a4.76,4.76,0,0,0-.57.62,77,77,0,0,0-11.52,21c-11.85,33.05,2.79,64.51,10.48,77.67v40.75a5.26,5.26,0,0,0,.08.89c2,11,8.24,32,27.77,48.15a80.33,80.33,0,0,0,37.58,17.17,4.88,4.88,0,0,0,.85.07,5,5,0,0,0,3.73-8.32l-18.11-20.38c-7-11.15-5.68-17.38-4.76-19.55.74-1.76,3.05-3.92,16.88-14.87,3.55-2.81,7.14-5.64,10.69-8.41a5,5,0,0,0-3.07-8.94H271.34l1.08-3.49a5,5,0,0,0-3-6.14l-5.91-2.24-5.91-2.25-6.72-2.54a63.75,63.75,0,0,1,30.54-45.27c1.62-.11,3.25-.17,4.85-.17a68.75,68.75,0,0,1,26.21,5.09c23.16,9.48,34.25,29.24,37.94,37.29a5,5,0,0,0,4.55,2.91,5.1,5.1,0,0,0,1.38-.19,5,5,0,0,0,3.58-5.45l-2.3-17.74-1.82-14.07,26.26-11.92a70.17,70.17,0,0,0,20.34-10.62,71.67,71.67,0,0,0,11.32-10.87c2.15-2.43,4.37-4.94,7.47-7.86A95.73,95.73,0,0,1,440,336.16a43.72,43.72,0,0,0,40.4-12.55,5.06,5.06,0,0,0,.91-1.33,42.35,42.35,0,0,1,17.1-18.47A41.86,41.86,0,0,1,519,298.39h.84l42.13-1.6a5,5,0,0,0,4.77-4.4,49.42,49.42,0,0,0-6.83-31.55c-10.08-16.37-26.68-21.12-31.53-22.18a4.81,4.81,0,0,0-1.07-.12,5.06,5.06,0,0,0-2.43.63L507.14,249l-13.43-10.87A18,18,0,0,0,482.3,234H482a18.67,18.67,0,0,0-14.33,7.67l-33.54,26.83a25,25,0,0,1-33.41-10.37,24.35,24.35,0,0,1-1.42-19.18,24.73,24.73,0,0,1,12.41-14.41l46.13-9.76a5.06,5.06,0,0,0,1.62-.65,14.57,14.57,0,0,0,6.78-10.34,11,11,0,0,0-11.36-13.08,14.42,14.42,0,0,0-5.24,1L425.42,173a5,5,0,0,0-3.06-1Z" transform="translate(-174.61 -149.48)"/></g><g class="AmrSud" ><path id=4 class="cls-5" d="M415,944.17c-2.37,0-8.29-.76-32.36-7.32a2.53,2.53,0,0,1-1.23-.77,115.51,115.51,0,0,1-28.18-83.77l6.12-108.59a109.49,109.49,0,0,0-59-90.85c-18.79-6.48-32.55-22.08-35.93-40.74-3.78-20.84,6.95-37,10.39-41.47A119.58,119.58,0,0,0,295,520.43a2.49,2.49,0,0,1,1.78-2,2.35,2.35,0,0,1,.69-.1,2.48,2.48,0,0,1,1.89.87l18,20.81,48.86-21.47a2.46,2.46,0,0,1,1-.21h0a190.61,190.61,0,0,1,99.34,29.49,2.74,2.74,0,0,1,.55.47l26.5,30.29,35.6,18.94a1.4,1.4,0,0,1,.26.16A34.61,34.61,0,0,1,542.69,615c4.09,12.42.35,26.7-9.76,37.28a1.93,1.93,0,0,1-.3.27,90.61,90.61,0,0,0-19.38,19.83c-14.63,20.53-17.4,42.59-17.15,57.48a2.59,2.59,0,0,1-.24,1.1c-13.75,29.45-30.93,54.18-51.09,73.52l-2.55,2.42c-8.8,8.31-23.52,22.23-36.06,44.49-7.91,14-10.42,23.29-11.21,27.57-4.05,21.79,3.52,41,10.78,53.5,12.15,5.46,13.74,7.08,12.87,9.65C418.29,943.06,417.41,944.17,415,944.17Z" transform="translate(-174.61 -149.48)"/><path d="M367.21,520.82a188.16,188.16,0,0,1,98.05,29.11l26.8,30.63,36,19.15a32.45,32.45,0,0,1,12.26,16.09c3.83,11.62.18,25-9.19,34.77A93,93,0,0,0,511.21,671c-16.67,23.4-17.79,48.33-17.61,59-16.92,36.24-35.94,58.74-50.56,72.76-8.44,8.1-25,22.61-39.06,47.49-9.08,16.11-11,25.83-11.49,28.34-4.71,25.4,6.08,46.77,11.49,55.92q12.67,5.65,12.25,6.89c-.07.23-.49.34-1.23.34q-5.17,0-31.7-7.23a113.08,113.08,0,0,1-27.58-82q3.07-54.39,6.13-108.77a112,112,0,0,0-60.51-93.14c-17.95-6.13-31.22-21-34.46-38.88-3.81-21,7.91-36.89,9.95-39.55a122.1,122.1,0,0,0,20.68-51.32L316.66,543l50.55-22.21m-69.7-5a4.92,4.92,0,0,0-1.37.19,5,5,0,0,0-3.57,4,117,117,0,0,1-19.78,49.14C269.16,574,258,590.8,262,612.58c3.53,19.49,17.84,35.78,37.4,42.6a107,107,0,0,1,57.48,88.55l-3.12,55.5-3,52.94a117.95,117.95,0,0,0,28.8,85.55,5,5,0,0,0,2.45,1.54c24.09,6.57,30.3,7.41,33,7.41,4.24,0,5.59-2.61,6-3.74,1.54-4.54-3.14-7.17-5.14-8.3s-4.68-2.43-8.33-4.09c-6.92-12.14-13.93-30.46-10.09-51.11.76-4.12,3.2-13.08,10.92-26.79,12.36-21.93,26.91-35.69,35.61-43.9.92-.87,1.78-1.68,2.56-2.44,20.38-19.55,37.75-44.53,51.63-74.26a4.92,4.92,0,0,0,.46-2.2c-.24-14.51,2.46-36,16.69-56a88.1,88.1,0,0,1,18.85-19.28,5.32,5.32,0,0,0,.61-.55c10.75-11.24,14.71-26.49,10.33-39.79a37.12,37.12,0,0,0-14.13-18.61,5.74,5.74,0,0,0-.53-.32l-35.19-18.72L482.42,562,469,546.63a4.89,4.89,0,0,0-1.1-.93,193,193,0,0,0-100.64-29.88h-.07a5,5,0,0,0-2,.42L318,537,301.3,517.55a5,5,0,0,0-3.79-1.73Z" transform="translate(-174.61 -149.48)"/></g><g class="Oceanie" id=6 ><polygon class="cls-6" points="1342.9 763.87 1364.35 731.18 1364.35 711.26 1381.93 724.67 1352.09 763.87 1342.9 763.87"/><path class="cls-7" id=6 d="M1377,680.47a6.79,6.79,0,0,1-2.18-.37l-.36-.16a84.59,84.59,0,0,1-45-75,2.49,2.49,0,0,1,1.64-2.35,11.65,11.65,0,0,0,4.56-3,12,12,0,0,0,3-6.46,2.51,2.51,0,0,1,2.48-2.17h.21a2.5,2.5,0,0,1,2.29,2.58,90.32,90.32,0,0,0,6.71,38,91.86,91.86,0,0,0,31.32,39.52,2.53,2.53,0,0,1,.84,1.07,5.87,5.87,0,0,1-5.54,8.29Z" transform="translate(-174.61 -149.48)"/><path id=6 d="M1341.15,593.48a93.69,93.69,0,0,0,6.89,39.06,94.78,94.78,0,0,0,32.17,40.6,3.71,3.71,0,0,1-.17,3.23,3.55,3.55,0,0,1-3,1.6,4.12,4.12,0,0,1-1.37-.24A82.08,82.08,0,0,1,1332,605a14.21,14.21,0,0,0,5.53-3.66,14.42,14.42,0,0,0,3.66-7.83m0-5a5,5,0,0,0-5,4.33,9.4,9.4,0,0,1-2.37,5.1,9.16,9.16,0,0,1-3.58,2.36A5,5,0,0,0,1327,605a87.08,87.08,0,0,0,46.31,77.18,6.36,6.36,0,0,0,.71.31,9.15,9.15,0,0,0,3,.51,8.48,8.48,0,0,0,7.3-4,8.69,8.69,0,0,0,.54-7.79,5,5,0,0,0-1.69-2.13,89.41,89.41,0,0,1-30.47-38.45,88,88,0,0,1-6.52-37,5,5,0,0,0-4.58-5.17,3,3,0,0,0-.43,0Z" transform="translate(-174.61 -149.48)"/><path class="cls-7" id=6 d="M1382.69,720.35a10.76,10.76,0,0,1-5.82-2.13,2.39,2.39,0,0,1-.62-.65l-8.34-12.75-40.81-22.34a2.43,2.43,0,0,1-.49-.35,13.3,13.3,0,0,1-4.55-10,8,8,0,0,1,2.61-6,7.28,7.28,0,0,1,4.71-1.53,13,13,0,0,1,7.29,2.49,83.17,83.17,0,0,1,43.7,25.51,3.19,3.19,0,0,1,.3.42l7.15,12.25.06.12a13,13,0,0,1,1,10.12,7.25,7.25,0,0,1-3.77,4.37A6,6,0,0,1,1382.69,720.35Z" transform="translate(-174.61 -149.48)"/><path id=6 d="M1329.37,667.07a10.64,10.64,0,0,1,6.25,2.32,80.67,80.67,0,0,1,42.89,24.85l7.15,12.26c2.6,5.06,1.08,9.91-1.53,11.06a3.47,3.47,0,0,1-1.44.29,8.45,8.45,0,0,1-4.35-1.65l-8.68-13.27-41.36-22.64c-4.68-4.29-4.49-10.24-2-12.26a4.87,4.87,0,0,1,3.11-1m0-5a9.79,9.79,0,0,0-6.3,2.1,10.46,10.46,0,0,0-3.5,7.89,15.72,15.72,0,0,0,5.35,11.91,4.49,4.49,0,0,0,1,.7l40.26,22,3.66,5.59,4.34,6.64a5.07,5.07,0,0,0,1.23,1.3,13.12,13.12,0,0,0,7.3,2.61,8.52,8.52,0,0,0,3.45-.71,9.68,9.68,0,0,0,5.11-5.83,15.41,15.41,0,0,0-1.14-12.09L1390,704l-1.15-2-6-10.29a4.5,4.5,0,0,0-.6-.83,85.62,85.62,0,0,0-44.54-26.17,15.25,15.25,0,0,0-8.32-2.66Z" transform="translate(-174.61 -149.48)"/><path class="cls-7" id=6 d="M1490,703a1.77,1.77,0,0,1-.32,0,49.64,49.64,0,0,1-22.47-8.73,11.62,11.62,0,0,1-5,1.76q-.65.06-1.23.06a11.79,11.79,0,0,1-5.69-1.46,2.44,2.44,0,0,1-1-.95,17.2,17.2,0,0,0-6.23-6.31,16.77,16.77,0,0,0-5.8-2.06l-8.87-.33a3.4,3.4,0,0,1-.46-.06,12.23,12.23,0,0,1-9.61-12.27,12.08,12.08,0,0,1,8.56-10.77,2.72,2.72,0,0,1,.75-.11,1.83,1.83,0,0,1,.33,0l12.47,1.69c2.14-2.27,7.26-6.67,14.59-6.67l1,0A19.07,19.07,0,0,1,1471.8,661a64.49,64.49,0,0,1,10.24,6.79,62.65,62.65,0,0,1,7.64,7.38,37.68,37.68,0,0,0,5.56,5.33,33.4,33.4,0,0,0,14.9,6,2.5,2.5,0,0,1,.87,4.62l-19.75,11.58A2.43,2.43,0,0,1,1490,703Z" transform="translate(-174.61 -149.48)"/><path id=6 d="M1460,659.33l.86,0a16.89,16.89,0,0,1,9.54,3.75,62.48,62.48,0,0,1,10,6.63c6.67,5.41,8.21,9,13.27,12.77a35.46,35.46,0,0,0,16,6.47L1490,700.54a47.34,47.34,0,0,1-22.81-9.36,9.32,9.32,0,0,1-5.28,2.38,8,8,0,0,1-1,.06,9.26,9.26,0,0,1-4.48-1.16,19.69,19.69,0,0,0-7.15-7.24,19.45,19.45,0,0,0-6.81-2.38l-9-.34a9.66,9.66,0,0,1-7.66-9.7,9.56,9.56,0,0,1,6.81-8.51l13.79,1.87c.56-.71,5.63-6.83,13.6-6.83m0-5a22.77,22.77,0,0,0-15.48,6.53l-4.35-.59-6.89-.94a5,5,0,0,0-.67,0,4.69,4.69,0,0,0-1.49.23,14.58,14.58,0,0,0-10.31,13,14.73,14.73,0,0,0,11.56,14.83,4.63,4.63,0,0,0,.9.12l5.4.2,3.32.13a13.89,13.89,0,0,1,4.79,1.72,14.67,14.67,0,0,1,5.32,5.39,4.94,4.94,0,0,0,1.92,1.9,14.34,14.34,0,0,0,6.9,1.78,14.72,14.72,0,0,0,1.49-.08,14,14,0,0,0,4.63-1.32,52.28,52.28,0,0,0,22.3,8.28,4.44,4.44,0,0,0,.63,0,5,5,0,0,0,2.53-.68l8.18-4.8,11.56-6.78a5,5,0,0,0-1.73-9.25,31,31,0,0,1-13.8-5.53,35.28,35.28,0,0,1-5.21-5,65.74,65.74,0,0,0-7.91-7.64,67.81,67.81,0,0,0-10.45-7,21.58,21.58,0,0,0-12-4.53l-1.14,0Z" transform="translate(-174.61 -149.48)"/><path id=6 class="cls-7" d="M1444.2,889.54a18.48,18.48,0,0,1-15.56-8.79,2.35,2.35,0,0,1-.35-1l-1.26-9.81a14.31,14.31,0,0,1-2.17.16,13.26,13.26,0,0,1-11.37-6c-2.6-4.23-1.7-8.8-1-11a26.26,26.26,0,0,0-12.55-9.88,25.59,25.59,0,0,0-8.81-1.56,27.4,27.4,0,0,0-9.75,1.81,28,28,0,0,1-18.5,9.6c-.73.06-1.46.09-2.18.09a27.6,27.6,0,0,1-14-3.94l-23.42,7.15a2.27,2.27,0,0,1-.73.11,2.53,2.53,0,0,1-1.33-.38,2.5,2.5,0,0,1-1.14-1.73,60.33,60.33,0,0,1,7.81-40.13,113.24,113.24,0,0,0,13.29-40.41,2.51,2.51,0,0,1,2-2.13,283.7,283.7,0,0,0,58.21-18.22l.26-.1a27.62,27.62,0,0,0,9.06-4.68c1.13-.88,2.1-1.8,6.16-6.34,2.39-2.68,4.78-5.42,7.1-8.13a2.51,2.51,0,0,1,1.9-.87h.12a2.48,2.48,0,0,1,1.93,1.07,52.76,52.76,0,0,0,4.25,5.37,54,54,0,0,0,7.44,6.89,22.07,22.07,0,0,0,11.21-9.09,2.49,2.49,0,0,1,2.12-1.18h.15a2.52,2.52,0,0,1,2.12,1.44,9.46,9.46,0,0,0,4.3,4.44,9.36,9.36,0,0,0,3.39.95,60.41,60.41,0,0,0-.46-29.23,2.5,2.5,0,0,1,4.37-2.19,280.08,280.08,0,0,0,30.54,32.56c6,5.47,12.38,10.75,18.89,15.69a2.43,2.43,0,0,1,.76,1,65.56,65.56,0,0,1-3,60.25,62.61,62.61,0,0,1-6.69,11.06c-5.89,7.81-11.85,11.84-18.16,16.11a110.07,110.07,0,0,0-13.3,10.11,85.69,85.69,0,0,0-14,16.47,18.5,18.5,0,0,1-15.49,14.46A18,18,0,0,1,1444.2,889.54Z" transform="translate(-174.61 -149.48)"/><path id=6 d="M1464.81,713.31a281.06,281.06,0,0,0,30.81,32.85c6.5,5.9,12.9,11.16,19.06,15.83a63,63,0,0,1-2.89,58,60.72,60.72,0,0,1-6.47,10.73c-9.48,12.54-19.08,14.88-31.15,25.87A87.88,87.88,0,0,0,1459.53,874a15.88,15.88,0,0,1-13.44,12.94,17.11,17.11,0,0,1-1.89.11,15.88,15.88,0,0,1-13.43-7.6l-1.62-12.6a12.53,12.53,0,0,1-4.29.76,10.75,10.75,0,0,1-9.24-4.84c-2.76-4.5-.55-9.59-.34-10a28.91,28.91,0,0,0-14.47-11.91,27.91,27.91,0,0,0-9.67-1.72,29.69,29.69,0,0,0-11.27,2.23,25.43,25.43,0,0,1-17.19,9.19c-.67.06-1.33.08-2,.08a25,25,0,0,1-13.69-4.17l-24.51,7.49a57.76,57.76,0,0,1,7.49-38.46,115.58,115.58,0,0,0,13.62-41.37,286.24,286.24,0,0,0,58.72-18.38,30,30,0,0,0,9.87-5.1c1.29-1,2.39-2.07,6.47-6.64,2.83-3.17,5.23-5.94,7.14-8.17a55.55,55.55,0,0,0,4.44,5.61,56.79,56.79,0,0,0,8.85,8,24.51,24.51,0,0,0,13.78-10.55,12.18,12.18,0,0,0,5.45,5.62,11.87,11.87,0,0,0,5.32,1.24c.47,0,.86,0,1.15-.05a63.12,63.12,0,0,0,0-32.34m0-5a5,5,0,0,0-4.84,6.25,59,59,0,0,1,1.57,21.5c-.15,1.37-.36,2.73-.61,4.09l-.35-.16a7.07,7.07,0,0,1-3.16-3.28,5,5,0,0,0-4.23-2.86h-.3a5,5,0,0,0-4.24,2.36,19.37,19.37,0,0,1-5,5.42,18.89,18.89,0,0,1-3.66,2.13,52.53,52.53,0,0,1-10-10.82,5,5,0,0,0-3.86-2.15h-.25a5,5,0,0,0-3.8,1.75c-2.31,2.7-4.69,5.42-7.07,8.09-4.06,4.54-4.91,5.31-5.84,6a24.91,24.91,0,0,1-8.25,4.25,5.55,5.55,0,0,0-.52.2,281.31,281.31,0,0,1-57.69,18.06,5,5,0,0,0-4,4.26,110.13,110.13,0,0,1-13,39.51,62.78,62.78,0,0,0-8.09,41.73,5,5,0,0,0,2.28,3.47,5.06,5.06,0,0,0,2.66.76,5.21,5.21,0,0,0,1.46-.21l22.39-6.84a30,30,0,0,0,14.35,3.73c.79,0,1.59,0,2.38-.1a30.52,30.52,0,0,0,19.75-10,24.84,24.84,0,0,1,8.3-1.44,23,23,0,0,1,7.94,1.41,23.51,23.51,0,0,1,10.68,8,15.36,15.36,0,0,0,1.6,11.88,15.77,15.77,0,0,0,13.49,7.23l.15,1.18.81,6.29a5,5,0,0,0,.7,2,20.71,20.71,0,0,0,20.2,9.83,20.7,20.7,0,0,0,17.52-15.95,83,83,0,0,1,13.31-15.61,107.84,107.84,0,0,1,13-9.89c6.48-4.39,12.61-8.53,18.76-16.67a66,66,0,0,0,6.91-11.41,68.07,68.07,0,0,0,3-62.45,5,5,0,0,0-1.53-1.9c-6.44-4.89-12.74-10.12-18.72-15.55a277.55,277.55,0,0,1-30.26-32.27,5,5,0,0,0-3.91-1.88Z" transform="translate(-174.61 -149.48)"/></g><g class="Antartique"><path class="cls-8" id=8 d="M1277.12,1061.76c-2,0-4-.07-5.91-.2l-873.52-1.42a2.28,2.28,0,0,1-.78-.13l-21.8-7.17a2.5,2.5,0,0,1,.77-4.88,2,2,0,0,1,.34,0,163.67,163.67,0,0,0,21.59,1.43l2.57,0,2.35-.05-.11,0a99.3,99.3,0,0,1-14.91-4.41,2.5,2.5,0,0,1-1.55-2.84,2.43,2.43,0,0,1,.72-1.3,301.42,301.42,0,0,0-30.3-4.32,2.51,2.51,0,0,1-1.45-.63c-1-.91-4.08-3.68-2.13-6.24a3.45,3.45,0,0,1,2.91-1.29,23.76,23.76,0,0,1,5.57,1.18c3.4,1,7.63,2.15,11.61,2.15a13.55,13.55,0,0,0,4.67-.73c3-1.06,5.21-3.48,6.71-7.19a2.52,2.52,0,0,1,2.13-1.56c22.53-1.72,41.33-2.59,55.88-2.59,14.88,0,25.41.87,32.18,2.67l.39.11a46.48,46.48,0,0,0,12,1.81,23.62,23.62,0,0,0,9.55-1.79,16.93,16.93,0,0,0,4.75-3.12,2.55,2.55,0,0,1,1.56-.68c11.47-.66,23.12-1.14,34.61-1.43,8.91-.23,18-.34,26.87-.34,7.63,0,15.35.08,23,.25a23.87,23.87,0,0,0-6.82-8.35c-1-.77-2-1.41-3-2-2.5-1.62-4.86-3.15-5.27-6.06-.75-5.32,6.24-9.17,8.54-10.43a2.75,2.75,0,0,1,.5-.2l14.21-4.21a8.31,8.31,0,0,1,4.23-1.25,4.93,4.93,0,0,1,2.7.73c2.4,1.55,2.18,4.77.76,7-1.27,2-3.11,2.63-4.88,3.23a16.09,16.09,0,0,0-4,1.83,8.66,8.66,0,0,0-3.57,3.8,4.48,4.48,0,0,0-.27,1.92,40.07,40.07,0,0,1,15.65,5.89,28.81,28.81,0,0,1,11.91,14.94,2.5,2.5,0,0,1-1.21,3,54.68,54.68,0,0,1-19,6c-1.71.2-3.51.34-5.39.39a3,3,0,0,1,.32,1.58,3.12,3.12,0,0,1-2.21,2.87,469.32,469.32,0,0,0,59.77,6c5.59.2,11.26.3,16.86.3a472,472,0,0,0,48.16-2.46l-7.53-5.52a2.5,2.5,0,0,1,.95-4.46l36-7.82,24.25-12.06a2.44,2.44,0,0,1,1.06-.26l92.36-2.15A309,309,0,0,1,944.73,998c5.77,0,11.6.17,17.34.51,8.86.51,17.8,1.44,26.58,2.75a28.38,28.38,0,0,1,14.36-3.94c5.89,0,11.09,1.91,13.56,5a9.82,9.82,0,0,1,1.73,8.25,14.43,14.43,0,0,1-.8,2.6q8.91-3.87,18-7.31a408.13,408.13,0,0,1,43.88-13.72,2.55,2.55,0,0,1,.61-.08l.27,0,86.93,9.29,72.39-9.28.32,0a2.3,2.3,0,0,1,.64.09l79.05,20.8a2.5,2.5,0,0,1-.56,4.92c-10.65.33-26.52,2.42-41.61,10.47a73,73,0,0,0-14,9.71,2.49,2.49,0,0,1-1.26.59l-26.05,4.24a48.9,48.9,0,0,0,8.7,6.18,63.23,63.23,0,0,0,26.58,7.56h11.27a2.5,2.5,0,0,1,.17,5C1280.91,1061.7,1279,1061.76,1277.12,1061.76Z" transform="translate(-174.61 -149.48)"/><path id=8 d="M599.87,987a2.5,2.5,0,0,1,1.35.33c1.12.72.68,2.51,0,3.59-1.46,2.3-4.27,1.75-8.18,4.3a10.9,10.9,0,0,0-4.54,5,7.43,7.43,0,0,0,0,5,38.28,38.28,0,0,1,16.35,5.74,26.06,26.06,0,0,1,10.9,13.63,52.12,52.12,0,0,1-18.17,5.74,62.09,62.09,0,0,1-7.28.41c-5.22,0-9.45-.56-11.08-.56-.44,0-.69,0-.72.15-.19.76,11.92,2.49,11.81,4.3-.07,1.29-6.32,2.21-14.53,2.87a470,470,0,0,0,74.5,8.61c5.8.21,11.45.3,17,.3a475.83,475.83,0,0,0,54.83-3.17L709.34,1034l36.34-7.89,24.53-12.19,92.68-2.16a307.11,307.11,0,0,1,81.84-11.26q8.4,0,17.2.5c9.69.57,18.8,1.58,27.25,2.87a25.65,25.65,0,0,1,13.83-4.05c5.21,0,9.67,1.64,11.61,4.05,3.23,4,1,12.09-7.69,16.84-.78.36-1.54.73-2.3,1.1.81-.34,1.57-.71,2.3-1.1,8.82-4.2,18.66-8.45,29.5-12.53A403.18,403.18,0,0,1,1080,994.5l87.23,9.33L1240,994.5l79,20.81c-9.06.29-26.08,1.89-42.7,10.76a74.81,74.81,0,0,0-14.54,10l-30.89,5a50.17,50.17,0,0,0,12.72,10,66.74,66.74,0,0,0,27.71,7.88l-873.61-1.42-21.8-7.17a166.14,166.14,0,0,0,21.92,1.45l2.61,0a163.83,163.83,0,0,0,28.16-2.87c-1.26,0-2.6.08-4,.08a102.76,102.76,0,0,1-21.4-2.23,96,96,0,0,1-14.53-4.31l20,.72c-4.61-1.26-9.45-2.47-14.54-3.59a300.77,300.77,0,0,0-37.25-5.74c-2-1.82-2.07-2.54-1.82-2.87a1.11,1.11,0,0,1,.92-.3c2.69,0,10.17,3.33,17.18,3.33a16.37,16.37,0,0,0,5.52-.87c4.74-1.72,7-5.75,8.18-8.61,24.28-1.86,42.29-2.59,55.69-2.59,16.44,0,25.94,1.1,31.53,2.59a50.16,50.16,0,0,0,13.07,2,26.23,26.23,0,0,0,10.56-2,19.51,19.51,0,0,0,5.45-3.59c11.13-.64,22.65-1.14,34.53-1.44q13.7-.35,26.8-.33,13.74,0,26.8.33a26.89,26.89,0,0,0-9.08-12.91c-3.59-2.76-6.91-3.91-7.27-6.46-.43-3,3.7-5.93,7.27-7.89l14.53-4.3a6.08,6.08,0,0,1,3.2-1m671.43,72.06h11.36c-1.35.1-3.25.19-5.54.19-1.73,0-3.69,0-5.82-.2M599.87,982h0a11,11,0,0,0-5.23,1.43l-6.65,2-7.27,2.15a4.8,4.8,0,0,0-1,.41c-2.67,1.47-10.8,5.94-9.81,13,.56,4,3.66,6,6.39,7.81.91.59,1.85,1.2,2.78,1.91a21.25,21.25,0,0,1,3.8,3.78c-6.16-.11-12.35-.16-18.47-.16-8.94,0-18,.11-26.93.34-11.52.29-23.19.77-34.69,1.44a5,5,0,0,0-3.13,1.34,14.08,14.08,0,0,1-4.05,2.66,21.14,21.14,0,0,1-8.54,1.58,44,44,0,0,1-11.38-1.73l-.4-.11c-7-1.85-17.72-2.75-32.82-2.75-14.61,0-33.48.88-56.07,2.6a5,5,0,0,0-4.26,3.11c-1.23,3.07-2.95,5-5.24,5.78a11.08,11.08,0,0,1-3.82.58c-3.64,0-7.68-1.14-10.93-2a24.74,24.74,0,0,0-6.25-1.28,5.94,5.94,0,0,0-4.9,2.27c-1.25,1.64-2.59,5.07,2.45,9.62a5,5,0,0,0,2.89,1.26c9.16.84,18.29,2.09,27.26,3.75a5,5,0,0,0,1.83,3.75c-3-.23-5.95-.54-8.89-.93a5,5,0,0,0-2.23,9.7l8.71,2.87,13.1,4.31a5.13,5.13,0,0,0,1.55.25l873.44,1.42c2,.13,4,.2,6,.2s3.9-.06,5.88-.2a5,5,0,0,0-.34-10h-11.17a60.84,60.84,0,0,1-25.46-7.24c-1.35-.76-2.66-1.58-3.91-2.44l6.66-1.09,13.78-2.24a5,5,0,0,0,2.51-1.19,71.32,71.32,0,0,1,13.58-9.38c14.66-7.81,30.12-9.85,40.51-10.17a5,5,0,0,0,1.11-9.84l-39.52-10.4-39.52-10.4a5.06,5.06,0,0,0-1.28-.17,4.46,4.46,0,0,0-.63,0l-72.11,9.25-86.64-9.27a4.58,4.58,0,0,0-.53,0,5,5,0,0,0-1.22.16,407.94,407.94,0,0,0-44.15,13.8q-6.87,2.58-13.65,5.43a11.82,11.82,0,0,0-2.5-8.19c-3-3.71-8.78-5.92-15.51-5.92a31,31,0,0,0-14.86,3.84c-8.57-1.25-17.28-2.15-25.93-2.65-5.79-.34-11.67-.51-17.49-.51a311.66,311.66,0,0,0-82.57,11.28l-45.72,1.06-46.34,1.08a4.8,4.8,0,0,0-2.11.52l-24,11.92-35.73,7.76a5,5,0,0,0-1.9,8.92l2.24,1.64c-13.74,1.21-27.61,1.82-41.39,1.82-5.57,0-11.21-.1-16.77-.3a467.91,467.91,0,0,1-55.28-5.26,2.33,2.33,0,0,0,.05-.28c1-.07,2-.16,2.95-.28a57.19,57.19,0,0,0,19.91-6.28,5,5,0,0,0,2.42-6,31.33,31.33,0,0,0-12.92-16.26,42,42,0,0,0-13.86-5.74,9,9,0,0,1,2-1.67,13.46,13.46,0,0,1,3.47-1.56c1.87-.64,4.45-1.5,6.19-4.26,2.43-3.84,1.78-8.34-1.52-10.46a7.4,7.4,0,0,0-4-1.13Z" transform="translate(-174.61 -149.48)"/></g></svg>
