<svg id="Calque_1" data-name="Calque 1" xmlns="http://www.w3.org/2000/svg" viewBox="0 0 62.97 56.58"><defs><style>.cls-1{fill:#f43d37;}.cls-2{fill:#f3190d;}.cls-3{fill:#fe6669;}</style></defs><title>mars</title><path class="cls-1" d="M558.27,452.08a32.87,32.87,0,0,1-8.27-3.52,31.32,31.32,0,0,1-8.84-7.89,25.29,25.29,0,0,1-5.36-18.51,24.53,24.53,0,0,1,6.31-14.81A30.05,30.05,0,0,1,554.26,399c.42-.16.85-.31,1.3-.45.86-.28,1.76-.53,2.71-.75a36.34,36.34,0,0,1,18.15.63A31.71,31.71,0,0,1,593.36,410a25.19,25.19,0,0,1,5.08,18.56,24.65,24.65,0,0,1-6.53,14.75,30.27,30.27,0,0,1-16.3,9.4A35.78,35.78,0,0,1,558.27,452.08Z" transform="translate(-535.66 -396.92)"/><path class="cls-2" d="M558.27,397.79a25.73,25.73,0,0,0-11.79,7.34c-10,11.35-4,28-3.13,30.44a38.86,38.86,0,0,0,9.4,14.46,29.72,29.72,0,0,1-11.59-9.36A28.36,28.36,0,0,1,535.68,424a27.08,27.08,0,0,1,5.25-15.19A29.64,29.64,0,0,1,558.27,397.79Z" transform="translate(-535.66 -396.92)"/><ellipse class="cls-3" cx="43.38" cy="18.22" rx="4.39" ry="4.23"/></svg>