<svg id="Calque_1" data-name="Calque 1" xmlns="http://www.w3.org/2000/svg" viewBox="0 0 110.14 119.61"><defs><style>.cls-1{fill:#0b91be;}.cls-2{fill:#006597;}.cls-3{fill:#26bdde;}</style></defs><title>neptune</title><path class="cls-1" d="M551.55,482.11c-17.93-6-26.9-19.43-29.93-24.14-10.88-16.82-9.81-33.58-9.37-39.13.46-5.86,1.64-18.66,11-31.3,3.18-4.29,11.89-15.66,28.26-20.22a52.94,52.94,0,0,1,31.75,1.34c17.84,6.2,26.61,19.68,29.63,24.48,10.67,16.95,9.39,33.69,8.88,39.24-.53,5.84-1.87,18.63-11.42,31.17-3.25,4.27-12.12,15.56-28.51,19.89A52.61,52.61,0,0,1,551.55,482.11Z" transform="translate(-512 -365.48)"/><path class="cls-2" d="M523.29,387.54a153.68,153.68,0,0,0,30.57-6.18,150.52,150.52,0,0,0,29.44-12.7,51,51,0,0,1,9.54,4.34,50.21,50.21,0,0,1,7.17,5.1,262.13,262.13,0,0,1-39.39,16.08,264.77,264.77,0,0,1-45.78,10.13,54.34,54.34,0,0,1,3.39-8.52A55.12,55.12,0,0,1,523.29,387.54Z" transform="translate(-512 -365.48)"/><path class="cls-2" d="M550.21,481.64A158,158,0,0,0,579.34,477a155.39,155.39,0,0,0,28.58-10.38,38.93,38.93,0,0,1-13.53,12.61,40.57,40.57,0,0,1-16.07,5,52.81,52.81,0,0,1-28.11-2.59Z" transform="translate(-512 -365.48)"/><path class="cls-3" d="M512,424.86a379.41,379.41,0,0,0,49.58-9.32,376.31,376.31,0,0,0,53.74-18.24,60.32,60.32,0,0,1,3.95,9.51,58.92,58.92,0,0,1,2.09,8.87,299.77,299.77,0,0,1-105.67,30.39A62.21,62.21,0,0,1,512,424.86Z" transform="translate(-512 -365.48)"/></svg>