<svg id="Calque_1" data-name="Calque 1" xmlns="http://www.w3.org/2000/svg" viewBox="0 0 242.21 327.37"><defs><style>.cls-1,.cls-2{fill:#00b0c9;}.cls-1{stroke:#000;stroke-linejoin:round;stroke-width:5px;}</style></defs><title>oceanie</title><polygon class="cls-1" points="200.68 324.87 222.13 292.18 222.13 272.26 239.71 285.67 209.87 324.87 200.68 324.87"/><path class="cls-2" d="M899,468.47a6.8,6.8,0,0,1-2.19-.37l-.36-.16a84.59,84.59,0,0,1-45-75,2.49,2.49,0,0,1,1.64-2.35,11.85,11.85,0,0,0,4.56-3,12,12,0,0,0,3-6.46,2.51,2.51,0,0,1,2.48-2.17h.21a2.5,2.5,0,0,1,2.29,2.58,90.35,90.35,0,0,0,6.71,38,91.92,91.92,0,0,0,31.32,39.52,2.53,2.53,0,0,1,.84,1.07,6.17,6.17,0,0,1-.35,5.51,6.1,6.1,0,0,1-5.18,2.78Z" transform="translate(-838.83 -376.48)"/><path d="M863.15,381.48A93.69,93.69,0,0,0,870,420.54a94.78,94.78,0,0,0,32.17,40.6,3.71,3.71,0,0,1-.17,3.23,3.55,3.55,0,0,1-3,1.6,4.12,4.12,0,0,1-1.37-.24A82.08,82.08,0,0,1,854,393a14.21,14.21,0,0,0,5.53-3.66,14.42,14.42,0,0,0,3.66-7.83m0-5a5,5,0,0,0-4.95,4.33,9.4,9.4,0,0,1-2.37,5.1,9.16,9.16,0,0,1-3.58,2.36A5,5,0,0,0,849,393a87.08,87.08,0,0,0,46.31,77.18,6.36,6.36,0,0,0,.71.31,9.15,9.15,0,0,0,3,.51,8.48,8.48,0,0,0,7.3-4,8.69,8.69,0,0,0,.54-7.79,5,5,0,0,0-1.69-2.13,89.41,89.41,0,0,1-30.47-38.45,88,88,0,0,1-6.52-37,5,5,0,0,0-4.58-5.17,3,3,0,0,0-.43,0Z" transform="translate(-838.83 -376.48)"/><path class="cls-2" d="M904.69,508.35a10.79,10.79,0,0,1-5.82-2.13,2.39,2.39,0,0,1-.62-.65l-8.34-12.75L849.1,470.48a2.43,2.43,0,0,1-.49-.35,13.3,13.3,0,0,1-4.55-10,8,8,0,0,1,2.61-6,7.27,7.27,0,0,1,4.7-1.53,13,13,0,0,1,7.3,2.49,83.17,83.17,0,0,1,43.7,25.51,3.91,3.91,0,0,1,.3.41l7.15,12.26.06.12a13,13,0,0,1,1,10.12,7.26,7.26,0,0,1-3.76,4.37A6.1,6.1,0,0,1,904.69,508.35Z" transform="translate(-838.83 -376.48)"/><path d="M851.37,455.07a10.64,10.64,0,0,1,6.25,2.32,80.67,80.67,0,0,1,42.89,24.85l7.15,12.26c2.6,5.06,1.08,9.91-1.53,11.06a3.47,3.47,0,0,1-1.44.29,8.45,8.45,0,0,1-4.35-1.65l-8.68-13.27L850.3,468.29c-4.68-4.29-4.49-10.24-2-12.26a4.87,4.87,0,0,1,3.11-1m0-5h0a9.79,9.79,0,0,0-6.3,2.1,10.46,10.46,0,0,0-3.5,7.89A15.72,15.72,0,0,0,846.92,472a4.49,4.49,0,0,0,1,.7l40.26,22,3.66,5.59,4.34,6.64a5.07,5.07,0,0,0,1.23,1.3,13.12,13.12,0,0,0,7.3,2.61,8.52,8.52,0,0,0,3.45-.71,9.68,9.68,0,0,0,5.11-5.83,15.41,15.41,0,0,0-1.14-12.09L912,492l-3.29-5.64-3.86-6.61a4.5,4.5,0,0,0-.6-.83,85.62,85.62,0,0,0-44.54-26.17,15.25,15.25,0,0,0-8.32-2.66Z" transform="translate(-838.83 -376.48)"/><path class="cls-2" d="M1012,491a1.77,1.77,0,0,1-.32,0,49.64,49.64,0,0,1-22.47-8.73,11.62,11.62,0,0,1-5,1.76c-.43,0-.84.07-1.23.07a11.78,11.78,0,0,1-5.69-1.47,2.44,2.44,0,0,1-1-.95,17.2,17.2,0,0,0-6.23-6.31,16.77,16.77,0,0,0-5.8-2.06l-8.88-.33a3.47,3.47,0,0,1-.45-.06,12.23,12.23,0,0,1-9.61-12.27,12.09,12.09,0,0,1,8.56-10.77,2.72,2.72,0,0,1,.75-.11,1.83,1.83,0,0,1,.33,0l12.46,1.69c2.15-2.27,7.27-6.67,14.6-6.67l1,0A19.14,19.14,0,0,1,993.8,449a64.49,64.49,0,0,1,10.24,6.79,62.65,62.65,0,0,1,7.64,7.38,37.68,37.68,0,0,0,5.56,5.33,33.4,33.4,0,0,0,14.9,6,2.5,2.5,0,0,1,.87,4.63l-19.75,11.57A2.53,2.53,0,0,1,1012,491Z" transform="translate(-838.83 -376.48)"/><path d="M982,447.33l.86,0a16.89,16.89,0,0,1,9.54,3.75,62.48,62.48,0,0,1,10,6.63c6.67,5.41,8.21,9,13.27,12.77a35.46,35.46,0,0,0,16,6.47L1012,488.54a47.34,47.34,0,0,1-22.81-9.36,9.32,9.32,0,0,1-5.28,2.38,8,8,0,0,1-1,.06,9.26,9.26,0,0,1-4.48-1.16,19.69,19.69,0,0,0-7.15-7.24,19.45,19.45,0,0,0-6.81-2.38l-9-.34a9.66,9.66,0,0,1-7.66-9.7,9.56,9.56,0,0,1,6.81-8.51l13.79,1.87c.56-.71,5.63-6.83,13.6-6.83m0-5a22.77,22.77,0,0,0-15.48,6.53l-4.35-.59-6.89-.94a5,5,0,0,0-.67,0,4.69,4.69,0,0,0-1.49.23,14.58,14.58,0,0,0-10.31,13,14.73,14.73,0,0,0,11.56,14.83,4.63,4.63,0,0,0,.9.12l4.51.17,4.21.16a13.89,13.89,0,0,1,4.79,1.72,14.67,14.67,0,0,1,5.32,5.39,4.94,4.94,0,0,0,1.92,1.9,14.34,14.34,0,0,0,6.9,1.78,14.72,14.72,0,0,0,1.49-.08,14,14,0,0,0,4.63-1.32,52.28,52.28,0,0,0,22.3,8.28,4.44,4.44,0,0,0,.63,0,5,5,0,0,0,2.53-.68l19.74-11.58a5,5,0,0,0-1.73-9.25,31,31,0,0,1-13.8-5.53,35.28,35.28,0,0,1-5.21-5,65.74,65.74,0,0,0-7.91-7.64,67.81,67.81,0,0,0-10.45-7,21.65,21.65,0,0,0-12-4.53l-1.14,0Z" transform="translate(-838.83 -376.48)"/><path class="cls-2" d="M966.2,677.54a18.48,18.48,0,0,1-15.56-8.79,2.35,2.35,0,0,1-.35-1L949,657.94a14.31,14.31,0,0,1-2.17.16,13.26,13.26,0,0,1-11.37-6c-2.6-4.23-1.71-8.8-1-11A26.2,26.2,0,0,0,922,631.14a25.59,25.59,0,0,0-8.81-1.56,27.4,27.4,0,0,0-9.75,1.81,28,28,0,0,1-18.5,9.6c-.73.06-1.46.09-2.18.09a27.6,27.6,0,0,1-14.05-3.94l-23.42,7.15a2.27,2.27,0,0,1-.73.11,2.53,2.53,0,0,1-1.33-.38,2.5,2.5,0,0,1-1.14-1.73,60.33,60.33,0,0,1,7.81-40.13,113.24,113.24,0,0,0,13.29-40.41,2.51,2.51,0,0,1,2-2.13,283.7,283.7,0,0,0,58.21-18.22l.26-.1a27.53,27.53,0,0,0,9.06-4.68c1.13-.89,2.1-1.8,6.16-6.34,2.39-2.67,4.78-5.41,7.1-8.13a2.51,2.51,0,0,1,1.9-.87h.12a2.51,2.51,0,0,1,1.93,1.07,53.88,53.88,0,0,0,4.25,5.37,54.6,54.6,0,0,0,7.44,6.89,22.07,22.07,0,0,0,11.21-9.09,2.49,2.49,0,0,1,2.12-1.18H975a2.52,2.52,0,0,1,2.12,1.44,9.46,9.46,0,0,0,4.3,4.44,9.36,9.36,0,0,0,3.39.95,60.41,60.41,0,0,0-.46-29.23,2.5,2.5,0,0,1,4.37-2.19,279.22,279.22,0,0,0,30.54,32.56c6,5.48,12.39,10.75,18.89,15.69a2.43,2.43,0,0,1,.76,1,65.56,65.56,0,0,1-3,60.25,62.61,62.61,0,0,1-6.69,11.06c-5.89,7.81-11.85,11.84-18.16,16.11a110.07,110.07,0,0,0-13.3,10.11,85.69,85.69,0,0,0-14,16.47,18.5,18.5,0,0,1-15.49,14.46A18,18,0,0,1,966.2,677.54Z" transform="translate(-838.83 -376.48)"/><path d="M986.81,501.31a281.06,281.06,0,0,0,30.81,32.85c6.5,5.9,12.9,11.16,19.06,15.83a63,63,0,0,1-2.89,58,60.72,60.72,0,0,1-6.47,10.73c-9.48,12.54-19.08,14.88-31.15,25.87A87.88,87.88,0,0,0,981.53,662a15.88,15.88,0,0,1-13.44,12.94,17.11,17.11,0,0,1-1.89.11,15.88,15.88,0,0,1-13.43-7.6l-1.62-12.6a12.53,12.53,0,0,1-4.29.76,10.75,10.75,0,0,1-9.24-4.84c-2.76-4.5-.55-9.59-.34-10a28.91,28.91,0,0,0-14.47-11.91,27.91,27.91,0,0,0-9.67-1.72,29.69,29.69,0,0,0-11.27,2.23,25.43,25.43,0,0,1-17.19,9.19c-.67.06-1.33.08-2,.08A25,25,0,0,1,869,634.41l-24.51,7.49A57.76,57.76,0,0,1,852,603.44a115.58,115.58,0,0,0,13.62-41.37,286.24,286.24,0,0,0,58.72-18.38,30,30,0,0,0,9.87-5.1c1.29-1,2.39-2.07,6.47-6.64,2.83-3.17,5.23-5.94,7.14-8.17a55.55,55.55,0,0,0,4.44,5.61,56.79,56.79,0,0,0,8.85,8,24.51,24.51,0,0,0,13.78-10.55,12.18,12.18,0,0,0,5.45,5.62,11.87,11.87,0,0,0,5.32,1.24c.47,0,.86,0,1.15-.05a63.12,63.12,0,0,0,0-32.34m0-5a5,5,0,0,0-4.84,6.25,59,59,0,0,1,1.57,21.5c-.15,1.37-.36,2.73-.61,4.09l-.35-.16a7.07,7.07,0,0,1-3.16-3.28,5,5,0,0,0-4.23-2.86h-.3a5,5,0,0,0-4.24,2.36,19.37,19.37,0,0,1-5,5.42,18.89,18.89,0,0,1-3.66,2.13,52.53,52.53,0,0,1-10-10.82,5,5,0,0,0-3.86-2.15h-.25a5,5,0,0,0-3.8,1.75c-2.31,2.7-4.69,5.42-7.07,8.09-4.06,4.54-4.91,5.31-5.84,6a24.91,24.91,0,0,1-8.25,4.25,5.55,5.55,0,0,0-.52.2,281.31,281.31,0,0,1-57.69,18.06,5,5,0,0,0-4,4.26,110.13,110.13,0,0,1-13,39.51,62.78,62.78,0,0,0-8.09,41.73,5,5,0,0,0,2.28,3.47,5.06,5.06,0,0,0,2.66.76,5.21,5.21,0,0,0,1.46-.21l22.39-6.84a30,30,0,0,0,14.35,3.73c.79,0,1.59,0,2.38-.1a30.52,30.52,0,0,0,19.75-10,24.84,24.84,0,0,1,8.3-1.44,23,23,0,0,1,7.94,1.41,23.51,23.51,0,0,1,10.68,8,15.36,15.36,0,0,0,1.6,11.88,15.77,15.77,0,0,0,13.49,7.23l.15,1.18.81,6.29a5,5,0,0,0,.7,2,20.71,20.71,0,0,0,20.2,9.83,20.7,20.7,0,0,0,17.52-15.95,83,83,0,0,1,13.31-15.61,107.84,107.84,0,0,1,13-9.89c6.48-4.39,12.61-8.53,18.76-16.67a66,66,0,0,0,6.91-11.41,68.07,68.07,0,0,0,3-62.45,5,5,0,0,0-1.53-1.9c-6.44-4.89-12.74-10.12-18.72-15.55a277.55,277.55,0,0,1-30.26-32.27,5,5,0,0,0-3.91-1.88Z" transform="translate(-838.83 -376.48)"/></svg>