<?xml version="1.0" encoding="UTF-8" standalone="no"?>
<svg xmlns:dc="http://purl.org/dc/elements/1.1/" xmlns:cc="http://creativecommons.org/ns#" xmlns:rdf="http://www.w3.org/1999/02/22-rdf-syntax-ns#" xmlns:svg="http://www.w3.org/2000/svg" xmlns="http://www.w3.org/2000/svg" xmlns:sodipodi="http://sodipodi.sourceforge.net/DTD/sodipodi-0.dtd" xmlns:inkscape="http://www.inkscape.org/namespaces/inkscape" width="32" height="32" viewBox="0 0 32 32.000001" id="svg6826" version="1.1" inkscape:version="0.91 r13725" sodipodi:docname="rocket-space-spacecraft-spaceship-astronomy-launch.svg">
  <defs id="defs6828"/>
  <sodipodi:namedview id="base" pagecolor="#ffffff" bordercolor="#666666" borderopacity="1.0" inkscape:pageopacity="0.0" inkscape:pageshadow="2" inkscape:zoom="9.064225" inkscape:cx="30.093913" inkscape:cy="25.555892" inkscape:document-units="px" inkscape:current-layer="layer1" showgrid="true" units="px" inkscape:window-width="1366" inkscape:window-height="716" inkscape:window-x="-8" inkscape:window-y="-8" inkscape:window-maximized="1">
    <inkscape:grid type="xygrid" id="grid6888"/>
  </sodipodi:namedview>
  
  <g inkscape:label="Layer 1" inkscape:groupmode="layer" id="layer1" transform="translate(0,-1020.3622)">
    <path sodipodi:nodetypes="ccccccc" inkscape:connector-curvature="0" id="path10478" d="m 8.0050522,1035.8591 c 0,0 7.4647418,-7.4647 10.9471728,-10.9471 1.312438,-1.3125 3.092499,-2.0498 4.948584,-2.0498 l 5.59919,0 0,5.5991 c 1.4e-5,1.8561 -0.737312,3.6362 -2.049771,4.9487 l -10.947174,10.9471" style="fill:none;fill-rule:evenodd;stroke:#FFFFFF;stroke-width:1.00000274;stroke-linecap:round;stroke-linejoin:round;stroke-miterlimit:4;stroke-dasharray:none;stroke-opacity:1"/>
    <path inkscape:connector-curvature="0" style="fill:none;fill-rule:evenodd;stroke:#FFFFFF;stroke-width:1.00000262;stroke-linecap:round;stroke-linejoin:round;stroke-miterlimit:4;stroke-dasharray:none;stroke-opacity:1" d="m 11.994947,1043.3672 -1.319792,1.3198 a 5.9999982,5.9999982 0 0 1 -2.7874711,1.5783 l -2.3876837,0.5969 0.5969373,-2.3877 a 6.0000022,6.0000022 0 0 1 1.5781698,-2.7874 l 1.3198399,-1.3199" id="path10480"/>
    <path inkscape:connector-curvature="0" id="path10482" d="m 13.499999,1030.3622 -4.7601038,10e-5 a 2.9999999,2.9999999 0 0 0 -2.121926,0.8793 l -4.118039,4.1206 1.50007,0 a 12.999999,12.999999 0 0 1 12.9999988,13 l 0,1.5 4.120642,-4.118 A 2.9999987,2.9999987 0 0 0 22,1043.6222 l -1e-6,-4.76" style="fill:none;fill-rule:evenodd;stroke:#FFFFFF;stroke-width:1.00000274;stroke-linecap:butt;stroke-linejoin:round;stroke-miterlimit:4;stroke-dasharray:none;stroke-opacity:1"/>
    <path inkscape:connector-curvature="0" style="opacity:1;fill:none;fill-opacity:1;stroke:#FFFFFF;stroke-width:1.00000012;stroke-linecap:butt;stroke-linejoin:miter;stroke-miterlimit:4;stroke-dasharray:none;stroke-opacity:1" d="m 22.999998,1032.3622 a 3,3 0 0 1 -3,3 3,3 0 0 1 -3,-3 3,3 0 0 1 3,-3 3,3 0 0 1 3,3 z" id="path10484"/>
  </g>

	<metadata>
		<rdf:RDF xmlns:rdf="http://www.w3.org/1999/02/22-rdf-syntax-ns#" xmlns:rdfs="http://www.w3.org/2000/01/rdf-schema#" xmlns:dc="http://purl.org/dc/elements/1.1/">
			<rdf:Description about="https://iconscout.com/legal#licenses" dc:title="rocket-space-spacecraft-spaceship-astronomy-launch" dc:description="rocket-space-spacecraft-spaceship-astronomy-launch" dc:publisher="Iconscout" dc:date="2017-04-11" dc:format="image/svg+xml" dc:language="en">
				<dc:creator>
					<rdf:Bag>
						<rdf:li>Vignesh Oviyan</rdf:li>
					</rdf:Bag>
				</dc:creator>
			</rdf:Description>
		</rdf:RDF>
    </metadata></svg>
