<svg id="Calque_1" data-name="Calque 1" xmlns="http://www.w3.org/2000/svg" viewBox="0 0 536.88 534.91"><defs><style>.cls-1{fill:#fc8b11;}.cls-2{fill:#fead38;}</style></defs><title>sun</title><path class="cls-1" d="M490.9,679.7C403.49,652.9,359.8,593,345,572c-53-75.09-47.78-149.89-45.65-174.62,2.25-26.16,8-83.28,53.8-139.7,15.52-19.13,58-69.86,137.76-90.22,73.93-18.87,135.22-.24,154.76,6,87,27.66,129.72,87.82,144.45,109.25,52,75.64,45.76,150.33,43.29,175.1-2.6,26.05-9.14,83.15-55.69,139.1-15.86,19.07-59.06,69.43-139,88.74C568.33,702.65,510.34,685.66,490.9,679.7Z" transform="translate(-298.12 -158.09)"/><path class="cls-2" d="M540,159.78c-27.82-15-141.43,71.57-161.45,183-34.16,190.09,220.32,362.4,242.68,346.47C637.65,677.51,519.26,569.81,513.24,385,509,254,564.06,172.75,540,159.78Z" transform="translate(-298.12 -158.09)"/></svg>