<svg id="Calque_1" data-name="Calque 1" xmlns="http://www.w3.org/2000/svg" viewBox="0 0 52.91 56.58"><defs><style>.cls-1{fill:#9ed8fb;}.cls-2{fill:#509e4a;}</style></defs><title>terre</title><path class="cls-1" d="M559.77,452.08a27.51,27.51,0,0,1-14.38-11.41,29,29,0,0,1-4.49-18.51,27.23,27.23,0,0,1,5.3-14.81,25.28,25.28,0,0,1,13.57-9.56,25.87,25.87,0,0,1,15.25.63A27.39,27.39,0,0,1,589.26,410a28.93,28.93,0,0,1,4.26,18.56A27.24,27.24,0,0,1,588,443.31a25.2,25.2,0,0,1-13.7,9.4A25.48,25.48,0,0,1,559.77,452.08Z" transform="translate(-540.78 -396.92)"/><path class="cls-2" d="M552.38,401.43l3.86,2.23V410l-3.86,1.86a9.94,9.94,0,0,0-.87,14.37l4.73,2.72q.66,9.79,1.3,19.58l1,2.34,3.08-9.24a20.88,20.88,0,0,1,3.24-11.08,21.42,21.42,0,0,1,5-5.43c.83-.88,2.89-3.26,3-5.83a13.48,13.48,0,0,0-.07-1.35,9.81,9.81,0,0,0-1-3.67,8.36,8.36,0,0,0-3.19-3.18,21.08,21.08,0,0,1-8.63-1.09,13.65,13.65,0,0,1-.77-3.64c-.14-1.86.21-2.34-.2-3.39a4.33,4.33,0,0,0-4-2.88A3.89,3.89,0,0,0,552.38,401.43Z" transform="translate(-540.78 -396.92)"/><path class="cls-2" d="M589.82,421.49l-6.18,3.72v9.66l3.09,6.73a16.07,16.07,0,0,0,5.4-10.08A15.67,15.67,0,0,0,589.82,421.49Z" transform="translate(-540.78 -396.92)"/></svg>