<svg id="Calque_1" data-name="Calque 1" xmlns="http://www.w3.org/2000/svg" viewBox="0 0 52.91 50.03"><defs><style>.cls-1{fill:#a2e0ef;}.cls-2{fill:#72cad7;}.cls-3{fill:#bff2ff;}</style></defs><title>uranus</title><path class="cls-1" d="M559.86,449.21a26.92,26.92,0,0,1-14.37-10.1,23.2,23.2,0,0,1-4.5-16.36,22.31,22.31,0,0,1,5.3-13.1,25.24,25.24,0,0,1,13.57-8.45,28.93,28.93,0,0,1,15.26.56A26.67,26.67,0,0,1,589.35,412a23.15,23.15,0,0,1,4.26,16.41,22.33,22.33,0,0,1-5.48,13,25.36,25.36,0,0,1-13.7,8.31A28.86,28.86,0,0,1,559.86,449.21Z" transform="translate(-540.87 -400.43)"/><path class="cls-2" d="M564.1,400.52c.07.18-7.23.54-12.44,6.14-8.15,8.77-5.24,24-3.44,29.52.09.27.18.53.32.92,2.37,6.23,7.37,9.94,11.32,12.11a24.74,24.74,0,0,1-6.36-2.51,24.49,24.49,0,0,1-9.23-9.38,25.66,25.66,0,0,1-2.58-18.19,22.52,22.52,0,0,1,4-8.74C552.22,401.89,564,400.28,564.1,400.52Z" transform="translate(-540.87 -400.43)"/><ellipse class="cls-3" cx="37.54" cy="14.21" rx="4.39" ry="4.23"/></svg>