<svg id="Calque_1" data-name="Calque 1" xmlns="http://www.w3.org/2000/svg" viewBox="0 0 52.91 50.37"><defs><style>.cls-1{fill:#ebac65;}.cls-2{fill:#d68c3c;}.cls-3{fill:#f8c37f;}</style></defs><title>venus</title><path class="cls-1" d="M560.42,449A26.87,26.87,0,0,1,546,438.88a23.22,23.22,0,0,1-4.5-16.37,22.28,22.28,0,0,1,5.3-13.09A25.28,25.28,0,0,1,560.42,401a28.79,28.79,0,0,1,3.83-.64,28,28,0,0,1,3.62-.11,30,30,0,0,1,7.8,1.31,29,29,0,0,1,6.31,2.81,27,27,0,0,1,7.92,7.43,23.22,23.22,0,0,1,4.27,16.41,22.38,22.38,0,0,1-5.49,13,25.25,25.25,0,0,1-13.7,8.32A28.78,28.78,0,0,1,560.42,449Z" transform="translate(-541.42 -399.84)"/><path class="cls-2" d="M567.87,400.21c-.8-1.41-16.73,1-23.33,12.44-6.76,11.75.12,26.35,1.5,26.23,1.09-.09-1.76-9.42,3.13-19.88C555.29,405.9,568.64,401.55,567.87,400.21Z" transform="translate(-541.42 -399.84)"/><ellipse class="cls-3" cx="38.96" cy="18.2" rx="4.39" ry="4.23"/></svg>